  0
SECTION
  2
HEADER
  9
$ACADVER
  1
AC1015
  9
$ACADMAINTVER
 70
     6
  9
$DWGCODEPAGE
  3
ANSI_936
  9
$INSBASE
 10
0.0
 20
0.0
 30
0.0
  9
$EXTMIN
 10
-3.6556250279
 20
-3.1587270524
 30
0.0
  9
$EXTMAX
 10
3.0777339196
 20
2.98770862
 30
0.0
  9
$LIMMIN
 10
0.0
 20
0.0
  9
$LIMMAX
 10
420.0
 20
297.0
  9
$ORTHOMODE
 70
     0
  9
$REGENMODE
 70
     1
  9
$FILLMODE
 70
     1
  9
$QTEXTMODE
 70
     0
  9
$MIRRTEXT
 70
     1
  9
$LTSCALE
 40
1.0
  9
$ATTMODE
 70
     1
  9
$TEXTSIZE
 40
3.5
  9
$TRACEWID
 40
1.0
  9
$TEXTSTYLE
  7
Standard
  9
$CLAYER
  8
0
  9
$CELTYPE
  6
ByLayer
  9
$CECOLOR
 62
   256
  9
$CELTSCALE
 40
1.0
  9
$DISPSILH
 70
     0
  9
$DIMSCALE
 40
1.0
  9
$DIMASZ
 40
4.08
  9
$DIMEXO
 40
0.0
  9
$DIMDLI
 40
3.75
  9
$DIMRND
 40
0.0
  9
$DIMDLE
 40
0.0
  9
$DIMEXE
 40
2.0
  9
$DIMTP
 40
0.0
  9
$DIMTM
 40
0.0
  9
$DIMTXT
 40
3.5
  9
$DIMCEN
 40
2.5
  9
$DIMTSZ
 40
0.0
  9
$DIMTOL
 70
     0
  9
$DIMLIM
 70
     0
  9
$DIMTIH
 70
     1
  9
$DIMTOH
 70
     1
  9
$DIMSE1
 70
     0
  9
$DIMSE2
 70
     0
  9
$DIMTAD
 70
     1
  9
$DIMZIN
 70
     0
  9
$DIMBLK
  1

  9
$DIMASO
 70
     1
  9
$DIMSHO
 70
     1
  9
$DIMPOST
  1

  9
$DIMAPOST
  1

  9
$DIMALT
 70
     0
  9
$DIMALTD
 70
     3
  9
$DIMALTF
 40
0.0393700787
  9
$DIMLFAC
 40
1.0
  9
$DIMTOFL
 70
     1
  9
$DIMTVP
 40
0.0
  9
$DIMTIX
 70
     0
  9
$DIMSOXD
 70
     0
  9
$DIMSAH
 70
     0
  9
$DIMBLK1
  1

  9
$DIMBLK2
  1

  9
$DIMSTYLE
  2
ISO-25
  9
$DIMCLRD
 70
     0
  9
$DIMCLRE
 70
     0
  9
$DIMCLRT
 70
     0
  9
$DIMTFAC
 40
1.0
  9
$DIMGAP
 40
1.524
  9
$DIMJUST
 70
     0
  9
$DIMSD1
 70
     0
  9
$DIMSD2
 70
     0
  9
$DIMTOLJ
 70
     0
  9
$DIMTZIN
 70
     0
  9
$DIMALTZ
 70
     0
  9
$DIMALTTZ
 70
     0
  9
$DIMUPT
 70
     0
  9
$DIMDEC
 70
     2
  9
$DIMTDEC
 70
     2
  9
$DIMALTU
 70
     2
  9
$DIMALTTD
 70
     3
  9
$DIMTXSTY
  7
Standard
  9
$DIMAUNIT
 70
     0
  9
$DIMADEC
 70
     2
  9
$DIMALTRND
 40
0.0
  9
$DIMAZIN
 70
     0
  9
$DIMDSEP
 70
    44
  9
$DIMATFIT
 70
     3
  9
$DIMFRAC
 70
     0
  9
$DIMLDRBLK
  1

  9
$DIMLUNIT
 70
     2
  9
$DIMLWD
 70
    -2
  9
$DIMLWE
 70
    -2
  9
$DIMTMOVE
 70
     0
  9
$LUNITS
 70
     2
  9
$LUPREC
 70
     2
  9
$SKETCHINC
 40
1.0
  9
$FILLETRAD
 40
0.0
  9
$AUNITS
 70
     0
  9
$AUPREC
 70
     2
  9
$MENU
  1
.
  9
$ELEVATION
 40
0.0
  9
$PELEVATION
 40
0.0
  9
$THICKNESS
 40
0.0
  9
$LIMCHECK
 70
     0
  9
$CHAMFERA
 40
0.0
  9
$CHAMFERB
 40
0.0
  9
$CHAMFERC
 40
0.0
  9
$CHAMFERD
 40
0.0
  9
$SKPOLY
 70
     0
  9
$TDCREATE
 40
2460047.947173345
  9
$TDUCREATE
 40
2460047.613840011
  9
$TDUPDATE
 40
2460047.94721235
  9
$TDUUPDATE
 40
2460047.613879016
  9
$TDINDWG
 40
0.0000000116
  9
$TDUSRTIMER
 40
0.0000000116
  9
$USRTIMER
 70
     1
  9
$ANGBASE
 50
0.0
  9
$ANGDIR
 70
     0
  9
$PDMODE
 70
     0
  9
$PDSIZE
 40
-1.0
  9
$PLINEWID
 40
0.0
  9
$SPLFRAME
 70
     0
  9
$SPLINETYPE
 70
     6
  9
$SPLINESEGS
 70
     8
  9
$HANDSEED
  5
A4
  9
$SURFTAB1
 70
     6
  9
$SURFTAB2
 70
     6
  9
$SURFTYPE
 70
     6
  9
$SURFU
 70
     6
  9
$SURFV
 70
     6
  9
$UCSBASE
  2

  9
$UCSNAME
  2

  9
$UCSORG
 10
0.0
 20
0.0
 30
0.0
  9
$UCSXDIR
 10
1.0
 20
0.0
 30
0.0
  9
$UCSYDIR
 10
0.0
 20
1.0
 30
0.0
  9
$UCSORTHOREF
  2

  9
$UCSORTHOVIEW
 70
     0
  9
$UCSORGTOP
 10
0.0
 20
0.0
 30
0.0
  9
$UCSORGBOTTOM
 10
0.0
 20
0.0
 30
0.0
  9
$UCSORGLEFT
 10
0.0
 20
0.0
 30
0.0
  9
$UCSORGRIGHT
 10
0.0
 20
0.0
 30
0.0
  9
$UCSORGFRONT
 10
0.0
 20
0.0
 30
0.0
  9
$UCSORGBACK
 10
0.0
 20
0.0
 30
0.0
  9
$PUCSBASE
  2

  9
$PUCSNAME
  2

  9
$PUCSORG
 10
0.0
 20
0.0
 30
0.0
  9
$PUCSXDIR
 10
1.0
 20
0.0
 30
0.0
  9
$PUCSYDIR
 10
0.0
 20
1.0
 30
0.0
  9
$PUCSORTHOREF
  2

  9
$PUCSORTHOVIEW
 70
     0
  9
$PUCSORGTOP
 10
0.0
 20
0.0
 30
0.0
  9
$PUCSORGBOTTOM
 10
0.0
 20
0.0
 30
0.0
  9
$PUCSORGLEFT
 10
0.0
 20
0.0
 30
0.0
  9
$PUCSORGRIGHT
 10
0.0
 20
0.0
 30
0.0
  9
$PUCSORGFRONT
 10
0.0
 20
0.0
 30
0.0
  9
$PUCSORGBACK
 10
0.0
 20
0.0
 30
0.0
  9
$USERI1
 70
     0
  9
$USERI2
 70
     0
  9
$USERI3
 70
     0
  9
$USERI4
 70
     0
  9
$USERI5
 70
     0
  9
$USERR1
 40
0.0
  9
$USERR2
 40
0.0
  9
$USERR3
 40
0.0
  9
$USERR4
 40
0.0
  9
$USERR5
 40
0.0
  9
$WORLDVIEW
 70
     1
  9
$SHADEDGE
 70
     3
  9
$SHADEDIF
 70
    70
  9
$TILEMODE
 70
     1
  9
$MAXACTVP
 70
    64
  9
$PINSBASE
 10
0.0
 20
0.0
 30
0.0
  9
$PLIMCHECK
 70
     0
  9
$PEXTMIN
 10
1.0000000000E+20
 20
1.0000000000E+20
 30
1.0000000000E+20
  9
$PEXTMAX
 10
-1.0000000000E+20
 20
-1.0000000000E+20
 30
-1.0000000000E+20
  9
$PLIMMIN
 10
0.0
 20
0.0
  9
$PLIMMAX
 10
420.0
 20
297.0
  9
$UNITMODE
 70
     0
  9
$VISRETAIN
 70
     1
  9
$PLINEGEN
 70
     0
  9
$PSLTSCALE
 70
     1
  9
$TREEDEPTH
 70
  3020
  9
$CMLSTYLE
  2
Standard
  9
$CMLJUST
 70
     0
  9
$CMLSCALE
 40
20.0
  9
$PROXYGRAPHICS
 70
     1
  9
$MEASUREMENT
 70
     1
  9
$CELWEIGHT
370
    -1
  9
$ENDCAPS
280
     0
  9
$JOINSTYLE
280
     0
  9
$LWDISPLAY
290
     1
  9
$INSUNITS
 70
     4
  9
$HYPERLINKBASE
  1

  9
$STYLESHEET
  1

  9
$XEDIT
290
     1
  9
$CEPSNTYPE
380
     0
  9
$PSTYLEMODE
290
     1
  9
$FINGERPRINTGUID
  2
{f86436ad-6559-440d-85db-0870015a5e07}
  9
$VERSIONGUID
  2
{FAEB1C32-E019-11D5-929B-00C0DF256EC4}
  9
$EXTNAMES
290
     1
  9
$PSVPSCALE
 40
0.0
  9
$OLESTARTUP
290
     0
  0
ENDSEC
  0
SECTION
  2
CLASSES
  0
CLASS
  1
ACDBDICTIONARYWDFLT
  2
AcDbDictionaryWithDefault
  3
ObjectDBX Classes
 90
        0
280
     0
281
     0
  0
CLASS
  1
VISUALSTYLE
  2
AcDbVisualStyle
  3
ObjectDBX Classes
 90
     4095
280
     0
281
     0
  0
CLASS
  1
MATERIAL
  2
AcDbMaterial
  3
ObjectDBX Classes
 90
     1153
280
     0
281
     0
  0
CLASS
  1
SCALE
  2
AcDbScale
  3
ObjectDBX Classes
 90
     1153
280
     0
281
     0
  0
CLASS
  1
TABLESTYLE
  2
AcDbTableStyle
  3
ObjectDBX Classes
 90
     4095
280
     0
281
     0
  0
CLASS
  1
MLEADERSTYLE
  2
AcDbMLeaderStyle
  3
ACDB_MLEADERSTYLE_CLASS
 90
     4095
280
     0
281
     0
  0
CLASS
  1
SUN
  2
AcDbSun
  3
SCENEOE
 90
     1153
280
     0
281
     0
  0
CLASS
  1
ACDBPLACEHOLDER
  2
AcDbPlaceHolder
  3
ObjectDBX Classes
 90
        0
280
     0
281
     0
  0
CLASS
  1
LAYOUT
  2
AcDbLayout
  3
ObjectDBX Classes
 90
        0
280
     0
281
     0
  0
ENDSEC
  0
SECTION
  2
TABLES
  0
TABLE
  2
VPORT
  5
8
330
0
100
AcDbSymbolTable
 70
     1
  0
VPORT
  5
29
330
8
100
AcDbSymbolTableRecord
100
AcDbViewportTableRecord
  2
*Active
 70
     0
 10
0.0
 20
0.0
 11
1.0
 21
1.0
 12
-0.2889455541
 22
-0.0855092162
 13
0.0
 23
0.0
 14
10.0
 24
10.0
 15
10.0
 25
10.0
 16
0.0
 26
0.0
 36
1.0
 17
0.0
 27
0.0
 37
0.0
 40
6.2693643859
 41
1.0954900216
 42
50.0
 43
0.0
 44
0.0
 50
0.0
 51
0.0
 71
     0
 72
   100
 73
     1
 74
     3
 75
     0
 76
     0
 77
     0
 78
     0
281
     0
 65
     1
110
0.0
120
0.0
130
0.0
111
1.0
121
0.0
131
0.0
112
0.0
122
1.0
132
0.0
 79
     0
146
0.0
  0
ENDTAB
  0
TABLE
  2
LTYPE
  5
5
330
0
100
AcDbSymbolTable
 70
     6
  0
LTYPE
  5
14
330
5
100
AcDbSymbolTableRecord
100
AcDbLinetypeTableRecord
  2
ByBlock
 70
     0
  3

 72
    65
 73
     0
 40
0.0
  0
LTYPE
  5
15
330
5
100
AcDbSymbolTableRecord
100
AcDbLinetypeTableRecord
  2
ByLayer
 70
     0
  3

 72
    65
 73
     0
 40
0.0
  0
LTYPE
  5
16
330
5
100
AcDbSymbolTableRecord
100
AcDbLinetypeTableRecord
  2
Continuous
 70
     0
  3
Solid line
 72
    65
 73
     0
 40
0.0
  0
LTYPE
  5
5E
330
5
100
AcDbSymbolTableRecord
100
AcDbLinetypeTableRecord
  2
HIDDEN
 70
     0
  3
Hidden __ __ __ __ __ __ __ __ __ __ __ __ __ __
 72
    65
 73
     2
 40
1.905
 49
1.27
 74
     0
 49
-0.635
 74
     0
  0
LTYPE
  5
5F
330
5
100
AcDbSymbolTableRecord
100
AcDbLinetypeTableRecord
  2
PHANTOM
 70
     0
  3
Phantom ______  __  __  ______  __  __  ______
 72
    65
 73
     6
 40
12.7
 49
6.35
 74
     0
 49
-1.27
 74
     0
 49
1.27
 74
     0
 49
-1.27
 74
     0
 49
1.27
 74
     0
 49
-1.27
 74
     0
  0
LTYPE
  5
60
330
5
100
AcDbSymbolTableRecord
100
AcDbLinetypeTableRecord
  2
CENTER
 70
     0
  3
Center ____ _ ____ _ ____ _ ____ _ ____ _ ____
 72
    65
 73
     4
 40
10.16
 49
6.35
 74
     0
 49
-1.27
 74
     0
 49
1.27
 74
     0
 49
-1.27
 74
     0
  0
LTYPE
  5
61
330
5
100
AcDbSymbolTableRecord
100
AcDbLinetypeTableRecord
  2
CENTERX2
 70
     0
  3
Center (2x) ________  __  ________  __  _____
 72
    65
 73
     4
 40
20.32
 49
12.7
 74
     0
 49
-2.54
 74
     0
 49
2.54
 74
     0
 49
-2.54
 74
     0
  0
LTYPE
  5
62
330
5
100
AcDbSymbolTableRecord
100
AcDbLinetypeTableRecord
  2
DOT2
 70
     0
  3
Dot (.5x) ........................................
 72
    65
 73
     2
 40
0.635
 49
0.0
 74
     0
 49
-0.635
 74
     0
  0
ENDTAB
  0
TABLE
  2
LAYER
  5
2
330
0
100
AcDbSymbolTable
 70
     1
  0
LAYER
  5
10
330
2
100
AcDbSymbolTableRecord
100
AcDbLayerTableRecord
  2
0
 70
     0
 62
     7
  6
Continuous
370
    -3
390
F
  0
ENDTAB
  0
TABLE
  2
STYLE
  5
3
330
0
100
AcDbSymbolTable
 70
     1
  0
STYLE
  5
11
330
3
100
AcDbSymbolTableRecord
100
AcDbTextStyleTableRecord
  2
Standard
 70
     0
 40
0.0
 41
1.0
 50
0.0
 71
     0
 42
3.5
  3
txt
  4

  0
ENDTAB
  0
TABLE
  2
VIEW
  5
6
330
0
100
AcDbSymbolTable
 70
     0
  0
ENDTAB
  0
TABLE
  2
UCS
  5
7
330
0
100
AcDbSymbolTable
 70
     0
  0
ENDTAB
  0
TABLE
  2
APPID
  5
9
330
0
100
AcDbSymbolTable
 70
     1
  0
APPID
  5
12
330
9
100
AcDbSymbolTableRecord
100
AcDbRegAppTableRecord
  2
ACAD
 70
     0
  0
ENDTAB
  0
TABLE
  2
DIMSTYLE
  5
A
330
0
100
AcDbSymbolTable
 70
     1
100
AcDbDimStyleTable
  0
DIMSTYLE
105
27
330
A
100
AcDbSymbolTableRecord
100
AcDbDimStyleTableRecord
  2
ISO-25
 70
     0
 41
2.5
 42
0.625
 43
3.75
 44
1.25
 73
     0
 74
     0
 77
     1
 78
     8
140
2.5
141
2.5
143
0.0393700787
147
0.625
171
     3
172
     1
178
     0
271
     2
272
     2
274
     3
278
    44
283
     0
284
     8
340
11
  0
ENDTAB
  0
TABLE
  2
BLOCK_RECORD
  5
1
330
0
100
AcDbSymbolTable
 70
     1
  0
BLOCK_RECORD
  5
1F
330
1
100
AcDbSymbolTableRecord
100
AcDbBlockTableRecord
  2
*Model_Space
340
22
  0
BLOCK_RECORD
  5
1B
330
1
100
AcDbSymbolTableRecord
100
AcDbBlockTableRecord
  2
*Paper_Space
340
1E
  0
BLOCK_RECORD
  5
23
330
1
100
AcDbSymbolTableRecord
100
AcDbBlockTableRecord
  2
*Paper_Space0
340
26
  0
ENDTAB
  0
ENDSEC
  0
SECTION
  2
BLOCKS
  0
BLOCK
  5
20
330
1F
100
AcDbEntity
  8
0
100
AcDbBlockBegin
  2
*Model_Space
 70
     0
 10
0.0
 20
0.0
 30
0.0
  3
*Model_Space
  1

  0
ENDBLK
  5
21
330
1F
100
AcDbEntity
  8
0
100
AcDbBlockEnd
  0
BLOCK
  5
1C
330
1B
100
AcDbEntity
 67
     1
  8
0
100
AcDbBlockBegin
  2
*Paper_Space
 70
     0
 10
0.0
 20
0.0
 30
0.0
  3
*Paper_Space
  1

  0
ENDBLK
  5
1D
330
1B
100
AcDbEntity
 67
     1
  8
0
100
AcDbBlockEnd
  0
BLOCK
  5
24
330
23
100
AcDbEntity
  8
0
100
AcDbBlockBegin
  2
*Paper_Space0
 70
     0
 10
0.0
 20
0.0
 30
0.0
  3
*Paper_Space0
  1

  0
ENDBLK
  5
25
330
23
100
AcDbEntity
  8
0
100
AcDbBlockEnd
  0
ENDSEC
  0
SECTION
  2
ENTITIES
  0
SPLINE
  5
63
330
1F
100
AcDbEntity
  8
0
  6
Continuous
 62
     7
370
    25
100
AcDbSpline
210
0.0
220
0.0
230
1.0
 70
     8
 71
     3
 72
    25
 73
    21
 74
     0
 42
0.00000001
 43
0.00000001
 40
0.0
 40
0.0
 40
0.0
 40
0.0
 40
0.0127933443993898
 40
0.073558920908028
 40
0.1343468870650888
 40
0.1951547375578939
 40
0.2559796316383476
 40
0.3168186403681353
 40
0.3776689335432987
 40
0.4385279067464556
 40
0.4993932560811559
 40
0.5602630114154268
 40
0.6211355394540872
 40
0.6820095267862564
 40
0.7428837899857591
 40
0.8037575188581391
 40
0.8646302353074417
 40
0.9255016363146719
 40
0.9863715634133137
 40
1.0
 40
1.0
 40
1.0
 40
1.0
 10
-2.691736736932302
 20
2.477514543942259
 30
0.0
 10
-2.697831493364623
 20
2.472884202464752
 30
0.0
 10
-2.732875004456235
 20
2.446260755781231
 30
0.0
 10
-2.79422271995005
 20
2.391387928930778
 30
0.0
 10
-2.875399919302885
 20
2.312795464887535
 30
0.0
 10
-2.953226750882258
 20
2.227652670164791
 30
0.0
 10
-3.027804652862741
 20
2.13686407756878
 30
0.0
 10
-3.098873802543225
 20
2.040463116612141
 30
0.0
 10
-3.166282418224709
 20
1.938734504884068
 30
0.0
 10
-3.229861552726617
 20
1.831912372506274
 30
0.0
 10
-3.28945923455389
 20
1.720260212426948
 30
0.0
 10
-3.344931439806598
 20
1.604048354207219
 30
0.0
 10
-3.396145931360017
 20
1.483559462925042
 30
0.0
 10
-3.442977465577648
 20
1.3590846462562
 30
0.0
 10
-3.485324369299538
 20
1.230929447298991
 30
0.0
 10
-3.523048415872484
 20
1.099389140609098
 30
0.0
 10
-3.556200017089025
 20
0.9648366641476946
 30
0.0
 10
-3.584178633694326
 20
0.8273907043019763
 30
0.0
 10
-3.602479953086562
 20
0.7241715898673151
 30
0.0
 10
-3.609900488288134
 20
0.6662857861324415
 30
0.0
 10
-3.611257971706979
 20
0.6556963856886643
 30
0.0
  0
SPLINE
  5
64
330
1F
100
AcDbEntity
  8
0
  6
Continuous
 62
     7
370
    25
100
AcDbSpline
210
0.0
220
0.0
230
1.0
 70
     8
 71
     3
 72
    24
 73
    20
 74
     0
 42
0.00000001
 43
0.00000001
 40
0.0
 40
0.0
 40
0.0
 40
0.0
 40
0.0239860237296424
 40
0.0858490074175827
 40
0.1477142552146643
 40
0.20958181177584
 40
0.2714516197085868
 40
0.3333234943861526
 40
0.3951970946276501
 40
0.4570718893341577
 40
0.5189469373007499
 40
0.5808209995595154
 40
0.6426926425115926
 40
0.7045600862897282
 40
0.7664211868251926
 40
0.8282734398999231
 40
0.8901140180923621
 40
0.9519398526862719
 40
1.0
 40
1.0
 40
1.0
 40
1.0
 10
-3.389279311882739
 20
-1.408162493836379
 30
0.0
 10
-3.383014961668988
 20
-1.425536787643703
 30
0.0
 10
-3.360594061313498
 20
-1.487721578868473
 30
0.0
 10
-3.317495872609182
 20
-1.591547578615063
 30
0.0
 10
-3.260197600807715
 20
-1.719278221911253
 30
0.0
 10
-3.198571150332171
 20
-1.843090432230552
 30
0.0
 10
-3.133115638846482
 20
-1.962924832951325
 30
0.0
 10
-3.063892504994008
 20
-2.078427775780303
 30
0.0
 10
-2.991091983638145
 20
-2.18933706578178
 30
0.0
 10
-2.914880978434065
 20
-2.295379352277491
 30
0.0
 10
-2.83544342580156
 20
-2.396298248279488
 30
0.0
 10
-2.752969144859013
 20
-2.49184822444009
 30
0.0
 10
-2.667655884335232
 20
-2.58179504253436
 30
0.0
 10
-2.579709879438514
 20
-2.665924219368542
 30
0.0
 10
-2.489339382219295
 20
-2.744010392459391
 30
0.0
 10
-2.396777977306074
 20
-2.815934802514406
 30
0.0
 10
-2.302195497535091
 20
-2.881249800895043
 30
0.0
 10
-2.213156436824369
 20
-2.936392232294574
 30
0.0
 10
-2.155051831875171
 20
-2.966588809945146
 30
0.0
 10
-2.129638982802105
 20
-2.979795698986523
 30
0.0
  0
SPLINE
  5
67
330
1F
100
AcDbEntity
  8
0
  6
Continuous
 62
     7
370
    25
100
AcDbSpline
210
0.0
220
0.0
230
1.0
 70
     8
 71
     3
 72
    22
 73
    18
 74
     0
 42
0.00000001
 43
0.00000001
 40
0.0
 40
0.0
 40
0.0
 40
0.0
 40
0.004997194810943
 40
0.0796195178370513
 40
0.15429037977788
 40
0.2290175666407151
 40
0.3038051420785831
 40
0.3786536899172915
 40
0.4535608501823803
 40
0.5285220225332298
 40
0.603531115541545
 40
0.6785812455400991
 40
0.7536653233621639
 40
0.8287765011587092
 40
0.9039084782718456
 40
0.9790556824900412
 40
1.0
 40
1.0
 40
1.0
 40
1.0
 10
0.6518111284628315
 20
-2.898778511425979
 30
0.0
 10
0.6539796756273332
 20
-2.898030282832102
 30
0.0
 10
0.6885307960412175
 20
-2.886108874495972
 30
0.0
 10
0.7539420279900869
 20
-2.856498288342474
 30
0.0
 10
0.8476375646130523
 20
-2.809524853025529
 30
0.0
 10
0.9390463657539991
 20
-2.755001900591242
 30
0.0
 10
1.028175215266838
 20
-2.694033224918052
 30
0.0
 10
1.114746336917679
 20
-2.626498197786494
 30
0.0
 10
1.19856366755421
 20
-2.552626645729701
 30
0.0
 10
1.279416214139515
 20
-2.472576415875388
 30
0.0
 10
1.357105139476252
 20
-2.386545848248532
 30
0.0
 10
1.431439264704589
 20
-2.294744071161992
 30
0.0
 10
1.502232333654398
 20
-2.197392895576706
 30
0.0
 10
1.56932381378044
 20
-2.094743602040899
 30
0.0
 10
1.6325025736657
 20
-1.987001940536883
 30
0.0
 10
1.677535957482171
 20
-1.901634681522185
 30
0.0
 10
1.701527064451032
 20
-1.852361132659174
 30
0.0
 10
1.706756218415235
 20
-1.841621362555949
 30
0.0
  0
SPLINE
  5
68
330
1F
100
AcDbEntity
  8
0
  6
Continuous
 62
     7
370
    25
100
AcDbSpline
210
0.0
220
0.0
230
1.0
 70
     8
 71
     3
 72
    51
 73
    47
 74
     0
 42
0.00000001
 43
0.00000001
 40
0.0
 40
0.0
 40
0.0
 40
0.0
 40
0.0122416062742671
 40
0.0354353489125926
 40
0.0586305571295444
 40
0.081826069256818
 40
0.1050212255938572
 40
0.1282156476508456
 40
0.1514090929900478
 40
0.1746014317448003
 40
0.197792625906744
 40
0.2209827114740908
 40
0.2441717833259492
 40
0.2673599825502541
 40
0.2905474858853032
 40
0.3137344969107981
 40
0.3369212386248341
 40
0.3601079470555169
 40
0.3832948609077123
 40
0.4064821487241962
 40
0.4296700545039153
 40
0.4528588153893207
 40
0.4760486557852421
 40
0.4992397806939435
 40
0.5224323679029735
 40
0.545626558658851
 40
0.5688224464440471
 40
0.5920200634717819
 40
0.615219364536368
 40
0.6384202079264907
 40
0.6616223332524144
 40
0.6848253362937521
 40
0.7080284917629022
 40
0.7312308709630985
 40
0.7544313895638122
 40
0.7776287044508388
 40
0.8008212022688154
 40
0.8240070052859758
 40
0.8471840027064726
 40
0.870349916137631
 40
0.8935024069268694
 40
0.9166392297003297
 40
0.9397584300203727
 40
0.9628585746250293
 40
0.9859389913319772
 40
1.0
 40
1.0
 40
1.0
 40
1.0
 10
1.706756218415235
 20
-1.841621362555949
 30
0.0
 10
1.716478168499151
 20
-1.821087107558937
 30
0.0
 10
1.744619956889985
 20
-1.761647318843557
 30
0.0
 10
1.787918392446029
 20
-1.659997547665738
 30
0.0
 10
1.835115930929719
 20
-1.535600160174911
 30
0.0
 10
1.877746554066914
 20
-1.407451803021578
 30
0.0
 10
1.915781780389645
 20
-1.275941993128582
 30
0.0
 10
1.949113558839754
 20
-1.141368279824927
 30
0.0
 10
1.977669606464704
 20
-1.004061240002665
 30
0.0
 10
2.001382475399747
 20
-0.8643504431026696
 30
0.0
 10
2.020197929141272
 20
-0.7225727130170146
 30
0.0
 10
2.0340727962327
 20
-0.5790689809794366
 30
0.0
 10
2.042975628772743
 20
-0.434184176381838
 30
0.0
 10
2.046886590319871
 20
-0.2882662848088526
 30
0.0
 10
2.045797527101676
 20
-0.1416656118947497
 30
0.0
 10
2.039711963551254
 20
0.0052660227266503
 30
0.0
 10
2.028645088873408
 20
0.1521760842652458
 30
0.0
 10
2.012623715876051
 20
0.2987121215213958
 30
0.0
 10
1.991686237475185
 20
0.4445224256896083
 30
0.0
 10
1.96588253356921
 20
0.5892570098458927
 30
0.0
 10
1.935273846403561
 20
0.7325684327115997
 30
0.0
 10
1.899932586263412
 20
0.8741127467230811
 30
0.0
 10
1.859942182650062
 20
1.013550123174214
 30
0.0
 10
1.815396889269065
 20
1.150545624667944
 30
0.0
 10
1.766401568046895
 20
1.284769960835747
 30
0.0
 10
1.713071454872373
 20
1.415900224611935
 30
0.0
 10
1.655531910384894
 20
1.54362060688038
 30
0.0
 10
1.593918159779732
 20
1.667623087965603
 30
0.0
 10
1.528375026218201
 20
1.787608105380076
 30
0.0
 10
1.459056662920942
 20
1.903285198518073
 30
0.0
 10
1.386126289303995
 20
2.014373632691588
 30
0.0
 10
1.309756100346336
 20
2.120602778691469
 30
0.0
 10
1.230127067421517
 20
2.221712767912014
 30
0.0
 10
1.147428657137812
 20
2.317455263632946
 30
0.0
 10
1.061858441315787
 20
2.407594294854245
 30
0.0
 10
0.9736218654330013
 20
2.49190686505231
 30
0.0
 10
0.8829321083349212
 20
2.570183614378418
 30
0.0
 10
0.7900097947383502
 20
2.642229360007854
 30
0.0
 10
0.6950826593324526
 20
2.707864819444036
 30
0.0
 10
0.5983849564140941
 20
2.76692421286363
 30
0.0
 10
0.5001571673458765
 20
2.819268454463375
 30
0.0
 10
0.4006437277547358
 20
2.86474026420555
 30
0.0
 10
0.3000970973906804
 20
2.903335575313505
 30
0.0
 10
0.198757088980002
 20
2.934567984194702
 30
0.0
 10
0.1101579989239001
 20
2.956555203370768
 30
0.0
 10
0.0553194463775855
 20
2.965147773839965
 30
0.0
 10
0.0345586555648778
 20
2.968400750984172
 30
0.0
  0
SPLINE
  5
69
330
1F
100
AcDbEntity
  8
0
  6
Continuous
 62
     7
370
    25
100
AcDbSpline
210
0.0
220
0.0
230
1.0
 70
     8
 71
     3
 72
    54
 73
    50
 74
     0
 42
0.00000001
 43
0.00000001
 40
0.0
 40
0.0
 40
0.0
 40
0.0
 40
0.019640014606227
 40
0.0413610977016571
 40
0.0630897082554016
 40
0.0848247654110076
 40
0.106565150481986
 40
0.1283097815783372
 40
0.1500576641688934
 40
0.1718079206108373
 40
0.1935598030556348
 40
0.2153126943441864
 40
0.2370661010097558
 40
0.2588195711217803
 40
0.2805728169448051
 40
0.3023256651517223
 40
0.3240780087614767
 40
0.3458297952826578
 40
0.367581016370841
 40
0.3893316989972849
 40
0.411081898023706
 40
0.4328316900194172
 40
0.4545811681313479
 40
0.4763304378110697
 40
0.4980796132070306
 40
0.5198288140384676
 40
0.541578145823752
 40
0.5633277074877036
 40
0.5850776202023501
 40
0.6068280005912533
 40
0.628578957591845
 40
0.6503305888365052
 40
0.6720829763594343
 40
0.6938361814307857
 40
0.7155902383123547
 40
0.7373451467308639
 40
0.7591008628844348
 40
0.7808572888476936
 40
0.8026142603385735
 40
0.8243715185051904
 40
0.8461286042778976
 40
0.8678850292865614
 40
0.8896401770418697
 40
0.9113932935682674
 40
0.933143485275131
 40
0.9548897281597254
 40
0.9766308930911878
 40
0.9983657919368965
 40
0.9999999999999999
 40
0.9999999999999999
 40
0.9999999999999999
 40
0.9999999999999999
 10
-2.747587699981639
 20
2.365535367844831
 30
0.0
 10
-2.772682596878029
 20
2.344434728286133
 30
0.0
 10
-2.825531461970804
 20
2.29999761192686
 30
0.0
 10
-2.902568252787593
 20
2.224564499227518
 30
0.0
 10
-2.979271133208751
 20
2.141217078197582
 30
0.0
 10
-3.052598621341248
 20
2.051919852289829
 30
0.0
 10
-3.12245079563697
 20
1.957091000611408
 30
0.0
 10
-3.188629205387512
 20
1.856917330666829
 30
0.0
 10
-3.250974059699534
 20
1.751665031840572
 30
0.0
 10
-3.309327983367095
 20
1.641595317741873
 30
0.0
 10
-3.363546161156763
 20
1.526985993975037
 30
0.0
 10
-3.413493974724698
 20
1.408124658543895
 30
0.0
 10
-3.459047890243759
 20
1.285309659688402
 30
0.0
 10
-3.500095542703743
 20
1.158848787066675
 30
0.0
 10
-3.53653599288895
 20
1.029058554910561
 30
0.0
 10
-3.568279899494847
 20
0.8962632494023786
 30
0.0
 10
-3.595249619653979
 20
0.7607942845596152
 30
0.0
 10
-3.617379330051286
 20
0.6229894795139964
 30
0.0
 10
-3.634615153708534
 20
0.4831922560881757
 30
0.0
 10
-3.646915266607982
 20
0.3417508204227868
 30
0.0
 10
-3.65424998229841
 20
0.1990173303532924
 30
0.0
 10
-3.656601812322595
 20
0.055347049750557
 30
0.0
 10
-3.65396550076202
 20
-0.0889025080944039
 30
0.0
 10
-3.646348031508005
 20
-0.2333724456737055
 30
0.0
 10
-3.633768607237356
 20
-0.3777033524048848
 30
0.0
 10
-3.61625860396276
 20
-0.5215361415619412
 30
0.0
 10
-3.593861500998691
 20
-0.6645129113999731
 30
0.0
 10
-3.566632771356436
 20
-0.8062778747621427
 30
0.0
 10
-3.534639732304369
 20
-0.9464782658533959
 30
0.0
 10
-3.497961366028618
 20
-1.084765212708251
 30
0.0
 10
-3.456688132776622
 20
-1.220794530995838
 30
0.0
 10
-3.41092174934412
 20
-1.354227556246401
 30
0.0
 10
-3.360774942685625
 20
-1.484731959353654
 30
0.0
 10
-3.306371180613714
 20
-1.611982543005609
 30
0.0
 10
-3.247844381867577
 20
-1.735662016613517
 30
0.0
 10
-3.18533860852746
 20
-1.855461749333769
 30
0.0
 10
-3.119007743008063
 20
-1.971082495516528
 30
0.0
 10
-3.049015156278306
 20
-2.082235109725025
 30
0.0
 10
-2.975533374889727
 20
-2.188641163977156
 30
0.0
 10
-2.898743890831438
 20
-2.290033600611816
 30
0.0
 10
-2.818836639566422
 20
-2.386156988002371
 30
0.0
 10
-2.736010034518209
 20
-2.476770280493754
 30
0.0
 10
-2.650469001921462
 20
-2.561639784667984
 30
0.0
 10
-2.56243020561952
 20
-2.640568783426141
 30
0.0
 10
-2.472101155457518
 20
-2.713289570421353
 30
0.0
 10
-2.379756254586615
 20
-2.779869431464815
 30
0.0
 10
-2.285450944479701
 20
-2.839199167174205
 30
0.0
 10
-2.219473626245241
 20
-2.877551909615673
 30
0.0
 10
-2.184654670661586
 20
-2.894124543426461
 30
0.0
 10
-2.182219771536614
 20
-2.895283472259563
 30
0.0
  0
SPLINE
  5
6E
330
1F
100
AcDbEntity
  8
0
  6
Continuous
 62
     7
370
    25
100
AcDbSpline
210
0.0
220
0.0
230
1.0
 70
     8
 71
     3
 72
    24
 73
    20
 74
     0
 42
0.00000001
 43
0.00000001
 40
0.0
 40
0.0
 40
0.0
 40
0.0
 40
0.0430921958615355
 40
0.1004470769519294
 40
0.1583062388715504
 40
0.217638982119424
 40
0.278649897181615
 40
0.340868789501267
 40
0.4036478788622669
 40
0.4665305298397935
 40
0.529497285604763
 40
0.5926616548631602
 40
0.6561377581619454
 40
0.7200485577961672
 40
0.784305054518411
 40
0.84823278894753
 40
0.9107741279307916
 40
0.9711295546652856
 40
1.0
 40
1.0
 40
1.0
 40
1.0
 10
2.954192242550041
 20
0.2177055655789611
 30
0.0
 10
2.961275427596286
 20
0.2189109213134616
 30
0.0
 10
2.977786195246446
 20
0.2217205822694
 30
0.0
 10
3.001646858613845
 20
0.2342474838369863
 30
0.0
 10
3.024882053462497
 20
0.2531162679052643
 30
0.0
 10
3.044623361259635
 20
0.2777970144898735
 30
0.0
 10
3.060383816596358
 20
0.3074434331859077
 30
0.0
 10
3.071534722539108
 20
0.341261505643199
 30
0.0
 10
3.077584603632565
 20
0.3779621155727371
 30
0.0
 10
3.078285453093211
 20
0.4161206461359787
 30
0.0
 10
3.073611323846975
 20
0.4543243620359068
 30
0.0
 10
3.063679873017853
 20
0.4912456807294315
 30
0.0
 10
3.048712144441823
 20
0.5256066863551004
 30
0.0
 10
3.029019813336375
 20
0.5561700306967197
 30
0.0
 10
3.005075121756951
 20
0.5816124299485524
 30
0.0
 10
2.977629940050477
 20
0.6007925839415305
 30
0.0
 10
2.947995170551046
 20
0.6120789494744137
 30
0.0
 10
2.922508061792631
 20
0.6161293091726423
 30
0.0
 10
2.907867499698685
 20
0.6135563774162722
 30
0.0
 10
2.903130313748013
 20
0.6127238645598598
 30
0.0
  0
SPLINE
  5
71
330
1F
100
AcDbEntity
  8
0
  6
Continuous
 62
     7
370
    25
100
AcDbSpline
210
0.0
220
0.0
230
1.0
 70
     8
 71
     3
 72
    12
 73
     8
 74
     0
 42
0.00000001
 43
0.00000001
 40
0.0
 40
0.0
 40
0.0
 40
0.0
 40
0.1110650285202791
 40
0.3273174679581959
 40
0.5439806022818762
 40
0.7653637527925018
 40
1.0
 40
1.0
 40
1.0
 40
1.0
 10
1.861284501789117
 20
1.386639483105381
 30
0.0
 10
1.866174892809595
 20
1.387136231420621
 30
0.0
 10
1.88058726389953
 20
1.388600188193724
 30
0.0
 10
1.903016980702858
 20
1.398723870404156
 30
0.0
 10
1.927148017907681
 20
1.415787033468588
 30
0.0
 10
1.948445319513806
 20
1.438900338447239
 30
0.0
 10
1.959101321714773
 20
1.458348947285478
 30
0.0
 10
1.964584168232226
 20
1.46835586500443
 30
0.0
  0
SPLINE
  5
72
330
1F
100
AcDbEntity
  8
0
  6
Continuous
 62
     7
370
    25
100
AcDbSpline
210
0.0
220
0.0
230
1.0
 70
     8
 71
     3
 72
    20
 73
    16
 74
     0
 42
0.00000001
 43
0.00000001
 40
0.0
 40
0.0
 40
0.0
 40
0.0
 40
0.0472433193542195
 40
0.1317482309182137
 40
0.216448360179042
 40
0.3012511304946788
 40
0.3862029779633648
 40
0.4714637696797792
 40
0.5572062492732914
 40
0.643549553950235
 40
0.7301681774590816
 40
0.8159533452250749
 40
0.8994477902517912
 40
0.979921019387063
 40
1.0
 40
1.0
 40
1.0
 40
1.0
 10
1.964584168232226
 20
1.46835586500443
 30
0.0
 10
1.967240410307759
 20
1.474312250609871
 30
0.0
 10
1.97464791678964
 20
1.490922922275419
 30
0.0
 10
1.982790473487041
 20
1.521016231750212
 30
0.0
 10
1.987305761898307
 20
1.558302825766258
 30
0.0
 10
1.986371961051318
 20
1.596630089484116
 30
0.0
 10
1.980104410385443
 20
1.634580986171504
 30
0.0
 10
1.968631523294162
 20
1.670865974547744
 30
0.0
 10
1.952207658479176
 20
1.704213370472789
 30
0.0
 10
1.93117681227993
 20
1.733387035902879
 30
0.0
 10
1.906089474545524
 20
1.75703268362236
 30
0.0
 10
1.877805572321171
 20
1.774108231552663
 30
0.0
 10
1.847848106914179
 20
1.782865763374472
 30
0.0
 10
1.824710359053864
 20
1.785146947596559
 30
0.0
 10
1.812634055247091
 20
1.782238551341947
 30
0.0
 10
1.810222572987086
 20
1.78165778208628
 30
0.0
  0
LWPOLYLINE
  5
77
330
1F
100
AcDbEntity
  8
0
  6
Continuous
 62
     7
370
    25
100
AcDbPolyline
 90
      120
 70
   128
 43
0.0
 10
-0.0161774251
 20
-1.9512558867
 10
0.0390015409
 20
-1.8295528497
 10
0.0894171955
 20
-1.7032503854
 10
0.1349290211
 20
-1.5727005217
 10
0.1754101682
 20
-1.4382671243
 10
0.2107478086
 20
-1.3003248832
 10
0.2408434498
 20
-1.1592582683
 10
0.2656132101
 20
-1.0154604574
 10
0.2849880515
 20
-0.8693322409
 10
0.2989139729
 20
-0.7212809043
 10
0.3073521603
 20
-0.5717190932
 10
0.310279095
 20
-0.4210636632
 10
0.307686619
 20
-0.2697345181
 10
0.2995819581
 20
-0.1181534393
 10
0.2859877014
 20
0.0332570896
 10
0.2669417385
 20
0.1840750602
 10
0.242497154
 20
0.3338801159
 10
0.2127220792
 20
0.482254723
 10
0.1776995027
 20
0.6287853349
 10
0.1375270386
 20
0.7730635445
 10
0.0923166549
 20
0.9146872226
 10
0.042194361
 20
1.0532616385
 10
-0.0127001434
 20
1.1884005606
 10
-0.0722138573
 20
1.3197273324
 10
-0.1361809054
 20
1.4468759226
 10
-0.2044230001
 20
1.5694919454
 10
-0.2767499383
 20
1.6872336478
 10
-0.352960132
 20
1.7997728626
 10
-0.4328411696
 20
1.9067959229
 10
-0.5161704085
 20
2.0080045362
 10
-0.6027155949
 20
2.1031166159
 10
-0.6922355121
 20
2.1918670676
 10
-0.7844806519
 20
2.2740085279
 10
-0.8791939105
 20
2.3493120538
 10
-0.9761113052
 20
2.4175677608
 10
-1.0749627098
 20
2.4785854081
 10
-1.1754726076
 20
2.5321949286
 10
-1.2773608597
 20
2.5782469028
 10
-1.380343485
 20
2.6166129757
 10
-1.4841334526
 20
2.6471862141
 10
-1.5884414813
 20
2.669881405
 10
-1.6929768458
 20
2.6846352928
 10
-1.7974481874
 20
2.6914067558
 10
-1.9015643256
 20
2.6901769206
 10
-2.0050350701
 20
2.680949215
 10
-2.1075720295
 20
2.6637493584
 10
-2.2088894147
 20
2.6386252897
 10
-2.3087048361
 20
2.6056470343
 10
-2.4067400902
 20
2.5649065086
 10
-2.5027219352
 20
2.5165172635
 10
-2.5963828524
 20
2.4606141688
 10
-2.6874617921
 20
2.3973530362
 10
-2.7757049009
 20
2.3269101859
 10
-2.8608662294
 20
2.2494819549
 10
-2.9427084178
 20
2.1652841494
 10
-3.0210033572
 20
2.0745514438
 10
-3.0955328256
 20
1.9775367265
 10
-3.1660890959
 20
1.8745103949
 10
-3.2324755152
 20
1.7657596018
 10
-3.2945070526
 20
1.6515874552
 10
-3.3520108152
 20
1.5323121734
 10
-3.4048265295
 20
1.4082661979
 10
-3.4528069888
 20
1.2797952672
 10
-3.4958184629
 20
1.1472574527
 10
-3.533741071
 20
1.0110221612
 10
-3.5664691162
 20
0.8714691048
 10
-3.5939113794
 20
0.7289872429
 10
-3.6159913742
 20
0.5839736981
 10
-3.6326475596
 20
0.436832649
 10
-3.6438335118
 20
0.2879742042
 10
-3.6495180537
 20
0.1378132589
 10
-3.6496853414
 20
-0.0132316615
 10
-3.6443349085
 20
-0.1647395676
 10
-3.6334816678
 20
-0.3162881798
 10
-3.6171558691
 20
-0.4674551049
 10
-3.5954030155
 20
-0.6178190136
 10
-3.5682837359
 20
-0.7669608146
 10
-3.5358736167
 20
-0.9144648231
 10
-3.4982629907
 20
-1.0599199188
 10
-3.4555566854
 20
-1.2029206925
 10
-3.4078737311
 20
-1.3430685752
 10
-3.3553470286
 20
-1.4799729496
 10
-3.2981229793
 20
-1.6132522388
 10
-3.2363610768
 20
-1.7425349694
 10
-3.1702334627
 20
-1.8674608074
 10
-3.0999244465
 20
-1.9876815618
 10
-3.025629992
 20
-2.1028621561
 10
-2.9475571713
 20
-2.2126815611
 10
-2.8659235871
 20
-2.3168336906
 10
-2.7809567671
 20
-2.4150282537
 10
-2.692893529
 20
-2.5069915648
 10
-2.6019793207
 20
-2.5924673055
 10
-2.5084675365
 20
-2.6712172397
 10
-2.4126188106
 20
-2.743021877
 10
-2.3147002904
 20
-2.8076810852
 10
-2.2149848926
 20
-2.8650146475
 10
-2.1137505417
 20
-2.9148627648
 10
-2.0112793961
 20
-2.9570865015
 10
-1.9078570613
 20
-2.9915681726
 10
-1.8037717938
 20
-3.0182116715
 10
-1.6993136979
 20
-3.0369427378
 10
-1.5947739172
 20
-3.0477091648
 10
-1.4904438226
 20
-3.0504809445
 10
-1.3866142009
 20
-3.0452503515
 10
-1.283574444
 20
-3.0320319643
 10
-1.1816117419
 20
-3.0108626251
 10
-1.0810102832
 20
-2.9818013364
 10
-0.9820504621
 20
-2.9449290974
 10
-0.8850080974
 20
-2.9003486776
 10
-0.7901536635
 20
-2.8481843306
 10
-0.6977515368
 20
-2.7885814478
 10
-0.6080592585
 20
-2.7217061532
 10
-0.5213268172
 20
-2.6477448401
 10
-0.4377959518
 20
-2.566903652
 10
-0.3576994776
 20
-2.4794079079
 10
-0.281260638
 20
-2.385501474
 10
-0.2086924817
 20
-2.2854460844
 10
-0.1401972691
 20
-2.1795206114
 10
-0.0759659088
 20
-2.0680202884
 10
-0.0161774251
 20
-1.9512558867
  0
LWPOLYLINE
  5
7A
330
1F
100
AcDbEntity
  8
0
  6
Continuous
 62
     7
370
    25
100
AcDbPolyline
 90
       45
 70
   128
 43
0.0
 10
0.0679164685
 20
-1.9557632491
 10
0.1234786217
 20
-1.8332150521
 10
0.174244385
 20
-1.7060354874
 10
0.220072265
 20
-1.5745790274
 10
0.2608345312
 20
-1.4392120648
 10
0.2964175718
 20
-1.3003118915
 10
0.3267222106
 20
-1.1582656473
 10
0.351663983
 20
-1.0134692405
 10
0.3711733719
 20
-0.8663262447
 10
0.3851960011
 20
-0.7172467738
 10
0.3936927871
 20
-0.566646339
 10
0.3966400477
 20
-0.4149446908
 10
0.3940295684
 20
-0.2625646488
 10
0.3858686251
 20
-0.1099309236
 10
0.3721799639
 20
0.0425310673
 10
0.3530017373
 20
0.1943963849
 10
0.3283873987
 20
0.3452417535
 10
0.2984055526
 20
0.4946467398
 10
0.2631397638
 20
0.6421949254
 10
0.2226883243
 20
0.787475067
 10
0.1771639796
 20
0.9300822428
 10
0.1266936141
 20
1.0696189811
 10
0.071417898
 20
1.2056963679
 10
0.0114908944
 20
1.3379351312
 10
-0.0529203694
 20
1.4659666978
 10
-0.1216363675
 20
1.5894342207
 10
-0.1944655761
 20
1.7079935738
 10
-0.2712050073
 20
1.821314311
 10
-0.3516407743
 20
1.929080587
 10
-0.4355486884
 20
2.0309920378
 10
-0.5226948831
 20
2.1267646181
 10
-0.6128364664
 20
2.2161313924
 10
-0.7057221974
 20
2.2988432795
 10
-0.801093187
 20
2.3746697465
 10
-0.8986836192
 20
2.4433994515
 10
-0.9982214918
 20
2.5048408325
 10
-1.0994293751
 20
2.5588226413
 10
-1.2020251844
 20
2.6051944209
 10
-1.3057229669
 20
2.6438269248
 10
-1.4102336982
 20
2.6746124774
 10
-1.5152660882
 20
2.6974652738
 10
-1.6205273927
 20
2.7123216192
 10
-1.7257242297
 20
2.7191401061
 10
-1.8305633966
 20
2.7179017304
 10
-1.9070519241
 20
2.7118738077
  0
LWPOLYLINE
  5
7F
330
1F
100
AcDbEntity
  8
0
  6
Continuous
 62
     7
370
    25
100
AcDbPolyline
 90
       65
 70
   128
 43
0.0
 10
0.1138561601
 20
-2.0049830149
 10
0.1700469851
 20
-1.8811753132
 10
0.2214730927
 20
-1.7527587551
 10
0.2679958471
 20
-1.6200795289
 10
0.3094898312
 20
-1.4834953145
 10
0.3458431846
 20
-1.3433743186
 10
0.3769579051
 20
-1.2000942828
 10
0.4027501128
 20
-1.0540414646
 10
0.4231502766
 20
-0.9056095966
 10
0.4381034013
 20
-0.755198825
 10
0.4475691757
 20
-0.6032146306
 10
0.451522082
 20
-0.4500667358
 10
0.4499514636
 20
-0.2961680003
 10
0.4428615549
 20
-0.141933308
 10
0.4302714688
 20
0.0122215518
 10
0.4122151461
 20
0.1658810047
 10
0.3887412634
 20
0.3186308121
 10
0.3599131021
 20
0.4700591875
 10
0.3258083778
 20
0.6197579068
 10
0.286519031
 20
0.7673234086
 10
0.2421509786
 20
0.9123578825
 10
0.1928238291
 20
1.0544703411
 10
0.1386705599
 20
1.1932776745
 10
0.0798371585
 20
1.3284056826
 10
0.0164822293
 20
1.4594900841
 10
-0.0512234338
 20
1.5861774987
 10
-0.1230973085
 20
1.7081263995
 10
-0.1989456355
 20
1.8250080339
 10
-0.278563941
 20
1.9365073096
 10
-0.3617375883
 20
2.0423236443
 10
-0.4482423558
 20
2.1421717758
 10
-0.537845042
 20
2.2357825313
 10
-0.630304094
 20
2.3229035526
 10
-0.7253702584
 20
2.403299977
 10
-0.8227872536
 20
2.4767550699
 10
-0.9222924608
 20
2.5430708093
 10
-1.0236176314
 20
2.6020684198
 10
-1.1264896106
 20
2.6535888541
 10
-1.2306310739
 20
2.6974932224
 10
-1.3357612743
 20
2.7336631661
 10
-1.4415967992
 20
2.7620011776
 10
-1.5478523349
 20
2.7824308626
 10
-1.6542414353
 20
2.7948971462
 10
-1.760477294
 20
2.7993664215
 10
-1.866273518
 20
2.7958266403
 10
-1.9713448994
 20
2.784287345
 10
-2.0754081844
 20
2.7647796436
 10
-2.1781828367
 20
2.7373561254
 10
-2.279391794
 20
2.7020907194
 10
-2.3787622148
 20
2.6590784949
 10
-2.4760262142
 20
2.6084354051
 10
-2.5709215855
 20
2.550297975
 10
-2.6631925075
 20
2.4848229328
 10
-2.7525902343
 20
2.4121867876
 10
-2.8388737653
 20
2.3325853536
 10
-2.9218104953
 20
2.2462332222
 10
-3.0011768417
 20
2.1533631834
 10
-3.0767588468
 20
2.0542255986
 10
-3.1483527549
 20
1.9490877251
 10
-3.2157655613
 20
1.8382329959
 10
-3.2788155333
 20
1.7219602559
 10
-3.3373326991
 20
1.6005829559
 10
-3.3911593068
 20
1.4744283075
 10
-3.4401502494
 20
1.3438364013
 10
-3.4521268992
 20
1.3090578523
  0
LWPOLYLINE
  5
80
330
1F
100
AcDbEntity
  8
0
  6
Continuous
 62
     7
370
    25
100
AcDbPolyline
 90
       37
 70
   128
 43
0.0
 10
-3.1365858116
 20
-1.941653816
 10
-3.1081435105
 20
-1.9908585977
 10
-3.0342575076
 20
-2.110314126
 10
-2.9564979837
 20
-2.2245430801
 10
-2.8750745647
 20
-2.3332375191
 10
-2.7902067539
 20
-2.4361044219
 10
-2.7021233399
 20
-2.5328664776
 10
-2.6110617799
 20
-2.6232628327
 10
-2.5172675598
 20
-2.7070497947
 10
-2.4209935323
 20
-2.7840014887
 10
-2.3224992351
 20
-2.8539104666
 10
-2.2220501914
 20
-2.9165882662
 10
-2.1199171941
 20
-2.971865919
 10
-2.0163755757
 20
-3.0195944065
 10
-1.9117044661
 20
-3.059645061
 10
-1.8061860401
 20
-3.091909913
 10
-1.7001047567
 20
-3.1163019822
 10
-1.5937465923
 20
-3.1327555119
 10
-1.4873982697
 20
-3.1412261463
 10
-1.3813464852
 20
-3.14169105
 10
-1.2758771356
 20
-3.1341489698
 10
-1.1712745477
 20
-3.1186202377
 10
-1.0678207116
 20
-3.0951467165
 10
-0.9657945204
 20
-3.0637916867
 10
-0.8654710189
 20
-3.0246396758
 10
-0.7671206613
 20
-2.9777962308
 10
-0.6710085829
 20
-2.9233876333
 10
-0.5773938848
 20
-2.8615605593
 10
-0.4865289357
 20
-2.7924816836
 10
-0.3986586915
 20
-2.7163372307
 10
-0.3140200349
 20
-2.6333324725
 10
-0.2328411365
 20
-2.5436911752
 10
-0.1553408405
 20
-2.4476549959
 10
-0.0817280739
 20
-2.3454828311
 10
-0.0122012837
 20
-2.237450119
 10
0.0530520982
 20
-2.1238480966
 10
0.1138561601
 20
-2.0049830149
  0
LWPOLYLINE
  5
87
330
1F
100
AcDbEntity
  8
0
  6
Continuous
 62
     7
370
    25
100
AcDbPolyline
 90
       17
 70
   128
 43
0.0
 10
2.9533314442
 20
0.2168933682
 10
2.9656142407
 20
0.2196359742
 10
2.9914510582
 20
0.2314682959
 10
3.0146795885
 20
0.2508224905
 10
3.0343488528
 20
0.2769061949
 10
3.0496535892
 20
0.3086515393
 10
3.05996722
 20
0.3447588656
 10
3.0648675038
 20
0.3837499355
 10
3.0641538226
 20
0.4240284501
 10
3.0578553944
 20
0.4639454022
 10
3.0462300777
 20
0.5018665871
 10
3.0297538143
 20
0.5362395072
 10
3.0091011444
 20
0.5656569309
 10
2.9851175908
 20
0.5889145055
 10
2.9587850428
 20
0.6050600632
 10
2.9311815581
 20
0.6134326029
 10
2.9063857585
 20
0.6140535443
  0
LWPOLYLINE
  5
88
330
1F
100
AcDbEntity
  8
0
  6
Continuous
 62
     7
370
    25
100
AcDbPolyline
 90
       13
 70
   128
 43
0.0
 10
1.9515227985
 20
1.4611169783
 10
1.9643980408
 20
1.4952182763
 10
1.9720442282
 20
1.5329611207
 10
1.9741483249
 20
1.572800315
 10
1.970624189
 20
1.6131048378
 10
1.961616099
 20
1.6522246173
 10
1.9474928472
 20
1.688558085
 10
1.928832641
 20
1.7206177447
 10
1.9063994317
 20
1.7470910699
 10
1.8811116374
 20
1.7668942397
 10
1.8540045433
 20
1.77921651
 10
1.8261879172
 20
1.7835534056
 10
1.8153180818
 20
1.7830229822
  0
LINE
  5
8A
330
1F
100
AcDbEntity
  8
0
  6
Continuous
 62
     7
370
    25
100
AcDbLine
 10
-0.3493759022
 20
2.9797298095
 30
0.0
 11
-1.9032078738
 21
2.8128616182
 31
0.0
  0
LINE
  5
8B
330
1F
100
AcDbEntity
  8
0
  6
Continuous
 62
     7
370
    25
100
AcDbLine
 10
-1.2625432458
 20
-3.1528360639
 30
0.0
 11
0.2912887257
 21
-2.9859678727
 31
0.0
  0
LINE
  5
8C
330
1F
100
AcDbEntity
  8
0
  6
Continuous
 62
     7
370
    25
100
AcDbLine
 10
-1.9070519241
 20
2.7118738077
 30
0.0
 11
-1.9651391006
 21
2.7056357444
 31
0.0
  0
LINE
  5
8D
330
1F
100
AcDbEntity
  8
0
  6
Continuous
 62
     7
370
    25
100
AcDbLine
 10
-1.3458299603
 20
-3.0612053483
 30
0.0
 11
-1.2877427838
 21
-3.0549672851
 31
0.0
  0
LINE
  5
8E
330
1F
100
AcDbEntity
  8
0
  6
Continuous
 62
     7
370
    25
100
AcDbLine
 10
2.0304131365
 20
0.1176816475
 30
0.0
 11
2.9490967337
 21
0.2163403655
 31
0.0
  0
LINE
  5
8F
330
1F
100
AcDbEntity
  8
0
  6
Continuous
 62
     7
370
    25
100
AcDbLine
 10
2.9063857585
 20
0.6140535443
 30
0.0
 11
1.9783862131
 21
0.5143943736
 31
0.0
  0
LINE
  5
90
330
1F
100
AcDbEntity
  8
0
  6
Continuous
 62
     7
370
    25
100
AcDbLine
 10
1.7301645159
 20
1.3715782512
 30
0.0
 11
1.858029057
 21
1.3853098034
 31
0.0
  0
LINE
  5
91
330
1F
100
AcDbEntity
  8
0
  6
Continuous
 62
     7
370
    25
100
AcDbLine
 10
1.8153180818
 20
1.7830229822
 30
0.0
 11
1.5456767027
 21
1.7540658169
 31
0.0
  0
LINE
  5
92
330
1F
100
AcDbEntity
  8
0
  6
Continuous
 62
     7
370
    25
100
AcDbLine
 10
2.9490967337
 20
0.2163403655
 30
0.0
 11
2.9533314442
 21
0.2168933682
 31
0.0
  0
LINE
  5
93
330
1F
100
AcDbEntity
  8
0
  6
Continuous
 62
     7
370
    25
100
AcDbLine
 10
2.9063857585
 20
0.6140535443
 30
0.0
 11
2.9036256753
 21
0.6137154827
 31
0.0
  0
LINE
  5
94
330
1F
100
AcDbEntity
  8
0
  6
Continuous
 62
     7
370
    25
100
AcDbLine
 10
1.858029057
 20
1.3853098034
 30
0.0
 11
1.8607891403
 21
1.3856478649
 31
0.0
  0
ARC
  5
95
330
1F
100
AcDbEntity
  8
0
  6
Continuous
 62
     7
370
    25
100
AcDbCircle
 10
-1.4212937704
 20
-1.6773043657
 30
0.0
 40
1.481422686709074
100
AcDbArc
 50
241.6708423166
 51
309.9709746321
  0
ARC
  5
96
330
1F
100
AcDbEntity
  8
0
  6
Continuous
 62
     7
370
    25
100
AcDbCircle
 10
-1.7451530934
 20
1.3408182765
 30
0.0
 40
1.478073901363421
100
AcDbArc
 50
62.7483411888
 51
129.5775879128
  0
ARC
  5
97
330
1F
100
AcDbEntity
  8
0
  6
Continuous
 62
     7
370
    25
100
AcDbCircle
 10
-0.1987586763
 20
1.5621070272
 30
0.0
 40
1.425601592797179
100
AcDbArc
 50
80.8060122223
 51
96.0647148355
  0
ARC
  5
98
330
1F
100
AcDbEntity
  8
0
  6
Continuous
 62
     7
370
    25
100
AcDbCircle
 10
0.137846908
 20
-1.5705502827
 30
0.0
 40
1.423710414870838
100
AcDbArc
 50
276.1871276869
 51
290.9381411575
  0
ARC
  5
99
330
1F
100
AcDbEntity
  8
0
  6
Continuous
 62
     7
370
    25
100
AcDbCircle
 10
-1.4990706456
 20
-1.6338932134
 30
0.0
 40
1.432946252504197
100
AcDbArc
 50
241.7770701756
 51
310.5689683768
  0
ARC
  5
9A
330
1F
100
AcDbEntity
  8
0
  6
Continuous
 62
     7
370
    25
100
AcDbCircle
 10
-1.811765952
 20
1.2780078544
 30
0.0
 40
1.43323855126191
100
AcDbArc
 50
61.6358357226
 51
130.4980461317
  0
ARC
  5
9B
330
1F
100
AcDbEntity
  8
0
  6
Continuous
 62
     7
370
    25
100
AcDbCircle
 10
-1.5903378822
 20
-1.296197719
 30
0.0
 40
1.784610372054327
100
AcDbArc
 50
279.7621255771
 51
338.3099639948
  0
ARC
  5
9C
330
1F
100
AcDbEntity
  8
0
  6
Continuous
 62
     7
370
    25
100
AcDbCircle
 10
-1.9192935255
 20
-1.0723423119
 30
0.0
 40
2.264972953125691
100
AcDbArc
 50
309.7945256185
 51
335.3854931345
  0
ARC
  5
9D
330
1F
100
AcDbEntity
  8
0
  6
Continuous
 62
     7
370
    25
100
AcDbCircle
 10
-3.194050343
 20
-0.3866107744
 30
0.0
 40
3.710660551654577
100
AcDbArc
 50
333.9575392226
 51
55.0497611605
  0
ARC
  5
9E
330
1F
100
AcDbEntity
  8
0
  6
Continuous
 62
     7
370
    25
100
AcDbCircle
 10
-1.3474467532
 20
-0.2028601704
 30
0.0
 40
3.458013664268126
100
AcDbArc
 50
331.5757918618
 51
66.5435796731
  0
ARC
  5
9F
330
1F
100
AcDbEntity
  8
0
  6
Continuous
 62
     7
370
    25
100
AcDbCircle
 10
-0.1554691263
 20
-1.0543692547
 30
0.0
 40
2.01261604556651
100
AcDbArc
 50
293.4864703753
 51
336.7492819197
  0
ARC
  5
A0
330
1F
100
AcDbEntity
  8
0
  6
Continuous
 62
     7
370
    25
100
AcDbCircle
 10
-2.0067432618
 20
-1.0309688165
 30
0.0
 40
2.221122773085781
100
AcDbArc
 50
310.4018231226
 51
335.2176759862
  0
ARC
  5
A1
330
1F
100
AcDbEntity
  8
0
  6
Continuous
 62
     7
370
    25
100
AcDbCircle
 10
-3.23073166
 20
-0.3881021319
 30
0.0
 40
3.602553804441081
100
AcDbArc
 50
334.0947447404
 51
54.346570365
  0
ARC
  5
A2
330
1F
100
AcDbEntity
  8
0
  6
Continuous
 62
     7
370
    25
100
AcDbCircle
 10
1.8374332307
 20
1.5060051689
 30
0.0
 40
0.1226025250188708
100
AcDbArc
 50
280.9820262417
 51
338.5229951094
  0
ENDSEC
  0
SECTION
  2
OBJECTS
  0
DICTIONARY
  5
C
330
0
100
AcDbDictionary
281
     1
  3
ACAD_GROUP
350
D
  3
ACAD_LAYOUT
350
1A
  3
ACAD_MLINESTYLE
350
17
  3
ACAD_PLOTSETTINGS
350
19
  3
ACAD_PLOTSTYLENAME
350
E
  3
ACAD_SCALELIST
350
47
  3
DWGPROPS
350
A3
  0
DICTIONARY
  5
D
102
{ACAD_REACTORS
330
C
102
}
330
C
100
AcDbDictionary
281
     1
  0
DICTIONARY
  5
1A
102
{ACAD_REACTORS
330
C
102
}
330
C
100
AcDbDictionary
281
     1
  3
Layout1
350
1E
  3
Layout2
350
26
  3
Model
350
22
  0
DICTIONARY
  5
17
102
{ACAD_REACTORS
330
C
102
}
330
C
100
AcDbDictionary
281
     1
  3
Standard
350
18
  0
DICTIONARY
  5
19
102
{ACAD_REACTORS
330
C
102
}
330
C
100
AcDbDictionary
281
     1
  0
ACDBDICTIONARYWDFLT
  5
E
102
{ACAD_REACTORS
330
C
102
}
330
C
100
AcDbDictionary
281
     1
  3
Normal
350
F
100
AcDbDictionaryWithDefault
340
F
  0
DICTIONARY
  5
47
102
{ACAD_REACTORS
330
C
102
}
330
C
100
AcDbDictionary
281
     1
  3
A0
350
48
  3
A1
350
49
  3
A2
350
4A
  3
A3
350
4B
  3
A4
350
4C
  3
A5
350
4D
  3
A6
350
4E
  3
A7
350
4F
  3
A8
350
50
  3
A9
350
51
  3
B0
350
52
  3
B1
350
53
  3
B2
350
54
  3
B3
350
55
  3
B4
350
56
  3
B5
350
57
  3
B6
350
58
  0
XRECORD
  5
A3
102
{ACAD_REACTORS
330
C
102
}
330
C
100
AcDbXrecord
280
     1
  1
DWGPROPS COOKIE
  2

  3

  4

  6

  7

  8
www14
  9

300
=
301
=
302
=
303
=
304
=
305
=
306
=
307
=
308
=
309
=
 40
0.0
 41
2460047.613840011
 42
2460047.613879016
  1

 90
        0
  0
LAYOUT
  5
1E
102
{ACAD_REACTORS
330
1A
102
}
330
1A
100
AcDbPlotSettings
  1

  2
none_device
  4

  6

 40
0.0
 41
0.0
 42
0.0
 43
0.0
 44
0.0
 45
0.0
 46
0.0
 47
0.0
 48
0.0
 49
0.0
140
0.0
141
0.0
142
1.0
143
1.0
 70
   688
 72
     1
 73
     0
 74
     5
  7

 75
    16
147
1.0
148
0.0
149
0.0
100
AcDbLayout
  1
Layout1
 70
     1
 71
     1
 10
0.0
 20
0.0
 11
420.0
 21
297.0
 12
0.0
 22
0.0
 32
0.0
 14
1.0000000000E+20
 24
1.0000000000E+20
 34
1.0000000000E+20
 15
-1.0000000000E+20
 25
-1.0000000000E+20
 35
-1.0000000000E+20
146
0.0
 13
0.0
 23
0.0
 33
0.0
 16
1.0
 26
0.0
 36
0.0
 17
0.0
 27
1.0
 37
0.0
 76
     0
330
1B
  0
LAYOUT
  5
26
102
{ACAD_REACTORS
330
1A
102
}
330
1A
100
AcDbPlotSettings
  1

  2
none_device
  4

  6

 40
0.0
 41
0.0
 42
0.0
 43
0.0
 44
0.0
 45
0.0
 46
0.0
 47
0.0
 48
0.0
 49
0.0
140
0.0
141
0.0
142
1.0
143
1.0
 70
   688
 72
     1
 73
     0
 74
     5
  7

 75
    16
147
1.0
148
0.0
149
0.0
100
AcDbLayout
  1
Layout2
 70
     1
 71
     2
 10
0.0
 20
0.0
 11
0.0
 21
0.0
 12
0.0
 22
0.0
 32
0.0
 14
0.0
 24
0.0
 34
0.0
 15
0.0
 25
0.0
 35
0.0
146
0.0
 13
0.0
 23
0.0
 33
0.0
 16
1.0
 26
0.0
 36
0.0
 17
0.0
 27
1.0
 37
0.0
 76
     0
330
23
  0
LAYOUT
  5
22
102
{ACAD_REACTORS
330
1A
102
}
330
1A
100
AcDbPlotSettings
  1

  2
none_device
  4
ANSI_A_(11.00_x_8.50_Inches)
  6

 40
6.35
 41
19.05
 42
6.35000508
 43
19.05000254
 44
279.4
 45
215.9
 46
143.3980179683
 47
91.8735636295
 48
0.0
 49
0.0
140
0.0
141
0.0
142
1.369086158
143
1.0
 70
  1696
 72
     0
 73
     0
 74
     0
  7

 75
     0
147
0.0179189148
148
-1300.4909072572
149
0.0
100
AcDbLayout
  1
Model
 70
     1
 71
     0
 10
0.0
 20
0.0
 11
420.0
 21
297.0
 12
0.0
 22
0.0
 32
0.0
 14
-3.6556250279
 24
-3.1587270524
 34
0.0
 15
3.0777339196
 25
2.98770862
 35
0.0
146
0.0
 13
0.0
 23
0.0
 33
0.0
 16
1.0
 26
0.0
 36
0.0
 17
0.0
 27
1.0
 37
0.0
 76
     0
330
1F
331
29
  0
MLINESTYLE
  5
18
102
{ACAD_REACTORS
330
17
102
}
330
17
100
AcDbMlineStyle
  2
Standard
 70
     0
  3

 62
   256
 51
90.0
 52
90.0
 71
     2
 49
0.5
 62
   256
  6
BYLAYER
 49
-0.5
 62
   256
  6
BYLAYER
  0
ACDBPLACEHOLDER
  5
F
102
{ACAD_REACTORS
330
E
102
}
330
E
  0
SCALE
  5
48
102
{ACAD_REACTORS
330
47
102
}
330
47
100
AcDbScale
 70
     0
300
1:1
140
1.0
141
1.0
290
     1
  0
SCALE
  5
49
102
{ACAD_REACTORS
330
47
102
}
330
47
100
AcDbScale
 70
     0
300
1:2
140
1.0
141
2.0
290
     0
  0
SCALE
  5
4A
102
{ACAD_REACTORS
330
47
102
}
330
47
100
AcDbScale
 70
     0
300
1:4
140
1.0
141
4.0
290
     0
  0
SCALE
  5
4B
102
{ACAD_REACTORS
330
47
102
}
330
47
100
AcDbScale
 70
     0
300
1:5
140
1.0
141
5.0
290
     0
  0
SCALE
  5
4C
102
{ACAD_REACTORS
330
47
102
}
330
47
100
AcDbScale
 70
     0
300
1:8
140
1.0
141
8.0
290
     0
  0
SCALE
  5
4D
102
{ACAD_REACTORS
330
47
102
}
330
47
100
AcDbScale
 70
     0
300
1:10
140
1.0
141
10.0
290
     0
  0
SCALE
  5
4E
102
{ACAD_REACTORS
330
47
102
}
330
47
100
AcDbScale
 70
     0
300
1:16
140
1.0
141
16.0
290
     0
  0
SCALE
  5
4F
102
{ACAD_REACTORS
330
47
102
}
330
47
100
AcDbScale
 70
     0
300
1:20
140
1.0
141
20.0
290
     0
  0
SCALE
  5
50
102
{ACAD_REACTORS
330
47
102
}
330
47
100
AcDbScale
 70
     0
300
1:30
140
1.0
141
30.0
290
     0
  0
SCALE
  5
51
102
{ACAD_REACTORS
330
47
102
}
330
47
100
AcDbScale
 70
     0
300
1:40
140
1.0
141
40.0
290
     0
  0
SCALE
  5
52
102
{ACAD_REACTORS
330
47
102
}
330
47
100
AcDbScale
 70
     0
300
1:50
140
1.0
141
50.0
290
     0
  0
SCALE
  5
53
102
{ACAD_REACTORS
330
47
102
}
330
47
100
AcDbScale
 70
     0
300
1:100
140
1.0
141
100.0
290
     0
  0
SCALE
  5
54
102
{ACAD_REACTORS
330
47
102
}
330
47
100
AcDbScale
 70
     0
300
2:1
140
2.0
141
1.0
290
     0
  0
SCALE
  5
55
102
{ACAD_REACTORS
330
47
102
}
330
47
100
AcDbScale
 70
     0
300
4:1
140
4.0
141
1.0
290
     0
  0
SCALE
  5
56
102
{ACAD_REACTORS
330
47
102
}
330
47
100
AcDbScale
 70
     0
300
8:1
140
8.0
141
1.0
290
     0
  0
SCALE
  5
57
102
{ACAD_REACTORS
330
47
102
}
330
47
100
AcDbScale
 70
     0
300
10:1
140
10.0
141
1.0
290
     0
  0
SCALE
  5
58
102
{ACAD_REACTORS
330
47
102
}
330
47
100
AcDbScale
 70
     0
300
100:1
140
100.0
141
1.0
290
     0
  0
ENDSEC
  0
EOF
