  0
SECTION
  2
HEADER
  9
$ACADVER
  1
AC1015
  9
$ACADMAINTVER
 70
     6
  9
$DWGCODEPAGE
  3
ANSI_936
  9
$INSBASE
 10
0.0
 20
0.0
 30
0.0
  9
$EXTMIN
 10
-9.5020891542
 20
-8.5255270511
 30
0.0
  9
$EXTMAX
 10
5.7479108389
 20
7.4744729489
 30
0.0
  9
$LIMMIN
 10
0.0
 20
0.0
  9
$LIMMAX
 10
420.0
 20
297.0
  9
$ORTHOMODE
 70
     0
  9
$REGENMODE
 70
     1
  9
$FILLMODE
 70
     1
  9
$QTEXTMODE
 70
     0
  9
$MIRRTEXT
 70
     1
  9
$LTSCALE
 40
1.0
  9
$ATTMODE
 70
     1
  9
$TEXTSIZE
 40
3.5
  9
$TRACEWID
 40
1.0
  9
$TEXTSTYLE
  7
Standard
  9
$CLAYER
  8
0
  9
$CELTYPE
  6
ByLayer
  9
$CECOLOR
 62
   256
  9
$CELTSCALE
 40
1.0
  9
$DISPSILH
 70
     0
  9
$DIMSCALE
 40
1.0
  9
$DIMASZ
 40
4.08
  9
$DIMEXO
 40
0.0
  9
$DIMDLI
 40
3.75
  9
$DIMRND
 40
0.0
  9
$DIMDLE
 40
0.0
  9
$DIMEXE
 40
2.0
  9
$DIMTP
 40
0.0
  9
$DIMTM
 40
0.0
  9
$DIMTXT
 40
3.5
  9
$DIMCEN
 40
2.5
  9
$DIMTSZ
 40
0.0
  9
$DIMTOL
 70
     0
  9
$DIMLIM
 70
     0
  9
$DIMTIH
 70
     1
  9
$DIMTOH
 70
     1
  9
$DIMSE1
 70
     0
  9
$DIMSE2
 70
     0
  9
$DIMTAD
 70
     1
  9
$DIMZIN
 70
     0
  9
$DIMBLK
  1

  9
$DIMASO
 70
     1
  9
$DIMSHO
 70
     1
  9
$DIMPOST
  1

  9
$DIMAPOST
  1

  9
$DIMALT
 70
     0
  9
$DIMALTD
 70
     3
  9
$DIMALTF
 40
0.0393700787
  9
$DIMLFAC
 40
1.0
  9
$DIMTOFL
 70
     1
  9
$DIMTVP
 40
0.0
  9
$DIMTIX
 70
     0
  9
$DIMSOXD
 70
     0
  9
$DIMSAH
 70
     0
  9
$DIMBLK1
  1

  9
$DIMBLK2
  1

  9
$DIMSTYLE
  2
ISO-25
  9
$DIMCLRD
 70
     0
  9
$DIMCLRE
 70
     0
  9
$DIMCLRT
 70
     0
  9
$DIMTFAC
 40
1.0
  9
$DIMGAP
 40
1.524
  9
$DIMJUST
 70
     0
  9
$DIMSD1
 70
     0
  9
$DIMSD2
 70
     0
  9
$DIMTOLJ
 70
     0
  9
$DIMTZIN
 70
     0
  9
$DIMALTZ
 70
     0
  9
$DIMALTTZ
 70
     0
  9
$DIMUPT
 70
     0
  9
$DIMDEC
 70
     2
  9
$DIMTDEC
 70
     2
  9
$DIMALTU
 70
     2
  9
$DIMALTTD
 70
     3
  9
$DIMTXSTY
  7
Standard
  9
$DIMAUNIT
 70
     0
  9
$DIMADEC
 70
     2
  9
$DIMALTRND
 40
0.0
  9
$DIMAZIN
 70
     0
  9
$DIMDSEP
 70
    44
  9
$DIMATFIT
 70
     3
  9
$DIMFRAC
 70
     0
  9
$DIMLDRBLK
  1

  9
$DIMLUNIT
 70
     2
  9
$DIMLWD
 70
    -2
  9
$DIMLWE
 70
    -2
  9
$DIMTMOVE
 70
     0
  9
$LUNITS
 70
     2
  9
$LUPREC
 70
     2
  9
$SKETCHINC
 40
1.0
  9
$FILLETRAD
 40
0.0
  9
$AUNITS
 70
     0
  9
$AUPREC
 70
     2
  9
$MENU
  1
.
  9
$ELEVATION
 40
0.0
  9
$PELEVATION
 40
0.0
  9
$THICKNESS
 40
0.0
  9
$LIMCHECK
 70
     0
  9
$CHAMFERA
 40
0.0
  9
$CHAMFERB
 40
0.0
  9
$CHAMFERC
 40
0.0
  9
$CHAMFERD
 40
0.0
  9
$SKPOLY
 70
     0
  9
$TDCREATE
 40
2460052.876195834
  9
$TDUCREATE
 40
2460052.5428625
  9
$TDUPDATE
 40
2460052.876226169
  9
$TDUUPDATE
 40
2460052.542892836
  9
$TDINDWG
 40
0.0000000116
  9
$TDUSRTIMER
 40
0.0000000116
  9
$USRTIMER
 70
     1
  9
$ANGBASE
 50
0.0
  9
$ANGDIR
 70
     0
  9
$PDMODE
 70
     0
  9
$PDSIZE
 40
-1.0
  9
$PLINEWID
 40
0.0
  9
$SPLFRAME
 70
     0
  9
$SPLINETYPE
 70
     6
  9
$SPLINESEGS
 70
     8
  9
$HANDSEED
  5
3C1
  9
$SURFTAB1
 70
     6
  9
$SURFTAB2
 70
     6
  9
$SURFTYPE
 70
     6
  9
$SURFU
 70
     6
  9
$SURFV
 70
     6
  9
$UCSBASE
  2

  9
$UCSNAME
  2

  9
$UCSORG
 10
0.0
 20
0.0
 30
0.0
  9
$UCSXDIR
 10
1.0
 20
0.0
 30
0.0
  9
$UCSYDIR
 10
0.0
 20
1.0
 30
0.0
  9
$UCSORTHOREF
  2

  9
$UCSORTHOVIEW
 70
     0
  9
$UCSORGTOP
 10
0.0
 20
0.0
 30
0.0
  9
$UCSORGBOTTOM
 10
0.0
 20
0.0
 30
0.0
  9
$UCSORGLEFT
 10
0.0
 20
0.0
 30
0.0
  9
$UCSORGRIGHT
 10
0.0
 20
0.0
 30
0.0
  9
$UCSORGFRONT
 10
0.0
 20
0.0
 30
0.0
  9
$UCSORGBACK
 10
0.0
 20
0.0
 30
0.0
  9
$PUCSBASE
  2

  9
$PUCSNAME
  2

  9
$PUCSORG
 10
0.0
 20
0.0
 30
0.0
  9
$PUCSXDIR
 10
1.0
 20
0.0
 30
0.0
  9
$PUCSYDIR
 10
0.0
 20
1.0
 30
0.0
  9
$PUCSORTHOREF
  2

  9
$PUCSORTHOVIEW
 70
     0
  9
$PUCSORGTOP
 10
0.0
 20
0.0
 30
0.0
  9
$PUCSORGBOTTOM
 10
0.0
 20
0.0
 30
0.0
  9
$PUCSORGLEFT
 10
0.0
 20
0.0
 30
0.0
  9
$PUCSORGRIGHT
 10
0.0
 20
0.0
 30
0.0
  9
$PUCSORGFRONT
 10
0.0
 20
0.0
 30
0.0
  9
$PUCSORGBACK
 10
0.0
 20
0.0
 30
0.0
  9
$USERI1
 70
     0
  9
$USERI2
 70
     0
  9
$USERI3
 70
     0
  9
$USERI4
 70
     0
  9
$USERI5
 70
     0
  9
$USERR1
 40
0.0
  9
$USERR2
 40
0.0
  9
$USERR3
 40
0.0
  9
$USERR4
 40
0.0
  9
$USERR5
 40
0.0
  9
$WORLDVIEW
 70
     1
  9
$SHADEDGE
 70
     3
  9
$SHADEDIF
 70
    70
  9
$TILEMODE
 70
     1
  9
$MAXACTVP
 70
    64
  9
$PINSBASE
 10
0.0
 20
0.0
 30
0.0
  9
$PLIMCHECK
 70
     0
  9
$PEXTMIN
 10
1.0000000000E+20
 20
1.0000000000E+20
 30
1.0000000000E+20
  9
$PEXTMAX
 10
-1.0000000000E+20
 20
-1.0000000000E+20
 30
-1.0000000000E+20
  9
$PLIMMIN
 10
0.0
 20
0.0
  9
$PLIMMAX
 10
420.0
 20
297.0
  9
$UNITMODE
 70
     0
  9
$VISRETAIN
 70
     1
  9
$PLINEGEN
 70
     0
  9
$PSLTSCALE
 70
     1
  9
$TREEDEPTH
 70
  3020
  9
$CMLSTYLE
  2
Standard
  9
$CMLJUST
 70
     0
  9
$CMLSCALE
 40
20.0
  9
$PROXYGRAPHICS
 70
     1
  9
$MEASUREMENT
 70
     1
  9
$CELWEIGHT
370
    -1
  9
$ENDCAPS
280
     0
  9
$JOINSTYLE
280
     0
  9
$LWDISPLAY
290
     1
  9
$INSUNITS
 70
     4
  9
$HYPERLINKBASE
  1

  9
$STYLESHEET
  1

  9
$XEDIT
290
     1
  9
$CEPSNTYPE
380
     0
  9
$PSTYLEMODE
290
     1
  9
$FINGERPRINTGUID
  2
{ea07a543-6741-4c8f-88ed-4aaf0b0c151e}
  9
$VERSIONGUID
  2
{FAEB1C32-E019-11D5-929B-00C0DF256EC4}
  9
$EXTNAMES
290
     1
  9
$PSVPSCALE
 40
0.0
  9
$OLESTARTUP
290
     0
  0
ENDSEC
  0
SECTION
  2
CLASSES
  0
CLASS
  1
ACDBDICTIONARYWDFLT
  2
AcDbDictionaryWithDefault
  3
ObjectDBX Classes
 90
        0
280
     0
281
     0
  0
CLASS
  1
VISUALSTYLE
  2
AcDbVisualStyle
  3
ObjectDBX Classes
 90
     4095
280
     0
281
     0
  0
CLASS
  1
MATERIAL
  2
AcDbMaterial
  3
ObjectDBX Classes
 90
     1153
280
     0
281
     0
  0
CLASS
  1
SCALE
  2
AcDbScale
  3
ObjectDBX Classes
 90
     1153
280
     0
281
     0
  0
CLASS
  1
TABLESTYLE
  2
AcDbTableStyle
  3
ObjectDBX Classes
 90
     4095
280
     0
281
     0
  0
CLASS
  1
MLEADERSTYLE
  2
AcDbMLeaderStyle
  3
ACDB_MLEADERSTYLE_CLASS
 90
     4095
280
     0
281
     0
  0
CLASS
  1
SUN
  2
AcDbSun
  3
SCENEOE
 90
     1153
280
     0
281
     0
  0
CLASS
  1
ACDBPLACEHOLDER
  2
AcDbPlaceHolder
  3
ObjectDBX Classes
 90
        0
280
     0
281
     0
  0
CLASS
  1
LAYOUT
  2
AcDbLayout
  3
ObjectDBX Classes
 90
        0
280
     0
281
     0
  0
ENDSEC
  0
SECTION
  2
TABLES
  0
TABLE
  2
VPORT
  5
8
330
0
100
AcDbSymbolTable
 70
     1
  0
VPORT
  5
29
330
8
100
AcDbSymbolTableRecord
100
AcDbViewportTableRecord
  2
*Active
 70
     0
 10
0.0
 20
0.0
 11
1.0
 21
1.0
 12
-1.8770891577
 22
-0.5255270511
 13
0.0
 23
0.0
 14
10.0
 24
10.0
 15
10.0
 25
10.0
 16
0.0
 26
0.0
 36
1.0
 17
0.0
 27
0.0
 37
0.0
 40
16.32
 41
0.9531249996
 42
50.0
 43
0.0
 44
0.0
 50
0.0
 51
0.0
 71
     0
 72
   100
 73
     1
 74
     3
 75
     0
 76
     0
 77
     0
 78
     0
281
     0
 65
     1
110
0.0
120
0.0
130
0.0
111
1.0
121
0.0
131
0.0
112
0.0
122
1.0
132
0.0
 79
     0
146
0.0
  0
ENDTAB
  0
TABLE
  2
LTYPE
  5
5
330
0
100
AcDbSymbolTable
 70
     6
  0
LTYPE
  5
14
330
5
100
AcDbSymbolTableRecord
100
AcDbLinetypeTableRecord
  2
ByBlock
 70
     0
  3

 72
    65
 73
     0
 40
0.0
  0
LTYPE
  5
15
330
5
100
AcDbSymbolTableRecord
100
AcDbLinetypeTableRecord
  2
ByLayer
 70
     0
  3

 72
    65
 73
     0
 40
0.0
  0
LTYPE
  5
16
330
5
100
AcDbSymbolTableRecord
100
AcDbLinetypeTableRecord
  2
Continuous
 70
     0
  3
Solid line
 72
    65
 73
     0
 40
0.0
  0
LTYPE
  5
5E
330
5
100
AcDbSymbolTableRecord
100
AcDbLinetypeTableRecord
  2
HIDDEN
 70
     0
  3
Hidden __ __ __ __ __ __ __ __ __ __ __ __ __ __
 72
    65
 73
     2
 40
1.905
 49
1.27
 74
     0
 49
-0.635
 74
     0
  0
LTYPE
  5
5F
330
5
100
AcDbSymbolTableRecord
100
AcDbLinetypeTableRecord
  2
PHANTOM
 70
     0
  3
Phantom ______  __  __  ______  __  __  ______
 72
    65
 73
     6
 40
12.7
 49
6.35
 74
     0
 49
-1.27
 74
     0
 49
1.27
 74
     0
 49
-1.27
 74
     0
 49
1.27
 74
     0
 49
-1.27
 74
     0
  0
LTYPE
  5
60
330
5
100
AcDbSymbolTableRecord
100
AcDbLinetypeTableRecord
  2
CENTER
 70
     0
  3
Center ____ _ ____ _ ____ _ ____ _ ____ _ ____
 72
    65
 73
     4
 40
10.16
 49
6.35
 74
     0
 49
-1.27
 74
     0
 49
1.27
 74
     0
 49
-1.27
 74
     0
  0
LTYPE
  5
61
330
5
100
AcDbSymbolTableRecord
100
AcDbLinetypeTableRecord
  2
CENTERX2
 70
     0
  3
Center (2x) ________  __  ________  __  _____
 72
    65
 73
     4
 40
20.32
 49
12.7
 74
     0
 49
-2.54
 74
     0
 49
2.54
 74
     0
 49
-2.54
 74
     0
  0
LTYPE
  5
62
330
5
100
AcDbSymbolTableRecord
100
AcDbLinetypeTableRecord
  2
DOT2
 70
     0
  3
Dot (.5x) ........................................
 72
    65
 73
     2
 40
0.635
 49
0.0
 74
     0
 49
-0.635
 74
     0
  0
ENDTAB
  0
TABLE
  2
LAYER
  5
2
330
0
100
AcDbSymbolTable
 70
     1
  0
LAYER
  5
10
330
2
100
AcDbSymbolTableRecord
100
AcDbLayerTableRecord
  2
0
 70
     0
 62
     7
  6
Continuous
370
    -3
390
F
  0
ENDTAB
  0
TABLE
  2
STYLE
  5
3
330
0
100
AcDbSymbolTable
 70
     1
  0
STYLE
  5
11
330
3
100
AcDbSymbolTableRecord
100
AcDbTextStyleTableRecord
  2
Standard
 70
     0
 40
0.0
 41
1.0
 50
0.0
 71
     0
 42
3.5
  3
txt
  4

  0
ENDTAB
  0
TABLE
  2
VIEW
  5
6
330
0
100
AcDbSymbolTable
 70
     0
  0
ENDTAB
  0
TABLE
  2
UCS
  5
7
330
0
100
AcDbSymbolTable
 70
     0
  0
ENDTAB
  0
TABLE
  2
APPID
  5
9
330
0
100
AcDbSymbolTable
 70
     1
  0
APPID
  5
12
330
9
100
AcDbSymbolTableRecord
100
AcDbRegAppTableRecord
  2
ACAD
 70
     0
  0
ENDTAB
  0
TABLE
  2
DIMSTYLE
  5
A
330
0
100
AcDbSymbolTable
 70
     1
100
AcDbDimStyleTable
  0
DIMSTYLE
105
27
330
A
100
AcDbSymbolTableRecord
100
AcDbDimStyleTableRecord
  2
ISO-25
 70
     0
 41
2.5
 42
0.625
 43
3.75
 44
1.25
 73
     0
 74
     0
 77
     1
 78
     8
140
2.5
141
2.5
143
0.0393700787
147
0.625
171
     3
172
     1
178
     0
271
     2
272
     2
274
     3
278
    44
283
     0
284
     8
340
11
  0
ENDTAB
  0
TABLE
  2
BLOCK_RECORD
  5
1
330
0
100
AcDbSymbolTable
 70
     1
  0
BLOCK_RECORD
  5
1F
330
1
100
AcDbSymbolTableRecord
100
AcDbBlockTableRecord
  2
*Model_Space
340
22
  0
BLOCK_RECORD
  5
1B
330
1
100
AcDbSymbolTableRecord
100
AcDbBlockTableRecord
  2
*Paper_Space
340
1E
  0
BLOCK_RECORD
  5
23
330
1
100
AcDbSymbolTableRecord
100
AcDbBlockTableRecord
  2
*Paper_Space0
340
26
  0
ENDTAB
  0
ENDSEC
  0
SECTION
  2
BLOCKS
  0
BLOCK
  5
20
330
1F
100
AcDbEntity
  8
0
100
AcDbBlockBegin
  2
*Model_Space
 70
     0
 10
0.0
 20
0.0
 30
0.0
  3
*Model_Space
  1

  0
ENDBLK
  5
21
330
1F
100
AcDbEntity
  8
0
100
AcDbBlockEnd
  0
BLOCK
  5
1C
330
1B
100
AcDbEntity
 67
     1
  8
0
100
AcDbBlockBegin
  2
*Paper_Space
 70
     0
 10
0.0
 20
0.0
 30
0.0
  3
*Paper_Space
  1

  0
ENDBLK
  5
1D
330
1B
100
AcDbEntity
 67
     1
  8
0
100
AcDbBlockEnd
  0
BLOCK
  5
24
330
23
100
AcDbEntity
  8
0
100
AcDbBlockBegin
  2
*Paper_Space0
 70
     0
 10
0.0
 20
0.0
 30
0.0
  3
*Paper_Space0
  1

  0
ENDBLK
  5
25
330
23
100
AcDbEntity
  8
0
100
AcDbBlockEnd
  0
ENDSEC
  0
SECTION
  2
ENTITIES
  0
SPLINE
  5
6A
330
1F
100
AcDbEntity
  8
0
  6
Continuous
 62
     7
370
    25
100
AcDbSpline
210
0.0
220
0.0
230
1.0
 70
     8
 71
     3
 72
    11
 73
     7
 74
     0
 42
0.00000001
 43
0.00000001
 40
0.0
 40
0.0
 40
0.0
 40
0.0
 40
0.2810021047663704
 40
0.5609343504439779
 40
0.7809116194448052
 40
0.9999999999999999
 40
0.9999999999999999
 40
0.9999999999999999
 40
0.9999999999999999
 10
4.697910842421
 20
-2.775527049854
 30
0.0
 10
4.701726952767764
 20
-2.746036696341005
 30
0.0
 10
4.709344644387418
 20
-2.687168267914362
 30
0.0
 10
4.763120805017924
 20
-2.621398915048728
 30
0.0
 10
4.829041744786144
 20
-2.582465035844324
 30
0.0
 10
4.874985482976698
 20
-2.577836589954407
 30
0.0
 10
4.897910845520999
 20
-2.575527052154
 30
0.0
  0
SPLINE
  5
6B
330
1F
100
AcDbEntity
  8
0
  6
Continuous
 62
     7
370
    25
100
AcDbSpline
210
0.0
220
0.0
230
1.0
 70
     8
 71
     3
 72
    11
 73
     7
 74
     0
 42
0.00000001
 43
0.00000001
 40
0.0
 40
0.0
 40
0.0
 40
0.0
 40
0.2810020884873681
 40
0.5609343169168525
 40
0.7809116062440395
 40
1.0
 40
1.0
 40
1.0
 40
1.0
 10
4.897910845520999
 20
-2.975527047554
 30
0.0
 10
4.868420494794347
 20
-2.971710934733983
 30
0.0
 10
4.809552072037992
 20
-2.964093238191242
 30
0.0
 10
4.743782705011518
 20
-2.910317099810672
 30
0.0
 10
4.704848821088651
 20
-2.844396156601958
 30
0.0
 10
4.700220378524627
 20
-2.798452414153622
 30
0.0
 10
4.697910842421
 20
-2.775527049854
 30
0.0
  0
SPLINE
  5
6E
330
1F
100
AcDbEntity
  8
0
  6
Continuous
 62
     7
370
    25
100
AcDbSpline
210
0.0
220
0.0
230
1.0
 70
     8
 71
     3
 72
    11
 73
     7
 74
     0
 42
0.00000001
 43
0.00000001
 40
0.0
 40
0.0
 40
0.0
 40
0.0
 40
0.2815546046510156
 40
0.562067608303431
 40
0.7817996485044315
 40
1.0
 40
1.0
 40
1.0
 40
1.0
 10
5.297910851720999
 20
-4.675527049154001
 30
0.0
 10
5.299831613688849
 20
-4.660755078385994
 30
0.0
 10
5.303666031835649
 20
-4.631265785217468
 30
0.0
 10
5.330630215663719
 20
-4.598376826154312
 30
0.0
 10
5.36358830407854
 20
-4.578980302692616
 30
0.0
 10
5.386496706304063
 20
-4.576675452026428
 30
0.0
 10
5.397910845821
 20
-4.575527057354001
 30
0.0
  0
SPLINE
  5
6F
330
1F
100
AcDbEntity
  8
0
  6
Continuous
 62
     7
370
    25
100
AcDbSpline
210
0.0
220
0.0
230
1.0
 70
     8
 71
     3
 72
    11
 73
     7
 74
     0
 42
0.00000001
 43
0.00000001
 40
0.0
 40
0.0
 40
0.0
 40
0.0
 40
0.2815545934601563
 40
0.5620675580592216
 40
0.7817996277780819
 40
1.0
 40
1.0
 40
1.0
 40
1.0
 10
5.397910845820999
 20
-4.775527055054
 30
0.0
 10
5.383138876652999
 20
-4.773606287022683
 30
0.0
 10
5.353649588142566
 20
-4.76977185696174
 30
0.0
 10
5.320760628774622
 20
-4.74280768109275
 30
0.0
 10
5.301364092091682
 20
-4.709849596699157
 30
0.0
 10
5.299059244726181
 20
-4.686941190450248
 30
0.0
 10
5.297910851721
 20
-4.675527049154002
 30
0.0
  0
SPLINE
  5
73
330
1F
100
AcDbEntity
  8
0
  6
Continuous
 62
     7
370
    25
100
AcDbSpline
210
0.0
220
0.0
230
1.0
 70
     8
 71
     3
 72
    11
 73
     7
 74
     0
 42
0.00000001
 43
0.00000001
 40
0.0
 40
0.0
 40
0.0
 40
0.0
 40
0.2810020977509068
 40
0.5609343272378438
 40
0.7809115868722403
 40
1.0
 40
1.0
 40
1.0
 40
1.0
 10
5.097910847071
 20
-6.575527047204001
 30
0.0
 10
5.10172695658548
 20
-6.546036693941813
 30
0.0
 10
5.109344646418774
 20
-6.487168266981549
 30
0.0
 10
5.163120801419615
 20
-6.421398912302229
 30
0.0
 10
5.229041743453398
 20
-6.382465031922949
 30
0.0
 10
5.274985485203719
 20
-6.377836588062851
 30
0.0
 10
5.297910851720999
 20
-6.375527051054
 30
0.0
  0
SPLINE
  5
77
330
1F
100
AcDbEntity
  8
0
  6
Continuous
 62
     7
370
    25
100
AcDbSpline
210
0.0
220
0.0
230
1.0
 70
     8
 71
     3
 72
    11
 73
     7
 74
     0
 42
0.00000001
 43
0.00000001
 40
0.0
 40
0.0
 40
0.0
 40
0.0
 40
0.2810021254502387
 40
0.56093436731345
 40
0.7809116396240243
 40
1.0
 40
1.0
 40
1.0
 40
1.0
 10
3.697910845371
 20
-6.575527044904
 30
0.0
 10
3.727401200947829
 20
-6.579343156429853
 30
0.0
 10
3.786269630931529
 20
-6.586960850071573
 30
0.0
 10
3.852038987082116
 20
-6.640737009533158
 30
0.0
 10
3.890972865594785
 20
-6.706657948519015
 30
0.0
 10
3.895601308656045
 20
-6.752601685462635
 30
0.0
 10
3.897910844921
 20
-6.775527046154
 30
0.0
  0
SPLINE
  5
78
330
1F
100
AcDbEntity
  8
0
  6
Continuous
 62
     7
370
    25
100
AcDbSpline
210
0.0
220
0.0
230
1.0
 70
     8
 71
     3
 72
    11
 73
     7
 74
     0
 42
0.00000001
 43
0.00000001
 40
0.0
 40
0.0
 40
0.0
 40
0.0
 40
0.2810020851972772
 40
0.5609343419066127
 40
0.780911624714987
 40
1.0
 40
1.0
 40
1.0
 40
1.0
 10
3.497910845821
 20
-6.775527046154
 30
0.0
 10
3.501726962491942
 20
-6.74603669776675
 30
0.0
 10
3.509344667150438
 20
-6.687168276368439
 30
0.0
 10
3.563120801562505
 20
-6.621398906422987
 30
0.0
 10
3.629041747280815
 20
-6.582465031656173
 30
0.0
 10
3.674985484372342
 20
-6.577836583656624
 30
0.0
 10
3.697910845371001
 20
-6.575527044904001
 30
0.0
  0
SPLINE
  5
7C
330
1F
100
AcDbEntity
  8
0
  6
Continuous
 62
     7
370
    25
100
AcDbSpline
210
0.0
220
0.0
230
1.0
 70
     8
 71
     3
 72
    11
 73
     7
 74
     0
 42
0.00000001
 43
0.00000001
 40
0.0
 40
0.0
 40
0.0
 40
0.0
 40
0.2810020954534039
 40
0.5609343457205807
 40
0.7809116008245361
 40
1.0
 40
1.0
 40
1.0
 40
1.0
 10
0.4479108473209999
 20
-5.375527048154001
 30
0.0
 10
0.4921463738605898
 20
-5.381251218890666
 30
0.0
 10
0.5804490112379136
 20
-5.392677767015808
 30
0.0
 10
0.6791030517718671
 20
-5.473341984801093
 30
0.0
 10
0.7375038700204021
 20
-5.572223397943677
 30
0.0
 10
0.7444465379933306
 20
-5.641139005333145
 30
0.0
 10
0.7479108445210001
 20
-5.675527051754
 30
0.0
  0
SPLINE
  5
7E
330
1F
100
AcDbEntity
  8
0
  6
Continuous
 62
     7
370
    25
100
AcDbSpline
210
0.0
220
0.0
230
1.0
 70
     8
 71
     3
 72
    11
 73
     7
 74
     0
 42
0.00000001
 43
0.00000001
 40
0.0
 40
0.0
 40
0.0
 40
0.0
 40
0.281002111651839
 40
0.560934353742151
 40
0.7809116222196811
 40
0.9999999999999999
 40
0.9999999999999999
 40
0.9999999999999999
 40
0.9999999999999999
 10
-6.202089155175001
 20
-5.600685901458
 30
0.0
 10
-6.197792997808032
 20
-5.567485831344623
 30
0.0
 10
-6.189217039990313
 20
-5.501212094952506
 30
0.0
 10
-6.128676160188352
 20
-5.427169326915215
 30
0.0
 10
-6.054462744257163
 20
-5.383337791442624
 30
0.0
 10
-6.002739549045313
 20
-5.378127112901554
 30
0.0
 10
-5.976930308379
 20
-5.375527048154001
 30
0.0
  0
SPLINE
  5
7F
330
1F
100
AcDbEntity
  8
0
  6
Continuous
 62
     7
370
    25
100
AcDbSpline
210
0.0
220
0.0
230
1.0
 70
     8
 71
     3
 72
    11
 73
     7
 74
     0
 42
0.00000001
 43
0.00000001
 40
0.0
 40
0.0
 40
0.0
 40
0.0
 40
0.2810122853077765
 40
0.5609655334214537
 40
0.7809196738303853
 40
1.0
 40
1.0
 40
1.0
 40
1.0
 10
-5.988887081579001
 20
-5.825527053562001
 30
0.0
 10
-6.020704046305904
 20
-5.819825124534367
 30
0.0
 10
-6.084218068727846
 20
-5.808442755058901
 30
0.0
 10
-6.153774960494637
 20
-5.747953160462387
 30
0.0
 10
-6.194806330598752
 20
-5.67559872997849
 30
0.0
 10
-6.199664770248265
 20
-5.625623689040657
 30
0.0
 10
-6.202089155175001
 20
-5.600685901458
 30
0.0
  0
SPLINE
  5
81
330
1F
100
AcDbEntity
  8
0
  6
Continuous
 62
     7
370
    25
100
AcDbSpline
210
0.0
220
0.0
230
1.0
 70
     8
 71
     3
 72
    11
 73
     7
 74
     0
 42
0.00000001
 43
0.00000001
 40
0.0
 40
0.0
 40
0.0
 40
0.0
 40
0.2804536627823546
 40
0.5605214444375675
 40
0.7808883514913606
 40
1.0
 40
1.0
 40
1.0
 40
1.0
 10
-2.352089151394
 20
-5.860738701553999
 30
0.0
 10
-2.355143214144972
 20
-5.883561279745264
 30
0.0
 10
-2.361247137508261
 20
-5.929175034141063
 30
0.0
 10
-2.404184850266792
 20
-5.979334563734099
 30
0.0
 10
-2.456404347997061
 20
-6.007809991278668
 30
0.0
 10
-2.492205348002651
 20
-6.009623088817979
 30
0.0
 10
-2.510054719787
 20
-6.010527048262
 30
0.0
  0
SPLINE
  5
83
330
1F
100
AcDbEntity
  8
0
  6
Continuous
 62
     7
370
    25
100
AcDbSpline
210
0.0
220
0.0
230
1.0
 70
     8
 71
     3
 72
    11
 73
     7
 74
     0
 42
0.00000001
 43
0.00000001
 40
0.0
 40
0.0
 40
0.0
 40
0.0
 40
0.2804637374018462
 40
0.5605548313942589
 40
0.7808975983477765
 40
1.0
 40
1.0
 40
1.0
 40
1.0
 10
-2.202089152779
 20
-5.675527051785
 30
0.0
 10
-2.224163590977895
 20
-5.678380031442154
 30
0.0
 10
-2.268283137758999
 20
-5.684082200091484
 30
0.0
 10
-2.317606727350871
 20
-5.724400919213795
 30
0.0
 10
-2.346891131627352
 20
-5.773842675801703
 30
0.0
 10
-2.350359741604723
 20
-5.808331376585726
 30
0.0
 10
-2.352089151394
 20
-5.825527053570001
 30
0.0
  0
SPLINE
  5
85
330
1F
100
AcDbEntity
  8
0
  6
Continuous
 62
     7
370
    25
100
AcDbSpline
210
0.0
220
0.0
230
1.0
 70
     8
 71
     3
 72
    11
 73
     7
 74
     0
 42
0.00000001
 43
0.00000001
 40
0.0
 40
0.0
 40
0.0
 40
0.0
 40
0.2804637605658467
 40
0.5605547758331728
 40
0.7808976085286911
 40
0.9999999999999999
 40
0.9999999999999999
 40
0.9999999999999999
 40
0.9999999999999999
 10
-1.602089158316
 20
-5.825527053554
 30
0.0
 10
-1.604942136957207
 20
-5.803452613153262
 30
0.0
 10
-1.610644302539854
 20
-5.759333069988352
 30
0.0
 10
-1.650963021452025
 20
-5.710009479993706
 30
0.0
 10
-1.700404776476281
 20
-5.680725076288498
 30
0.0
 10
-1.73489348104825
 20
-5.677256462950719
 30
0.0
 10
-1.752089156948
 20
-5.675527051785
 30
0.0
  0
SPLINE
  5
87
330
1F
100
AcDbEntity
  8
0
  6
Continuous
 62
     7
370
    25
100
AcDbSpline
210
0.0
220
0.0
230
1.0
 70
     8
 71
     3
 72
    11
 73
     7
 74
     0
 42
0.00000001
 43
0.00000001
 40
0.0
 40
0.0
 40
0.0
 40
0.0
 40
0.2804637632518511
 40
0.5605548490071475
 40
0.780897634070585
 40
1.0
 40
1.0
 40
1.0
 40
1.0
 10
-1.752089156979
 20
-7.175527055529
 30
0.0
 10
-1.730014718899888
 20
-7.172674070185014
 30
0.0
 10
-1.685895175038377
 20
-7.166971890515973
 30
0.0
 10
-1.636571585306058
 20
-7.126653175985084
 30
0.0
 10
-1.607287179448663
 20
-7.077211424745655
 30
0.0
 10
-1.603818568417856
 20
-7.04272272709807
 30
0.0
 10
-1.602089158316
 20
-7.025527053792001
 30
0.0
  0
SPLINE
  5
89
330
1F
100
AcDbEntity
  8
0
  6
Continuous
 62
     7
370
    25
100
AcDbSpline
210
0.0
220
0.0
230
1.0
 70
     8
 71
     3
 72
    11
 73
     7
 74
     0
 42
0.00000001
 43
0.00000001
 40
0.0
 40
0.0
 40
0.0
 40
0.0
 40
0.2804637144975113
 40
0.5605546914442467
 40
0.7808975906748523
 40
0.9999999999999999
 40
0.9999999999999999
 40
0.9999999999999999
 40
0.9999999999999999
 10
-2.352089151628
 20
-7.025527053854001
 30
0.0
 10
-2.349236172285629
 20
-7.047601489421356
 30
0.0
 10
-2.343534005223393
 20
-7.091721023530909
 30
0.0
 10
-2.303215289697312
 20
-7.141044609053568
 30
0.0
 10
-2.253773537390675
 20
-7.170329018290772
 30
0.0
 10
-2.219284828870379
 20
-7.173797640253943
 30
0.0
 10
-2.202089152903
 20
-7.175527055529
 30
0.0
  0
SPLINE
  5
8B
330
1F
100
AcDbEntity
  8
0
  6
Continuous
 62
     7
370
    25
100
AcDbSpline
210
0.0
220
0.0
230
1.0
 70
     8
 71
     3
 72
    11
 73
     7
 74
     0
 42
0.00000001
 43
0.00000001
 40
0.0
 40
0.0
 40
0.0
 40
0.0
 40
0.2804536948773295
 40
0.5605215191857825
 40
0.7808883612392631
 40
1.0
 40
1.0
 40
1.0
 40
1.0
 10
-2.510054719804
 20
-6.840527044581
 30
0.0
 10
-2.487102158569185
 20
-6.842364835525991
 30
0.0
 10
-2.44122861606453
 20
-6.846037888836565
 30
0.0
 10
-2.388859709663005
 20
-6.886251363460249
 30
0.0
 10
-2.357651403210182
 20
-6.936885023257132
 30
0.0
 10
-2.353939701800478
 20
-6.9725392223885
 30
0.0
 10
-2.352089151628
 20
-6.990315405617999
 30
0.0
  0
SPLINE
  5
8D
330
1F
100
AcDbEntity
  8
0
  6
Continuous
 62
     7
370
    25
100
AcDbSpline
210
0.0
220
0.0
230
1.0
 70
     8
 71
     3
 72
    11
 73
     7
 74
     0
 42
0.00000001
 43
0.00000001
 40
0.0
 40
0.0
 40
0.0
 40
0.0
 40
0.2810123307522936
 40
0.5609655450264145
 40
0.7809196905592207
 40
1.0
 40
1.0
 40
1.0
 40
1.0
 10
-6.202089154179
 20
-7.250368205954
 30
0.0
 10
-6.198084869115629
 20
-7.218293335533939
 30
0.0
 10
-6.190091390868598
 20
-7.154264482712168
 30
0.0
 10
-6.133380872761982
 20
-7.081593515931931
 30
0.0
 10
-6.0633074619485
 20
-7.036777744253568
 30
0.0
 10
-6.013660936586579
 20
-7.029272304148265
 30
0.0
 10
-5.988887081105
 20
-7.025527053355
 30
0.0
  0
SPLINE
  5
91
330
1F
100
AcDbEntity
  8
0
  6
Continuous
 62
     7
370
    25
100
AcDbSpline
210
0.0
220
0.0
230
1.0
 70
     8
 71
     3
 72
    10
 73
     6
 74
     0
 42
0.00000001
 43
0.00000001
 40
0.0
 40
0.0
 40
0.0
 40
0.0
 40
0.2803755817436273
 40
0.5599394486199966
 40
1.0
 40
1.0
 40
1.0
 40
1.0
 10
-9.385422487198
 20
-4.870027041379
 30
0.0
 10
-9.405343903541073
 20
-4.969181120978475
 30
0.0
 10
-9.445129061768833
 20
-5.167202219371131
 30
0.0
 10
-9.490698683963384
 20
-5.525461964614657
 30
0.0
 10
-9.497766862578436
 20
-5.785074502621958
 30
0.0
 10
-9.502089154179
 20
-5.943831256454001
 30
0.0
  0
SPLINE
  5
92
330
1F
100
AcDbEntity
  8
0
  6
Continuous
 62
     7
370
    25
100
AcDbSpline
210
0.0
220
0.0
230
1.0
 70
     8
 71
     3
 72
    12
 73
     8
 74
     0
 42
0.00000001
 43
0.00000001
 40
0.0
 40
0.0
 40
0.0
 40
0.0
 40
0.1867215609073321
 40
0.3733113019878184
 40
0.560056498871245
 40
0.7800138547521552
 40
1.0
 40
1.0
 40
1.0
 40
1.0
 10
-8.802089150778
 20
0.4989942051490002
 30
0.0
 10
-8.806018646914826
 20
0.1622061259202278
 30
0.0
 10
-8.813874865081955
 20
-0.511132270245314
 30
0.0
 10
-8.877215334695144
 20
-1.519700312933526
 30
0.0
 10
-8.985245264718534
 20
-2.584420098185911
 30
0.0
 10
-9.145759494373861
 20
-3.703949088297927
 30
0.0
 10
-9.305531337831667
 20
-4.481317433672705
 30
0.0
 10
-9.385422487198
 20
-4.870027041379
 30
0.0
  0
SPLINE
  5
96
330
1F
100
AcDbEntity
  8
0
  6
Continuous
 62
     7
370
    25
100
AcDbSpline
210
0.0
220
0.0
230
1.0
 70
     8
 71
     3
 72
    11
 73
     7
 74
     0
 42
0.00000001
 43
0.00000001
 40
0.0
 40
0.0
 40
0.0
 40
0.0
 40
0.2810021117470619
 40
0.5609343600014847
 40
0.7809116167033102
 40
1.0
 40
1.0
 40
1.0
 40
1.0
 10
-1.502089149498
 20
5.966129163827
 30
0.0
 10
-1.531579504480465
 20
5.969945275591507
 30
0.0
 10
-1.590447935381068
 20
5.977562969981808
 30
0.0
 10
-1.656217303661623
 20
6.031339120579188
 30
0.0
 10
-1.695151171296739
 20
6.097260072652419
 30
0.0
 10
-1.699779615460668
 20
6.143203811892229
 30
0.0
 10
-1.702089152479
 20
6.166129175746
 30
0.0
  0
SPLINE
  5
98
330
1F
100
AcDbEntity
  8
0
  6
Continuous
 62
     7
370
    25
100
AcDbSpline
210
0.0
220
0.0
230
1.0
 70
     8
 71
     3
 72
    11
 73
     7
 74
     0
 42
0.00000001
 43
0.00000001
 40
0.0
 40
0.0
 40
0.0
 40
0.0
 40
0.2810021124823736
 40
0.5609343628910683
 40
0.780911635586442
 40
1.0
 40
1.0
 40
1.0
 40
1.0
 10
2.197910841218
 20
5.766129166424001
 30
0.0
 10
2.194094730902894
 20
5.795619519936918
 30
0.0
 10
2.186477039386571
 20
5.854487948053229
 30
0.0
 10
2.132700897440996
 20
5.920257318600116
 30
0.0
 10
2.066779951208936
 20
5.959191191133108
 30
0.0
 10
2.020836213824108
 20
5.963819629756958
 30
0.0
 10
1.997910852721001
 20
5.966129163827
 30
0.0
  0
SPLINE
  5
9A
330
1F
100
AcDbEntity
  8
0
  6
Continuous
 62
     7
370
    25
100
AcDbSpline
210
0.0
220
0.0
230
1.0
 70
     8
 71
     3
 72
    11
 73
     7
 74
     0
 42
0.00000001
 43
0.00000001
 40
0.0
 40
0.0
 40
0.0
 40
0.0
 40
0.281002096659291
 40
0.560934358110321
 40
0.7809116279260901
 40
1.0
 40
1.0
 40
1.0
 40
1.0
 10
2.397910843695001
 20
5.314472946022
 30
0.0
 10
2.368420492622307
 20
5.318289058277886
 30
0.0
 10
2.309552066564025
 20
5.325906754032401
 30
0.0
 10
2.243782705467901
 20
5.379682904847945
 30
0.0
 10
2.204848836855025
 20
5.445603849556514
 30
0.0
 10
2.200220382962518
 20
5.491547584105826
 30
0.0
 10
2.197910841218
 20
5.514472944346
 30
0.0
  0
SPLINE
  5
9C
330
1F
100
AcDbEntity
  8
0
  6
Continuous
 62
     7
370
    25
100
AcDbSpline
210
0.0
220
0.0
230
1.0
 70
     8
 71
     3
 72
    11
 73
     7
 74
     0
 42
0.00000001
 43
0.00000001
 40
0.0
 40
0.0
 40
0.0
 40
0.0
 40
0.2810020727598709
 40
0.56093434759945
 40
0.7809116180252357
 40
1.0
 40
1.0
 40
1.0
 40
1.0
 10
3.597910846459
 20
5.514472944984
 30
0.0
 10
3.594094734889576
 20
5.484982595810947
 30
0.0
 10
3.586477040000218
 20
5.426114169640999
 30
0.0
 10
3.532700888590671
 20
5.360344810343669
 30
0.0
 10
3.466779945033308
 20
5.321410930349302
 30
0.0
 10
3.420836207057943
 20
5.316782484034447
 30
0.0
 10
3.397910844621
 20
5.314472946022001
 30
0.0
  0
SPLINE
  5
A0
330
1F
100
AcDbEntity
  8
0
  6
Continuous
 62
     7
370
    25
100
AcDbSpline
210
0.0
220
0.0
230
1.0
 70
     8
 71
     3
 72
    11
 73
     7
 74
     0
 42
0.00000001
 43
0.00000001
 40
0.0
 40
0.0
 40
0.0
 40
0.0
 40
0.2810020999536365
 40
0.5609343646906912
 40
0.7809116316321019
 40
1.0
 40
1.0
 40
1.0
 40
1.0
 10
4.997910839620999
 20
6.224472945345999
 30
0.0
 10
4.968420488556797
 20
6.228289057559567
 30
0.0
 10
4.909552062515022
 20
6.235906753229666
 30
0.0
 10
4.843782701431663
 20
6.28968290277436
 30
0.0
 10
4.804848833858403
 20
6.355603848197405
 30
0.0
 10
4.800220388768616
 20
6.401547582815643
 30
0.0
 10
4.797910851421
 20
6.424472943046001
 30
0.0
  0
SPLINE
  5
A2
330
1F
100
AcDbEntity
  8
0
  6
Continuous
 62
     7
370
    25
100
AcDbSpline
210
0.0
220
0.0
230
1.0
 70
     8
 71
     3
 72
    11
 73
     7
 74
     0
 42
0.00000001
 43
0.00000001
 40
0.0
 40
0.0
 40
0.0
 40
0.0
 40
0.2810020776674687
 40
0.5609343373087311
 40
0.7809116224221412
 40
1.0
 40
1.0
 40
1.0
 40
1.0
 10
4.797910851420999
 20
5.424472954546
 30
0.0
 10
4.80172696251092
 20
5.453963303100007
 30
0.0
 10
4.809344656170301
 20
5.512831725926118
 30
0.0
 10
4.863120795805446
 20
5.578601092933647
 30
0.0
 10
4.92904174122731
 20
5.617534966757995
 30
0.0
 10
4.974985478521409
 20
5.622163413914206
 30
0.0
 10
4.997910839620999
 20
5.624472952246
 30
0.0
  0
SPLINE
  5
A4
330
1F
100
AcDbEntity
  8
0
  6
Continuous
 62
     7
370
    25
100
AcDbSpline
210
0.0
220
0.0
230
1.0
 70
     8
 71
     3
 72
    11
 73
     7
 74
     0
 42
0.00000001
 43
0.00000001
 40
0.0
 40
0.0
 40
0.0
 40
0.0
 40
0.2800934746816073
 40
0.5598488482331022
 40
0.7815343924777437
 40
1.0
 40
1.0
 40
1.0
 40
1.0
 10
4.947910846412
 20
5.230808632913
 30
0.0
 10
4.924696874688007
 20
5.239533996444637
 30
0.0
 10
4.878296952849889
 20
5.256974191112347
 30
0.0
 10
4.83061356855547
 20
5.308973793765474
 30
0.0
 10
4.80271582831491
 20
5.366605323823649
 30
0.0
 10
4.799504679973725
 20
5.405278048064609
 30
0.0
 10
4.797910851420999
 20
5.424472954546
 30
0.0
  0
SPLINE
  5
A5
330
1F
100
AcDbEntity
  8
0
  6
Continuous
 62
     7
370
    25
100
AcDbSpline
210
0.0
220
0.0
230
1.0
 70
     8
 71
     3
 72
     9
 73
     5
 74
     0
 42
0.00000001
 43
0.00000001
 40
0.0
 40
0.0
 40
0.0
 40
0.0
 40
0.5694378034861405
 40
1.0
 40
1.0
 40
1.0
 40
1.0
 10
-6.706076585053
 20
5.232311998275
 30
0.0
 10
-6.708362644666325
 20
5.206757352536934
 30
0.0
 10
-6.71237723519637
 20
5.161880378121786
 30
0.0
 10
-6.733169257579677
 20
5.122086848626521
 30
0.0
 10
-6.742121516407001
 20
5.10495325916
 30
0.0
  0
SPLINE
  5
A7
330
1F
100
AcDbEntity
  8
0
  6
Continuous
 62
     7
370
    25
100
AcDbSpline
210
0.0
220
0.0
230
1.0
 70
     8
 71
     3
 72
    10
 73
     6
 74
     0
 42
0.00000001
 43
0.00000001
 40
0.0
 40
0.0
 40
0.0
 40
0.0
 40
0.2823289922355699
 40
0.5616159674271903
 40
1.0
 40
1.0
 40
1.0
 40
1.0
 10
-6.492210127567001
 20
4.458547545227999
 30
0.0
 10
-6.471667822724555
 20
4.485129525457157
 30
0.0
 10
-6.430804550710152
 20
4.538007072408028
 30
0.0
 10
-6.380535982568244
 20
4.647572187693521
 30
0.0
 10
-6.372290841915449
 20
4.733106738050438
 30
0.0
 10
-6.367254358667001
 20
4.785354886163
 30
0.0
  0
SPLINE
  5
A8
330
1F
100
AcDbEntity
  8
0
  6
Continuous
 62
     7
370
    25
100
AcDbSpline
210
0.0
220
0.0
230
1.0
 70
     8
 71
     3
 72
    11
 73
     7
 74
     0
 42
0.00000001
 43
0.00000001
 40
0.0
 40
0.0
 40
0.0
 40
0.0
 40
0.2814787198682561
 40
0.5586107408645531
 40
0.7776072543165113
 40
1.0
 40
1.0
 40
1.0
 40
1.0
 10
-6.996839086301
 20
4.09088926376
 30
0.0
 10
-6.957342279475291
 20
4.095792760433422
 30
0.0
 10
-6.878958590175368
 20
4.105524032164546
 30
0.0
 10
-6.785266762795903
 20
4.166490533447189
 30
0.0
 10
-6.717243144179675
 20
4.242222317278403
 30
0.0
 10
-6.693838920874527
 20
4.299783642640235
 30
0.0
 10
-6.682046768316
 20
4.32878575569
 30
0.0
  0
SPLINE
  5
A9
330
1F
100
AcDbEntity
  8
0
  6
Continuous
 62
     7
370
    25
100
AcDbSpline
210
0.0
220
0.0
230
1.0
 70
     8
 71
     3
 72
     9
 73
     5
 74
     0
 42
0.00000001
 43
0.00000001
 40
0.0
 40
0.0
 40
0.0
 40
0.0
 40
0.5568970682977594
 40
1.0
 40
1.0
 40
1.0
 40
1.0
 10
-6.682046768316
 20
4.32878575569
 30
0.0
 10
-6.642591938121484
 20
4.346882989427447
 30
0.0
 10
-6.571744321137049
 20
4.379379539988872
 30
0.0
 10
-6.516631001204818
 20
4.434239109254484
 30
0.0
 10
-6.492210127567001
 20
4.458547545228
 30
0.0
  0
SPLINE
  5
AA
330
1F
100
AcDbEntity
  8
0
  6
Continuous
 62
     7
370
    25
100
AcDbSpline
210
0.0
220
0.0
230
1.0
 70
     8
 71
     3
 72
    11
 73
     7
 74
     0
 42
0.00000001
 43
0.00000001
 40
0.0
 40
0.0
 40
0.0
 40
0.0
 40
0.2774613734435527
 40
0.5517788810881238
 40
0.7711415910694491
 40
0.9999999999999999
 40
0.9999999999999999
 40
0.9999999999999999
 40
0.9999999999999999
 10
-6.742121516407
 20
5.104953259159999
 30
0.0
 10
-6.706240747549896
 20
5.088707429134175
 30
0.0
 10
-6.634885768487983
 20
5.056399847712138
 30
0.0
 10
-6.562325673833221
 20
4.971979212714269
 30
0.0
 10
-6.518954900277148
 20
4.878499342249501
 30
0.0
 10
-6.513976181363275
 20
4.815247733791094
 30
0.0
 10
-6.511434084079001
 20
4.782951927406
 30
0.0
  0
SPLINE
  5
AB
330
1F
100
AcDbEntity
  8
0
  6
Continuous
 62
     7
370
    25
100
AcDbSpline
210
0.0
220
0.0
230
1.0
 70
     8
 71
     3
 72
     9
 73
     5
 74
     0
 42
0.00000001
 43
0.00000001
 40
0.0
 40
0.0
 40
0.0
 40
0.0
 40
0.5613801053009241
 40
1.0
 40
1.0
 40
1.0
 40
1.0
 10
-6.367254358667001
 20
4.785354886163
 30
0.0
 10
-6.372641275451821
 20
4.843524872582337
 30
0.0
 10
-6.382237121000946
 20
4.947144480527216
 30
0.0
 10
-6.436966005098244
 20
5.035124534832845
 30
0.0
 10
-6.460971182478001
 20
5.073714336987999
 30
0.0
  0
SPLINE
  5
AC
330
1F
100
AcDbEntity
  8
0
  6
Continuous
 62
     7
370
    25
100
AcDbSpline
210
0.0
220
0.0
230
1.0
 70
     8
 71
     3
 72
     9
 73
     5
 74
     0
 42
0.00000001
 43
0.00000001
 40
0.0
 40
0.0
 40
0.0
 40
0.0
 40
0.5553204423158826
 40
1.0
 40
1.0
 40
1.0
 40
1.0
 10
-6.460971182478001
 20
5.073714336987999
 30
0.0
 10
-6.478425486451709
 20
5.095439067600562
 30
0.0
 10
-6.509856535344697
 20
5.134560138890435
 30
0.0
 10
-6.549205363779308
 20
5.16562999609636
 30
0.0
 10
-6.566702983403
 20
5.179446126456
 30
0.0
  0
SPLINE
  5
AD
330
1F
100
AcDbEntity
  8
0
  6
Continuous
 62
     7
370
    25
100
AcDbSpline
210
0.0
220
0.0
230
1.0
 70
     8
 71
     3
 72
     9
 73
     5
 74
     0
 42
0.00000001
 43
0.00000001
 40
0.0
 40
0.0
 40
0.0
 40
0.0
 40
0.5600984365981247
 40
1.0
 40
1.0
 40
1.0
 40
1.0
 10
-6.566702983403
 20
5.179446126456
 30
0.0
 10
-6.565302064882433
 20
5.189723067941905
 30
0.0
 10
-6.562800864327266
 20
5.208071523881762
 30
0.0
 10
-6.562173135870518
 20
5.226575204730814
 30
0.0
 10
-6.561896997141002
 20
5.234715002865001
 30
0.0
  0
SPLINE
  5
AE
330
1F
100
AcDbEntity
  8
0
  6
Continuous
 62
     7
370
    25
100
AcDbSpline
210
0.0
220
0.0
230
1.0
 70
     8
 71
     3
 72
    10
 73
     6
 74
     0
 42
0.00000001
 43
0.00000001
 40
0.0
 40
0.0
 40
0.0
 40
0.0
 40
0.2799715483850041
 40
0.5577416397780152
 40
1.0
 40
1.0
 40
1.0
 40
1.0
 10
-6.561896997141001
 20
5.234715002865
 30
0.0
 10
-6.563787680103619
 20
5.263307599609226
 30
0.0
 10
-6.567554179313821
 20
5.320267965352198
 30
0.0
 10
-6.601188484969835
 20
5.418595307576816
 30
0.0
 10
-6.648302344606603
 20
5.475876205675906
 30
0.0
 10
-6.677240782053
 20
5.511059476571
 30
0.0
  0
SPLINE
  5
AF
330
1F
100
AcDbEntity
  8
0
  6
Continuous
 62
     7
370
    25
100
AcDbSpline
210
0.0
220
0.0
230
1.0
 70
     8
 71
     3
 72
    10
 73
     6
 74
     0
 42
0.00000001
 43
0.00000001
 40
0.0
 40
0.0
 40
0.0
 40
0.0
 40
0.2800728715493164
 40
0.5587011070062213
 40
1.0
 40
1.0
 40
1.0
 40
1.0
 10
-6.677240782053
 20
5.511059476571
 30
0.0
 10
-6.698588814901318
 20
5.529724001301354
 30
0.0
 10
-6.741174765903211
 20
5.566956777795945
 30
0.0
 10
-6.833449694139814
 20
5.612255984791331
 30
0.0
 10
-6.906440519046733
 20
5.619537142317487
 30
0.0
 10
-6.951182228252
 20
5.624000325644
 30
0.0
  0
SPLINE
  5
B0
330
1F
100
AcDbEntity
  8
0
  6
Continuous
 62
     7
370
    25
100
AcDbSpline
210
0.0
220
0.0
230
1.0
 70
     8
 71
     3
 72
     9
 73
     5
 74
     0
 42
0.00000001
 43
0.00000001
 40
0.0
 40
0.0
 40
0.0
 40
0.0
 40
0.5579390164957582
 40
1.0
 40
1.0
 40
1.0
 40
1.0
 10
-6.951182228252
 20
5.624000325644
 30
0.0
 10
-7.005172014164837
 20
5.618096777418518
 30
0.0
 10
-7.101938478449648
 20
5.607515785498366
 30
0.0
 10
-7.179029667547078
 20
5.548959827029
 30
0.0
 10
-7.213108674419001
 20
5.523074522438
 30
0.0
  0
SPLINE
  5
B1
330
1F
100
AcDbEntity
  8
0
  6
Continuous
 62
     7
370
    25
100
AcDbSpline
210
0.0
220
0.0
230
1.0
 70
     8
 71
     3
 72
     9
 73
     5
 74
     0
 42
0.00000001
 43
0.00000001
 40
0.0
 40
0.0
 40
0.0
 40
0.0
 40
0.5608705499678509
 40
1.0
 40
1.0
 40
1.0
 40
1.0
 10
-7.213108674419
 20
5.523074522437999
 30
0.0
 10
-7.242379918293535
 20
5.49157200639344
 30
0.0
 10
-7.294568866128671
 20
5.43540482834074
 30
0.0
 10
-7.318113357060724
 20
5.362742886927893
 30
0.0
 10
-7.328452436415001
 20
5.330834888557001
 30
0.0
  0
SPLINE
  5
B2
330
1F
100
AcDbEntity
  8
0
  6
Continuous
 62
     7
370
    25
100
AcDbSpline
210
0.0
220
0.0
230
1.0
 70
     8
 71
     3
 72
    11
 73
     7
 74
     0
 42
0.00000001
 43
0.00000001
 40
0.0
 40
0.0
 40
0.0
 40
0.0
 40
0.2779094875907145
 40
0.5531747409101965
 40
0.7729185235994516
 40
1.0
 40
1.0
 40
1.0
 40
1.0
 10
-7.328452436415001
 20
5.330834888557001
 30
0.0
 10
-7.354030201467249
 20
5.319449441404091
 30
0.0
 10
-7.404942365994271
 20
5.296786876575668
 30
0.0
 10
-7.456045155483873
 20
5.236270168827606
 30
0.0
 10
-7.486506334161864
 20
5.169968395661391
 30
0.0
 10
-7.49005343267907
 20
5.125267688138037
 30
0.0
 10
-7.491856106883001
 20
5.102550300402999
 30
0.0
  0
SPLINE
  5
B3
330
1F
100
AcDbEntity
  8
0
  6
Continuous
 62
     7
370
    25
100
AcDbSpline
210
0.0
220
0.0
230
1.0
 70
     8
 71
     3
 72
    11
 73
     7
 74
     0
 42
0.00000001
 43
0.00000001
 40
0.0
 40
0.0
 40
0.0
 40
0.0
 40
0.2833162653301211
 40
0.5580485543465401
 40
0.7754339450987991
 40
1.0
 40
1.0
 40
1.0
 40
1.0
 10
-7.491856106883001
 20
5.102550300403
 30
0.0
 10
-7.487174599721616
 20
5.066824119793877
 30
0.0
 10
-7.477953426696017
 20
4.996454197975184
 30
0.0
 10
-7.413695973319816
 20
4.918393903161771
 30
0.0
 10
-7.335378405648999
 20
4.870873786882188
 30
0.0
 10
-7.279798193833034
 20
4.865156067459115
 30
0.0
 10
-7.25155656453
 20
4.862250758049
 30
0.0
  0
SPLINE
  5
B4
330
1F
100
AcDbEntity
  8
0
  6
Continuous
 62
     7
370
    25
100
AcDbSpline
210
0.0
220
0.0
230
1.0
 70
     8
 71
     3
 72
     9
 73
     5
 74
     0
 42
0.00000001
 43
0.00000001
 40
0.0
 40
0.0
 40
0.0
 40
0.0
 40
0.5576171515632679
 40
1.0
 40
1.0
 40
1.0
 40
1.0
 10
-7.333258445597001
 20
4.398472659638999
 30
0.0
 10
-7.324061763086626
 20
4.352138830888251
 30
0.0
 10
-7.307568937346612
 20
4.269046285006452
 30
0.0
 10
-7.250409850977852
 20
4.207172163071226
 30
0.0
 10
-7.225123651536
 20
4.179800112764999
 30
0.0
  0
SPLINE
  5
B8
330
1F
100
AcDbEntity
  8
0
  6
Continuous
 62
     7
370
    25
100
AcDbSpline
210
0.0
220
0.0
230
1.0
 70
     8
 71
     3
 72
     9
 73
     5
 74
     0
 42
0.00000001
 43
0.00000001
 40
0.0
 40
0.0
 40
0.0
 40
0.0
 40
0.548890107451394
 40
0.9999999999999999
 40
0.9999999999999999
 40
0.9999999999999999
 40
0.9999999999999999
 10
-7.090555852818
 20
4.922325597804
 30
0.0
 10
-7.065026205947586
 20
4.950773952312807
 30
0.0
 10
-7.018514806809872
 20
5.002602823197181
 30
0.0
 10
-7.011857289501583
 20
5.071479365135903
 30
0.0
 10
-7.008854017584001
 20
5.102550254569
 30
0.0
  0
SPLINE
  5
B9
330
1F
100
AcDbEntity
  8
0
  6
Continuous
 62
     7
370
    25
100
AcDbSpline
210
0.0
220
0.0
230
1.0
 70
     8
 71
     3
 72
    11
 73
     7
 74
     0
 42
0.00000001
 43
0.00000001
 40
0.0
 40
0.0
 40
0.0
 40
0.0
 40
0.2866903813033772
 40
0.5648220019283524
 40
0.7821308953877534
 40
1.0
 40
1.0
 40
1.0
 40
1.0
 10
-7.008854017584
 20
5.102550254569
 30
0.0
 10
-7.011768220200346
 20
5.130666870588279
 30
0.0
 10
-7.017509625783278
 20
5.186060718387635
 30
0.0
 10
-7.058424056870019
 20
5.252868929262221
 30
0.0
 10
-7.109228127377979
 20
5.301645789851642
 30
0.0
 10
-7.148027210048641
 20
5.319495480703115
 30
0.0
 10
-7.167451724704001
 20
5.328431815216
 30
0.0
  0
SPLINE
  5
BA
330
1F
100
AcDbEntity
  8
0
  6
Continuous
 62
     7
370
    25
100
AcDbSpline
210
0.0
220
0.0
230
1.0
 70
     8
 71
     3
 72
    11
 73
     7
 74
     0
 42
0.00000001
 43
0.00000001
 40
0.0
 40
0.0
 40
0.0
 40
0.0
 40
0.2767850094423308
 40
0.5528327249641113
 40
0.7727386481818432
 40
0.9999999999999999
 40
0.9999999999999999
 40
0.9999999999999999
 40
0.9999999999999999
 10
-7.167451724704001
 20
5.328431815216
 30
0.0
 10
-7.154652323186738
 20
5.350897523692209
 30
0.0
 10
-7.129087614921096
 20
5.395769096976386
 30
0.0
 10
-7.071323125040037
 20
5.440689433161436
 30
0.0
 10
-7.009093497657763
 20
5.4678449896663
 30
0.0
 10
-6.967509919446207
 20
5.471005362046705
 30
0.0
 10
-6.946376127406001
 20
5.472611540628002
 30
0.0
  0
SPLINE
  5
BB
330
1F
100
AcDbEntity
  8
0
  6
Continuous
 62
     7
370
    25
100
AcDbSpline
210
0.0
220
0.0
230
1.0
 70
     8
 71
     3
 72
    11
 73
     7
 74
     0
 42
0.00000001
 43
0.00000001
 40
0.0
 40
0.0
 40
0.0
 40
0.0
 40
0.2833162653313653
 40
0.558048554347614
 40
0.7754339450995634
 40
1.0
 40
1.0
 40
1.0
 40
1.0
 10
-6.946376127406
 20
5.472611540628001
 30
0.0
 10
-6.910649946796768
 20
5.467930033466602
 30
0.0
 10
-6.840280024978034
 20
5.458708860441005
 30
0.0
 10
-6.762219730164981
 20
5.394451407064391
 30
0.0
 10
-6.714699613886055
 20
5.316133839393601
 30
0.0
 10
-6.708981894463069
 20
5.26055362757788
 30
0.0
 10
-6.706076585053
 20
5.232311998275
 30
0.0
  0
SPLINE
  5
BC
330
1F
100
AcDbEntity
  8
0
  6
Continuous
 62
     7
370
    25
100
AcDbSpline
210
0.0
220
0.0
230
1.0
 70
     8
 71
     3
 72
    11
 73
     7
 74
     0
 42
0.00000001
 43
0.00000001
 40
0.0
 40
0.0
 40
0.0
 40
0.0
 40
0.2814469665513012
 40
0.5588395290523411
 40
0.7775188711659357
 40
1.0
 40
1.0
 40
1.0
 40
1.0
 10
-7.258765624132001
 20
4.609936238577
 30
0.0
 10
-7.269292709223981
 20
4.608553035972018
 30
0.0
 10
-7.290195230744051
 20
4.605806556584358
 30
0.0
 10
-7.313815678237399
 20
4.587337896319994
 30
0.0
 10
-7.329137331258305
 20
4.564819416334862
 30
0.0
 10
-7.331876871309871
 20
4.548486279863931
 30
0.0
 10
-7.333258445597001
 20
4.540249334628
 30
0.0
  0
SPLINE
  5
BE
330
1F
100
AcDbEntity
  8
0
  6
Continuous
 62
     7
370
    25
100
AcDbSpline
210
0.0
220
0.0
230
1.0
 70
     8
 71
     3
 72
    11
 73
     7
 74
     0
 42
0.00000001
 43
0.00000001
 40
0.0
 40
0.0
 40
0.0
 40
0.0
 40
0.2844763318135015
 40
0.5604314286108399
 40
0.7778595099505609
 40
1.0
 40
1.0
 40
1.0
 40
1.0
 10
-6.511434084079001
 20
4.782951927406
 30
0.0
 10
-6.517157276793371
 20
4.736069880769811
 30
0.0
 10
-6.528432229084416
 20
4.643710097426764
 30
0.0
 10
-6.607675678454696
 20
4.538170510680442
 30
0.0
 10
-6.704937011944208
 20
4.469205315695557
 30
0.0
 10
-6.775930980969326
 20
4.454143972506478
 30
0.0
 10
-6.811808512022001
 20
4.44653256811
 30
0.0
  0
SPLINE
  5
C0
330
1F
100
AcDbEntity
  8
0
  6
Continuous
 62
     7
370
    25
100
AcDbSpline
210
0.0
220
0.0
230
1.0
 70
     8
 71
     3
 72
    11
 73
     7
 74
     0
 42
0.00000001
 43
0.00000001
 40
0.0
 40
0.0
 40
0.0
 40
0.0
 40
0.2835343091215363
 40
0.5579745196269855
 40
0.7752047226324926
 40
1.0
 40
1.0
 40
1.0
 40
1.0
 10
-6.811808512022
 20
4.427308623055
 30
0.0
 10
-6.815439901280911
 20
4.399407902039628
 30
0.0
 10
-6.822586206373924
 20
4.344501349622631
 30
0.0
 10
-6.872669225965441
 20
4.283562196838464
 30
0.0
 10
-6.933806461273521
 20
4.246563300843954
 30
0.0
 10
-6.977182789227888
 20
4.242129725423386
 30
0.0
 10
-6.999242136724001
 20
4.239874998353001
 30
0.0
  0
SPLINE
  5
C1
330
1F
100
AcDbEntity
  8
0
  6
Continuous
 62
     7
370
    25
100
AcDbSpline
210
0.0
220
0.0
230
1.0
 70
     8
 71
     3
 72
    11
 73
     7
 74
     0
 42
0.00000001
 43
0.00000001
 40
0.0
 40
0.0
 40
0.0
 40
0.0
 40
0.2839606782871031
 40
0.5581205999833553
 40
0.7749726906283589
 40
1.0
 40
1.0
 40
1.0
 40
1.0
 10
-6.999242136724001
 20
4.239874998353
 30
0.0
 10
-7.025892407337794
 20
4.243076890985077
 30
0.0
 10
-7.078273128198207
 20
4.249370164573792
 30
0.0
 10
-7.138057137270743
 20
4.294623627641728
 30
0.0
 10
-7.176124051317662
 20
4.351056625156717
 30
0.0
 10
-7.183115408978614
 20
4.392026670656699
 30
0.0
 10
-7.186675761426001
 20
4.412890687181
 30
0.0
  0
SPLINE
  5
C3
330
1F
100
AcDbEntity
  8
0
  6
Continuous
 62
     7
370
    25
100
AcDbSpline
210
0.0
220
0.0
230
1.0
 70
     8
 71
     3
 72
     9
 73
     5
 74
     0
 42
0.00000001
 43
0.00000001
 40
0.0
 40
0.0
 40
0.0
 40
0.0
 40
0.5607958194758785
 40
1.0
 40
1.0
 40
1.0
 40
1.0
 10
-7.186675761426001
 20
4.52102548124
 30
0.0
 10
-7.186188812397037
 20
4.523714406743536
 30
0.0
 10
-7.185320494531511
 20
4.528509245453366
 30
0.0
 10
-7.18459252842657
 20
4.533327305152935
 30
0.0
 10
-7.184272802670002
 20
4.535443417115
 30
0.0
  0
SPLINE
  5
C4
330
1F
100
AcDbEntity
  8
0
  6
Continuous
 62
     7
370
    25
100
AcDbSpline
210
0.0
220
0.0
230
1.0
 70
     8
 71
     3
 72
    11
 73
     7
 74
     0
 42
0.00000001
 43
0.00000001
 40
0.0
 40
0.0
 40
0.0
 40
0.0
 40
0.2830419562867187
 40
0.5581419460172922
 40
0.7757227327388537
 40
0.9999999999999999
 40
0.9999999999999999
 40
0.9999999999999999
 40
0.9999999999999999
 10
-7.184272802670001
 20
4.535443417115
 30
0.0
 10
-7.185734165906508
 20
4.546501371704133
 30
0.0
 10
-7.188615887511894
 20
4.568307002128402
 30
0.0
 10
-7.208554551888221
 20
4.592479662692689
 30
0.0
 10
-7.232808231368924
 20
4.60724421232401
 30
0.0
 10
-7.250026178964529
 20
4.609029875752269
 30
0.0
 10
-7.258765624132001
 20
4.609936238577
 30
0.0
  0
SPLINE
  5
C5
330
1F
100
AcDbEntity
  8
0
  6
Continuous
 62
     7
370
    25
100
AcDbSpline
210
0.0
220
0.0
230
1.0
 70
     8
 71
     3
 72
    15
 73
    11
 74
     0
 42
0.00000001
 43
0.00000001
 40
0.0
 40
0.0
 40
0.0
 40
0.0
 40
0.1289234566790636
 40
0.2521920693058506
 40
0.3747028008565191
 40
0.4999999668116921
 40
0.628923502939633
 40
0.7521921027091067
 40
0.8747027927532066
 40
1.0
 40
1.0
 40
1.0
 40
1.0
 10
-7.347676564804001
 20
5.104953304994
 30
0.0
 10
-7.346204344064323
 20
5.092288794381434
 30
0.0
 10
-7.343324477169827
 20
5.067515264254331
 30
0.0
 10
-7.321249128326591
 20
5.036662474640566
 30
0.0
 10
-7.290607731568759
 20
5.01613254678441
 30
0.0
 10
-7.253616196845516
 20
5.008717592033239
 30
0.0
 10
-7.216473433310386
 20
5.016248707236721
 30
0.0
 10
-7.185839456636219
 20
5.037493317153949
 30
0.0
 10
-7.164499501849186
 20
5.068345878290174
 30
0.0
 10
-7.161672329775589
 20
5.09265969583482
 30
0.0
 10
-7.160242848435
 20
5.104953304994
 30
0.0
  0
SPLINE
  5
C6
330
1F
100
AcDbEntity
  8
0
  6
Continuous
 62
     7
370
    25
100
AcDbSpline
210
0.0
220
0.0
230
1.0
 70
     8
 71
     3
 72
    15
 73
    11
 74
     0
 42
0.00000001
 43
0.00000001
 40
0.0
 40
0.0
 40
0.0
 40
0.0
 40
0.1252971989290416
 40
0.2478078808418828
 40
0.3710764724301152
 40
0.5000000000011233
 40
0.6289235275716086
 40
0.7521921191588724
 40
0.874702801071064
 40
1.0
 40
1.0
 40
1.0
 40
1.0
 10
-7.160242848435
 20
5.104953304994
 30
0.0
 10
-7.161672405442542
 20
5.117247103448327
 30
0.0
 10
-7.164499727167292
 20
5.141561295373634
 30
0.0
 10
-7.185838576440546
 20
5.172411090855848
 30
0.0
 10
-7.216476823810034
 20
5.193666384734182
 30
0.0
 10
-7.253959706619947
 20
5.201228083316964
 30
0.0
 10
-7.291442589429783
 20
5.193666384734223
 30
0.0
 10
-7.322080836799004
 20
5.172411090855817
 30
0.0
 10
-7.343419686071838
 20
5.141561295373545
 30
0.0
 10
-7.346247007796499
 20
5.117247103448316
 30
0.0
 10
-7.347676564804001
 20
5.104953304994
 30
0.0
  0
SPLINE
  5
C7
330
1F
100
AcDbEntity
  8
0
  6
Continuous
 62
     7
370
    25
100
AcDbSpline
210
0.0
220
0.0
230
1.0
 70
     8
 71
     3
 72
     9
 73
     5
 74
     0
 42
0.00000001
 43
0.00000001
 40
0.0
 40
0.0
 40
0.0
 40
0.0
 40
0.5601212740660112
 40
1.0
 40
1.0
 40
1.0
 40
1.0
 10
-7.225123651536
 20
4.179800112764999
 30
0.0
 10
-7.186741574059224
 20
4.151538060490786
 30
0.0
 10
-7.118216989734554
 20
4.101081037016109
 30
0.0
 10
-7.033919679657401
 20
4.094002820585418
 30
0.0
 10
-6.996839086301
 20
4.09088926376
 30
0.0
  0
SPLINE
  5
D2
330
1F
100
AcDbEntity
  8
0
  6
Continuous
 62
     7
370
    25
100
AcDbSpline
210
0.0
220
0.0
230
1.0
 70
     8
 71
     3
 72
     9
 73
     5
 74
     0
 42
0.00000001
 43
0.00000001
 40
0.0
 40
0.0
 40
0.0
 40
0.0
 40
0.4612986880966258
 40
1.0
 40
1.0
 40
1.0
 40
1.0
 10
-7.060977436816001
 20
2.181649549162
 30
0.0
 10
-7.057382859255457
 20
2.182661331460326
 30
0.0
 10
-7.049590559703566
 20
2.184854665897286
 30
0.0
 10
-7.041606249063465
 20
2.186196709447089
 30
0.0
 10
-7.037305090447
 20
2.186919670068
 30
0.0
  0
SPLINE
  5
D4
330
1F
100
AcDbEntity
  8
0
  6
Continuous
 62
     7
370
    25
100
AcDbSpline
210
0.0
220
0.0
230
1.0
 70
     8
 71
     3
 72
     9
 73
     5
 74
     0
 42
0.00000001
 43
0.00000001
 40
0.0
 40
0.0
 40
0.0
 40
0.0
 40
0.6273904557314153
 40
1.0
 40
1.0
 40
1.0
 40
1.0
 10
-7.037305090447
 20
2.187956415166
 30
0.0
 10
-7.042336476262318
 20
2.188785175120358
 30
0.0
 10
-7.050356020980213
 20
2.190106138719322
 30
0.0
 10
-7.058094139864886
 20
2.192568298218933
 30
0.0
 10
-7.060977436816001
 20
2.193485722348
 30
0.0
  0
SPLINE
  5
D7
330
1F
100
AcDbEntity
  8
0
  6
Continuous
 62
     7
370
    25
100
AcDbSpline
210
0.0
220
0.0
230
1.0
 70
     8
 71
     3
 72
     9
 73
     5
 74
     0
 42
0.00000001
 43
0.00000001
 40
0.0
 40
0.0
 40
0.0
 40
0.0
 40
0.5295151207775698
 40
1.0
 40
1.0
 40
1.0
 40
1.0
 10
-7.064778835503
 20
2.440231055315
 30
0.0
 10
-7.054571705544467
 20
2.456003649285452
 30
0.0
 10
-7.035295334468329
 20
2.485790511551615
 30
0.0
 10
-7.03372441368501
 20
2.521140061209598
 30
0.0
 10
-7.032985319210001
 20
2.537771489811001
 30
0.0
  0
SPLINE
  5
D9
330
1F
100
AcDbEntity
  8
0
  6
Continuous
 62
     7
370
    25
100
AcDbSpline
210
0.0
220
0.0
230
1.0
 70
     8
 71
     3
 72
     9
 73
     5
 74
     0
 42
0.00000001
 43
0.00000001
 40
0.0
 40
0.0
 40
0.0
 40
0.0
 40
0.5772955839918584
 40
1.0
 40
1.0
 40
1.0
 40
1.0
 10
-7.332086279551
 20
2.539499398303
 30
0.0
 10
-7.329992295583229
 20
2.51146931655424
 30
0.0
 10
-7.326365065398488
 20
2.462915191897789
 30
0.0
 10
-7.29710847624466
 20
2.42450212231716
 30
0.0
 10
-7.284741586812
 20
2.408264748173
 30
0.0
  0
SPLINE
  5
DA
330
1F
100
AcDbEntity
  8
0
  6
Continuous
 62
     7
370
    25
100
AcDbSpline
210
0.0
220
0.0
230
1.0
 70
     8
 71
     3
 72
     9
 73
     5
 74
     0
 42
0.00000001
 43
0.00000001
 40
0.0
 40
0.0
 40
0.0
 40
0.0
 40
0.5405067675784611
 40
1.0
 40
1.0
 40
1.0
 40
1.0
 10
-7.284741586812
 20
2.408264748173
 30
0.0
 10
-7.264803817690733
 20
2.391910904576386
 30
0.0
 10
-7.227916640106273
 20
2.36165440349707
 30
0.0
 10
-7.180544318684436
 20
2.358665039924051
 30
0.0
 10
-7.158777057587001
 20
2.357291447593
 30
0.0
  0
SPLINE
  5
DB
330
1F
100
AcDbEntity
  8
0
  6
Continuous
 62
     7
370
    25
100
AcDbSpline
210
0.0
220
0.0
230
1.0
 70
     8
 71
     3
 72
    10
 73
     6
 74
     0
 42
0.00000001
 43
0.00000001
 40
0.0
 40
0.0
 40
0.0
 40
0.0
 40
0.2976353070560117
 40
0.573106344843348
 40
1.0
 40
1.0
 40
1.0
 40
1.0
 10
-7.158777057587001
 20
2.357291447593
 30
0.0
 10
-7.145475799039165
 20
2.358014787878085
 30
0.0
 10
-7.119863798421467
 20
2.359407602833285
 30
0.0
 10
-7.076506169182931
 20
2.373684480948267
 30
0.0
 10
-7.0530915148232
 20
2.395192366023523
 30
0.0
 10
-7.03886020809
 20
2.408264748173
 30
0.0
  0
SPLINE
  5
DC
330
1F
100
AcDbEntity
  8
0
  6
Continuous
 62
     7
370
    25
100
AcDbSpline
210
0.0
220
0.0
230
1.0
 70
     8
 71
     3
 72
     9
 73
     5
 74
     0
 42
0.00000001
 43
0.00000001
 40
0.0
 40
0.0
 40
0.0
 40
0.0
 40
0.5410323343763366
 40
1.0
 40
1.0
 40
1.0
 40
1.0
 10
-7.03886020809
 20
2.408264748173
 30
0.0
 10
-7.024487487987194
 20
2.429209476721807
 30
0.0
 10
-6.997922125457852
 20
2.467922003160639
 30
0.0
 10
-6.995307436005349
 20
2.514613632975643
 30
0.0
 10
-6.994107378091001
 20
2.536043581316
 30
0.0
  0
SPLINE
  5
E1
330
1F
100
AcDbEntity
  8
0
  6
Continuous
 62
     7
370
    25
100
AcDbSpline
210
0.0
220
0.0
230
1.0
 70
     8
 71
     3
 72
     9
 73
     5
 74
     0
 42
0.00000001
 43
0.00000001
 40
0.0
 40
0.0
 40
0.0
 40
0.0
 40
0.5912942276882914
 40
1.0
 40
1.0
 40
1.0
 40
1.0
 10
-7.293553920131
 20
2.539758584579
 30
0.0
 10
-7.292229447274186
 20
2.517742951905986
 30
0.0
 10
-7.28998949160611
 20
2.480509994704483
 30
0.0
 10
-7.267497282531738
 20
2.451242499764908
 30
0.0
 10
-7.258304586851001
 20
2.439280705642
 30
0.0
  0
SPLINE
  5
E2
330
1F
100
AcDbEntity
  8
0
  6
Continuous
 62
     7
370
    25
100
AcDbSpline
210
0.0
220
0.0
230
1.0
 70
     8
 71
     3
 72
    10
 73
     6
 74
     0
 42
0.00000001
 43
0.00000001
 40
0.0
 40
0.0
 40
0.0
 40
0.0
 40
0.2599504144559846
 40
0.5278705936055702
 40
1.0
 40
1.0
 40
1.0
 40
1.0
 10
-7.258304586851001
 20
2.439280705642
 30
0.0
 10
-7.251311067163408
 20
2.43307795521681
 30
0.0
 10
-7.237109614949505
 20
2.420482285555022
 30
0.0
 10
-7.203602677246201
 20
2.406022805140891
 30
0.0
 10
-7.176974543207902
 20
2.404279557651543
 30
0.0
 10
-7.159986593532
 20
2.403167418116
 30
0.0
  0
SPLINE
  5
E3
330
1F
100
AcDbEntity
  8
0
  6
Continuous
 62
     7
370
    25
100
AcDbSpline
210
0.0
220
0.0
230
1.0
 70
     8
 71
     3
 72
    10
 73
     6
 74
     0
 42
0.00000001
 43
0.00000001
 40
0.0
 40
0.0
 40
0.0
 40
0.0
 40
0.314975219671065
 40
0.5946942361223336
 40
1.0
 40
1.0
 40
1.0
 40
1.0
 10
-7.159986593532
 20
2.403167418116
 30
0.0
 10
-7.148965246068743
 20
2.403683700701336
 30
0.0
 10
-7.12815620649558
 20
2.404658476679047
 30
0.0
 10
-7.09371081811134
 20
2.414431558239221
 30
0.0
 10
-7.075533646852526
 20
2.430640674741404
 30
0.0
 10
-7.064778835503
 20
2.440231055315
 30
0.0
  0
SPLINE
  5
F1
330
1F
100
AcDbEntity
  8
0
  6
Continuous
 62
     7
370
    25
100
AcDbSpline
210
0.0
220
0.0
230
1.0
 70
     8
 71
     3
 72
    11
 73
     7
 74
     0
 42
0.00000001
 43
0.00000001
 40
0.0
 40
0.0
 40
0.0
 40
0.0
 40
0.242257768056448
 40
0.4951392778733067
 40
0.7266216394514774
 40
1.0
 40
1.0
 40
1.0
 40
1.0
 10
-7.445782658469001
 20
3.119385488949
 30
0.0
 10
-7.444620553118505
 20
3.109351806517542
 30
0.0
 10
-7.442245380554693
 20
3.088844434087838
 30
0.0
 10
-7.423010461854299
 20
3.064492240078193
 30
0.0
 10
-7.397883841780732
 20
3.046056435946745
 30
0.0
 10
-7.378851189649338
 20
3.037748134513516
 30
0.0
 10
-7.368545148778
 20
3.033249250514
 30
0.0
  0
SPLINE
  5
F2
330
1F
100
AcDbEntity
  8
0
  6
Continuous
 62
     7
370
    25
100
AcDbSpline
210
0.0
220
0.0
230
1.0
 70
     8
 71
     3
 72
     9
 73
     5
 74
     0
 42
0.00000001
 43
0.00000001
 40
0.0
 40
0.0
 40
0.0
 40
0.0
 40
0.5223388361658288
 40
1.0
 40
1.0
 40
1.0
 40
1.0
 10
-7.44232684148
 20
3.146686443156
 30
0.0
 10
-7.443425020161471
 20
3.141994246984313
 30
0.0
 10
-7.445527446030344
 20
3.133011196430139
 30
0.0
 10
-7.44570015980594
 20
3.123790065216415
 30
0.0
 10
-7.445782658469001
 20
3.119385488949
 30
0.0
  0
SPLINE
  5
F4
330
1F
100
AcDbEntity
  8
0
  6
Continuous
 62
     7
370
    25
100
AcDbSpline
210
0.0
220
0.0
230
1.0
 70
     8
 71
     3
 72
     9
 73
     5
 74
     0
 42
0.00000001
 43
0.00000001
 40
0.0
 40
0.0
 40
0.0
 40
0.0
 40
0.5420555887081192
 40
1.0
 40
1.0
 40
1.0
 40
1.0
 10
-7.409496580091
 20
3.122668515088
 30
0.0
 10
-7.409221535988306
 20
3.127133870597693
 30
0.0
 10
-7.408714126585238
 20
3.135371689010995
 30
0.0
 10
-7.405932339949323
 20
3.143132447279534
 30
0.0
 10
-7.404658436306001
 20
3.146686443156
 30
0.0
  0
SPLINE
  5
F5
330
1F
100
AcDbEntity
  8
0
  6
Continuous
 62
     7
370
    25
100
AcDbSpline
210
0.0
220
0.0
230
1.0
 70
     8
 71
     3
 72
    11
 73
     7
 74
     0
 42
0.00000001
 43
0.00000001
 40
0.0
 40
0.0
 40
0.0
 40
0.0
 40
0.3211939813342206
 40
0.5927974689932238
 40
0.7925407004816296
 40
1.0
 40
1.0
 40
1.0
 40
1.0
 10
-7.375456782756
 20
3.079298011884
 30
0.0
 10
-7.381153436513785
 20
3.082030124416199
 30
0.0
 10
-7.391667213625411
 20
3.087072527101839
 30
0.0
 10
-7.402780664426534
 20
3.098363414357218
 30
0.0
 10
-7.408636935758532
 20
3.110587597569229
 30
0.0
 10
-7.409206434840081
 20
3.118590990567172
 30
0.0
 10
-7.409496580091
 20
3.122668515088
 30
0.0
  0
SPLINE
  5
FC
330
1F
100
AcDbEntity
  8
0
  6
Continuous
 62
     7
370
    25
100
AcDbSpline
210
0.0
220
0.0
230
1.0
 70
     8
 71
     3
 72
     9
 73
     5
 74
     0
 42
0.00000001
 43
0.00000001
 40
0.0
 40
0.0
 40
0.0
 40
0.0
 40
0.6384246865147826
 40
1.0
 40
1.0
 40
1.0
 40
1.0
 10
-7.272473436503001
 20
3.033508436788
 30
0.0
 10
-7.276591028855488
 20
3.034757246950418
 30
0.0
 10
-7.283040642160648
 20
3.0367133275795
 30
0.0
 10
-7.289619903872161
 20
3.038166669655331
 30
0.0
 10
-7.291998802488001
 20
3.038692162272
 30
0.0
  0
SPLINE
  5
FF
330
1F
100
AcDbEntity
  8
0
  6
Continuous
 62
     7
370
    25
100
AcDbSpline
210
0.0
220
0.0
230
1.0
 70
     8
 71
     3
 72
    12
 73
     8
 74
     0
 42
0.00000001
 43
0.00000001
 40
0.0
 40
0.0
 40
0.0
 40
0.0
 40
0.1661702386277549
 40
0.3178634039955565
 40
0.4791983042094691
 40
0.7088499235003539
 40
1.0
 40
1.0
 40
1.0
 40
1.0
 10
-7.270572737159
 20
3.220900112982
 30
0.0
 10
-7.274335598369317
 20
3.221180397731755
 30
0.0
 10
-7.281533493028141
 20
3.221716548280621
 30
0.0
 10
-7.291091769706915
 20
3.22749837188971
 30
0.0
 10
-7.298267943379481
 20
3.237631501265609
 30
0.0
 10
-7.302607322511989
 20
3.252584675934785
 30
0.0
 10
-7.303006853214117
 20
3.264291859765961
 30
0.0
 10
-7.303230207699
 20
3.270836668463
 30
0.0
  0
SPLINE
  5
100
330
1F
100
AcDbEntity
  8
0
  6
Continuous
 62
     7
370
    25
100
AcDbSpline
210
0.0
220
0.0
230
1.0
 70
     8
 71
     3
 72
    10
 73
     6
 74
     0
 42
0.00000001
 43
0.00000001
 40
0.0
 40
0.0
 40
0.0
 40
0.0
 40
0.2883523076579202
 40
0.5606411731785151
 40
1.0
 40
1.0
 40
1.0
 40
1.0
 10
-7.247591554187999
 20
3.231785936495
 30
0.0
 10
-7.249322247763795
 20
3.229944312175129
 30
0.0
 10
-7.252687221967143
 20
3.226363656179574
 30
0.0
 10
-7.260425677042313
 20
3.221880155794323
 30
0.0
 10
-7.266699431183466
 20
3.22127421204494
 30
0.0
 10
-7.270572737159
 20
3.220900112982
 30
0.0
  0
SPLINE
  5
101
330
1F
100
AcDbEntity
  8
0
  6
Continuous
 62
     7
370
    25
100
AcDbSpline
210
0.0
220
0.0
230
1.0
 70
     8
 71
     3
 72
     9
 73
     5
 74
     0
 42
0.00000001
 43
0.00000001
 40
0.0
 40
0.0
 40
0.0
 40
0.0
 40
0.667817884914806
 40
1.0
 40
1.0
 40
1.0
 40
1.0
 10
-7.22599269801
 20
3.27610678937
 30
0.0
 10
-7.229800831286241
 20
3.265720993487192
 30
0.0
 10
-7.235503184221464
 20
3.250169155003361
 30
0.0
 10
-7.244577296409018
 20
3.236369826593081
 30
0.0
 10
-7.247591554187999
 20
3.231785936495
 30
0.0
  0
SPLINE
  5
102
330
1F
100
AcDbEntity
  8
0
  6
Continuous
 62
     7
370
    25
100
AcDbSpline
210
0.0
220
0.0
230
1.0
 70
     8
 71
     3
 72
    10
 73
     6
 74
     0
 42
0.00000001
 43
0.00000001
 40
0.0
 40
0.0
 40
0.0
 40
0.0
 40
0.20405147597829
 40
0.4645552664380808
 40
1.0
 40
1.0
 40
1.0
 40
1.0
 10
-7.194026390867
 20
3.32820323047
 30
0.0
 10
-7.197113828543581
 20
3.325341449393199
 30
0.0
 10
-7.204142865827327
 20
3.318826154837021
 30
0.0
 10
-7.215126806609207
 20
3.301221791244574
 30
0.0
 10
-7.221622776281114
 20
3.286207257740664
 30
0.0
 10
-7.22599269801
 20
3.27610678937
 30
0.0
  0
SPLINE
  5
103
330
1F
100
AcDbEntity
  8
0
  6
Continuous
 62
     7
370
    25
100
AcDbSpline
210
0.0
220
0.0
230
1.0
 70
     8
 71
     3
 72
     9
 73
     5
 74
     0
 42
0.00000001
 43
0.00000001
 40
0.0
 40
0.0
 40
0.0
 40
0.0
 40
0.573774874316605
 40
1.0
 40
1.0
 40
1.0
 40
1.0
 10
-7.155839613146
 20
3.340212194504
 30
0.0
 10
-7.163741628281465
 20
3.33966451249676
 30
0.0
 10
-7.177513606611606
 20
3.338709988289174
 30
0.0
 10
-7.189091571378903
 20
3.331343158445857
 30
0.0
 10
-7.194026390867
 20
3.32820323047
 30
0.0
  0
SPLINE
  5
104
330
1F
100
AcDbEntity
  8
0
  6
Continuous
 62
     7
370
    25
100
AcDbSpline
210
0.0
220
0.0
230
1.0
 70
     8
 71
     3
 72
    10
 73
     6
 74
     0
 42
0.00000001
 43
0.00000001
 40
0.0
 40
0.0
 40
0.0
 40
0.0
 40
0.2922051879723299
 40
0.5640014952407318
 40
1.0
 40
1.0
 40
1.0
 40
1.0
 10
-7.104347940020999
 20
3.313084031146
 30
0.0
 10
-7.108071998503497
 20
3.317655165089096
 30
0.0
 10
-7.115260011033553
 20
3.32647816510748
 30
0.0
 10
-7.132581029532971
 20
3.337755393773981
 30
0.0
 10
-7.146973756413609
 20
3.339275695375128
 30
0.0
 10
-7.155839613146
 20
3.340212194504
 30
0.0
  0
SPLINE
  5
105
330
1F
100
AcDbEntity
  8
0
  6
Continuous
 62
     7
370
    25
100
AcDbSpline
210
0.0
220
0.0
230
1.0
 70
     8
 71
     3
 72
     9
 73
     5
 74
     0
 42
0.00000001
 43
0.00000001
 40
0.0
 40
0.0
 40
0.0
 40
0.0
 40
0.5816143777187351
 40
1.0
 40
1.0
 40
1.0
 40
1.0
 10
-7.085168155734
 20
3.246213972421
 30
0.0
 10
-7.085982090247922
 20
3.260093558605894
 30
0.0
 10
-7.08738153040123
 20
3.283957456605346
 30
0.0
 10
-7.099343305360908
 20
3.30449247478595
 30
0.0
 10
-7.104347940020999
 20
3.313084031146
 30
0.0
  0
SPLINE
  5
106
330
1F
100
AcDbEntity
  8
0
  6
Continuous
 62
     7
370
    25
100
AcDbSpline
210
0.0
220
0.0
230
1.0
 70
     8
 71
     3
 72
     9
 73
     5
 74
     0
 42
0.00000001
 43
0.00000001
 40
0.0
 40
0.0
 40
0.0
 40
0.0
 40
0.5496136601588895
 40
1.0
 40
1.0
 40
1.0
 40
1.0
 10
-7.095881188400001
 20
3.189020201264
 30
0.0
 10
-7.092421909333565
 20
3.199233113837638
 30
0.0
 10
-7.086127889884643
 20
3.217815098446037
 30
0.0
 10
-7.085466180570179
 20
3.23739531179669
 30
0.0
 10
-7.085168155734
 20
3.246213972421
 30
0.0
  0
SPLINE
  5
108
330
1F
100
AcDbEntity
  8
0
  6
Continuous
 62
     7
370
    25
100
AcDbSpline
210
0.0
220
0.0
230
1.0
 70
     8
 71
     3
 72
     9
 73
     5
 74
     0
 42
0.00000001
 43
0.00000001
 40
0.0
 40
0.0
 40
0.0
 40
0.0
 40
0.5671564061798132
 40
1.0
 40
1.0
 40
1.0
 40
1.0
 10
-7.119553534768
 20
3.250360952807
 30
0.0
 10
-7.12042463542943
 20
3.238021386014737
 30
0.0
 10
-7.121960544487209
 20
3.216264483231291
 30
0.0
 10
-7.132460550306184
 20
3.197250347923855
 30
0.0
 10
-7.137005410560001
 20
3.189020201264001
 30
0.0
  0
SPLINE
  5
109
330
1F
100
AcDbEntity
  8
0
  6
Continuous
 62
     7
370
    25
100
AcDbSpline
210
0.0
220
0.0
230
1.0
 70
     8
 71
     3
 72
     9
 73
     5
 74
     0
 42
0.00000001
 43
0.00000001
 40
0.0
 40
0.0
 40
0.0
 40
0.0
 40
0.5236274193418078
 40
1.0
 40
1.0
 40
1.0
 40
1.0
 10
-7.128538658939
 20
3.283709586745
 30
0.0
 10
-7.125648317570499
 20
3.278234766118433
 30
0.0
 10
-7.120128474144169
 20
3.267779200912453
 30
0.0
 10
-7.119739047123036
 20
3.255981197932956
 30
0.0
 10
-7.119553534768
 20
3.250360952807
 30
0.0
  0
SPLINE
  5
10A
330
1F
100
AcDbEntity
  8
0
  6
Continuous
 62
     7
370
    25
100
AcDbSpline
210
0.0
220
0.0
230
1.0
 70
     8
 71
     3
 72
    10
 73
     6
 74
     0
 42
0.00000001
 43
0.00000001
 40
0.0
 40
0.0
 40
0.0
 40
0.0
 40
0.279552051369907
 40
0.5489342013762579
 40
1.0
 40
1.0
 40
1.0
 40
1.0
 10
-7.152038214458
 20
3.296582505027
 30
0.0
 10
-7.149439802860706
 20
3.296395836036087
 30
0.0
 10
-7.144337507999992
 20
3.29602928893709
 30
0.0
 10
-7.135612562215424
 20
3.292171823921044
 30
0.0
 10
-7.131262310998778
 20
3.286967786470699
 30
0.0
 10
-7.128538658939
 20
3.283709586745
 30
0.0
  0
SPLINE
  5
10B
330
1F
100
AcDbEntity
  8
0
  6
Continuous
 62
     7
370
    25
100
AcDbSpline
210
0.0
220
0.0
230
1.0
 70
     8
 71
     3
 72
     9
 73
     5
 74
     0
 42
0.00000001
 43
0.00000001
 40
0.0
 40
0.0
 40
0.0
 40
0.0
 40
0.5330138376166982
 40
0.9999999999999999
 40
0.9999999999999999
 40
0.9999999999999999
 40
0.9999999999999999
 10
-7.174501024882001
 20
3.287338194583
 30
0.0
 10
-7.171029906297381
 20
3.290298927762036
 30
0.0
 10
-7.164517657759631
 20
3.29585363004195
 30
0.0
 10
-7.156010799534494
 20
3.296350482025792
 30
0.0
 10
-7.152038214458
 20
3.296582505027
 30
0.0
  0
SPLINE
  5
10C
330
1F
100
AcDbEntity
  8
0
  6
Continuous
 62
     7
370
    25
100
AcDbSpline
210
0.0
220
0.0
230
1.0
 70
     8
 71
     3
 72
     9
 73
     5
 74
     0
 42
0.00000001
 43
0.00000001
 40
0.0
 40
0.0
 40
0.0
 40
0.0
 40
0.6766993830068895
 40
1.0
 40
1.0
 40
1.0
 40
1.0
 10
-7.195235926814
 20
3.246213972421
 30
0.0
 10
-7.191512475022892
 20
3.256004855267199
 30
0.0
 10
-7.186010102943633
 20
3.270473440716018
 30
0.0
 10
-7.177312851605698
 20
3.283217902292181
 30
0.0
 10
-7.174501024882001
 20
3.287338194583
 30
0.0
  0
SPLINE
  5
10D
330
1F
100
AcDbEntity
  8
0
  6
Continuous
 62
     7
370
    25
100
AcDbSpline
210
0.0
220
0.0
230
1.0
 70
     8
 71
     3
 72
    10
 73
     6
 74
     0
 42
0.00000001
 43
0.00000001
 40
0.0
 40
0.0
 40
0.0
 40
0.0
 40
0.2118810736269125
 40
0.4742846789112898
 40
1.0
 40
1.0
 40
1.0
 40
1.0
 10
-7.226511070557
 20
3.191612064006
 30
0.0
 10
-7.223406875797119
 20
3.19485625735351
 30
0.0
 10
-7.216458298513802
 20
3.202118214138093
 30
0.0
 10
-7.205630609516033
 20
3.220452893028463
 30
0.0
 10
-7.199395236837218
 20
3.235905979498299
 30
0.0
 10
-7.195235926814
 20
3.246213972421
 30
0.0
  0
SPLINE
  5
10E
330
1F
100
AcDbEntity
  8
0
  6
Continuous
 62
     7
370
    25
100
AcDbSpline
210
0.0
220
0.0
230
1.0
 70
     8
 71
     3
 72
     9
 73
     5
 74
     0
 42
0.00000001
 43
0.00000001
 40
0.0
 40
0.0
 40
0.0
 40
0.0
 40
0.5726055427287292
 40
1.0
 40
1.0
 40
1.0
 40
1.0
 10
-7.266425756773
 20
3.177443214353
 30
0.0
 10
-7.258020921028081
 20
3.17811152349632
 30
0.0
 10
-7.243342691221105
 20
3.17927866054521
 30
0.0
 10
-7.231550841688299
 20
3.18791916170308
 30
0.0
 10
-7.226511070557
 20
3.191612064006
 30
0.0
  0
SPLINE
  5
10F
330
1F
100
AcDbEntity
  8
0
  6
Continuous
 62
     7
370
    25
100
AcDbSpline
210
0.0
220
0.0
230
1.0
 70
     8
 71
     3
 72
    10
 73
     6
 74
     0
 42
0.00000001
 43
0.00000001
 40
0.0
 40
0.0
 40
0.0
 40
0.0
 40
0.2877710486895121
 40
0.5584217249575094
 40
1.0
 40
1.0
 40
1.0
 40
1.0
 10
-7.318608593298
 20
3.204657773137
 30
0.0
 10
-7.314940424873924
 20
3.200057113704694
 30
0.0
 10
-7.307822318489925
 20
3.191129502022318
 30
0.0
 10
-7.290185513592786
 20
3.179831839828066
 30
0.0
 10
-7.275518950325855
 20
3.178357374962252
 30
0.0
 10
-7.266425756773001
 20
3.177443214353
 30
0.0
  0
SPLINE
  5
110
330
1F
100
AcDbEntity
  8
0
  6
Continuous
 62
     7
370
    25
100
AcDbSpline
210
0.0
220
0.0
230
1.0
 70
     8
 71
     3
 72
     9
 73
     5
 74
     0
 42
0.00000001
 43
0.00000001
 40
0.0
 40
0.0
 40
0.0
 40
0.0
 40
0.5930998629046742
 40
1.0
 40
1.0
 40
1.0
 40
1.0
 10
-7.337788377582
 20
3.274983648849
 30
0.0
 10
-7.337085759836329
 20
3.26013842393809
 30
0.0
 10
-7.335901106475881
 20
3.23510853295446
 30
0.0
 10
-7.323609890687402
 20
3.213464665692972
 30
0.0
 10
-7.318608593298
 20
3.204657773137
 30
0.0
  0
SPLINE
  5
111
330
1F
100
AcDbEntity
  8
0
  6
Continuous
 62
     7
370
    25
100
AcDbSpline
210
0.0
220
0.0
230
1.0
 70
     8
 71
     3
 72
     9
 73
     5
 74
     0
 42
0.00000001
 43
0.00000001
 40
0.0
 40
0.0
 40
0.0
 40
0.0
 40
0.5359109883260919
 40
0.9999999999999999
 40
0.9999999999999999
 40
0.9999999999999999
 40
0.9999999999999999
 10
-7.323619527930001
 20
3.340471380778001
 30
0.0
 10
-7.328146020878687
 20
3.329187157905696
 30
0.0
 10
-7.336592373066436
 20
3.308131006570656
 30
0.0
 10
-7.337409266374173
 20
3.285490745317853
 30
0.0
 10
-7.337788377582001
 20
3.274983648849001
 30
0.0
  0
SPLINE
  5
113
330
1F
100
AcDbEntity
  8
0
  6
Continuous
 62
     7
370
    25
100
AcDbSpline
210
0.0
220
0.0
230
1.0
 70
     8
 71
     3
 72
     9
 73
     5
 74
     0
 42
0.00000001
 43
0.00000001
 40
0.0
 40
0.0
 40
0.0
 40
0.0
 40
0.5495109513257764
 40
1.0
 40
1.0
 40
1.0
 40
1.0
 10
-7.303230207699
 20
3.270836668463
 30
0.0
 10
-7.301910560088491
 20
3.284633425468407
 30
0.0
 10
-7.29950906543706
 20
3.30974076313314
 30
0.0
 10
-7.285992505332052
 20
3.330927146906909
 30
0.0
 10
-7.279903443028999
 20
3.340471380778001
 30
0.0
  0
SPLINE
  5
114
330
1F
100
AcDbEntity
  8
0
  6
Continuous
 62
     7
370
    25
100
AcDbSpline
210
0.0
220
0.0
230
1.0
 70
     8
 71
     3
 72
     9
 73
     5
 74
     0
 42
0.00000001
 43
0.00000001
 40
0.0
 40
0.0
 40
0.0
 40
0.0
 40
0.5663455104626463
 40
1.0
 40
1.0
 40
1.0
 40
1.0
 10
-7.148755188321
 20
3.568209720310999
 30
0.0
 10
-7.139400606640946
 20
3.554585327150755
 30
0.0
 10
-7.122883160122457
 20
3.530528646363943
 30
0.0
 10
-7.120560686068384
 20
3.501611542982694
 30
0.0
 10
-7.119553534768
 20
3.489071511277
 30
0.0
  0
SPLINE
  5
115
330
1F
100
AcDbEntity
  8
0
  6
Continuous
 62
     7
370
    25
100
AcDbSpline
210
0.0
220
0.0
230
1.0
 70
     8
 71
     3
 72
     9
 73
     5
 74
     0
 42
0.00000001
 43
0.00000001
 40
0.0
 40
0.0
 40
0.0
 40
0.0
 40
0.5728282222116086
 40
1.0
 40
1.0
 40
1.0
 40
1.0
 10
-7.085168155734
 20
3.48509732174
 30
0.0
 10
-7.086201573536677
 20
3.501920966680637
 30
0.0
 10
-7.08800563584123
 20
3.531290408143707
 30
0.0
 10
-7.101756839881422
 20
3.557159271823526
 30
0.0
 10
-7.107630966158
 20
3.568209720310999
 30
0.0
  0
SPLINE
  5
117
330
1F
100
AcDbEntity
  8
0
  6
Continuous
 62
     7
370
    25
100
AcDbSpline
210
0.0
220
0.0
230
1.0
 70
     8
 71
     3
 72
    12
 73
     8
 74
     0
 42
0.00000001
 43
0.00000001
 40
0.0
 40
0.0
 40
0.0
 40
0.0
 40
0.1906330868506878
 40
0.3567080235409246
 40
0.5187908125529535
 40
0.7339624970881748
 40
1.0
 40
1.0
 40
1.0
 40
1.0
 10
-7.119553534768
 20
3.489071511277
 30
0.0
 10
-7.119871822553897
 20
3.483487777649338
 30
0.0
 10
-7.120467394964228
 20
3.473039630272577
 30
0.0
 10
-7.12695669233315
 20
3.458912488222643
 30
0.0
 10
-7.138817010157757
 20
3.447892998126252
 30
0.0
 10
-7.156807885771845
 20
3.441112633143938
 30
0.0
 10
-7.170872405952515
 20
3.440506695037768
 30
0.0
 10
-7.178648005268
 20
3.440171700892
 30
0.0
  0
SPLINE
  5
119
330
1F
100
AcDbEntity
  8
0
  6
Continuous
 62
     7
370
    25
100
AcDbSpline
210
0.0
220
0.0
230
1.0
 70
     8
 71
     3
 72
    12
 73
     8
 74
     0
 42
0.00000001
 43
0.00000001
 40
0.0
 40
0.0
 40
0.0
 40
0.0
 40
0.2230867712359015
 40
0.4138423044477583
 40
0.5841928752737456
 40
0.780819591063573
 40
1.0
 40
1.0
 40
1.0
 40
1.0
 10
-7.188669874534
 20
3.511707112551
 30
0.0
 10
-7.190311843456772
 20
3.520850155647475
 30
0.0
 10
-7.193357816102606
 20
3.537811170429967
 30
0.0
 10
-7.203504987838384
 20
3.560199160808693
 30
0.0
 10
-7.218767697197833
 20
3.578046672099832
 30
0.0
 10
-7.24090781479058
 20
3.590019047069047
 30
0.0
 10
-7.258296546847089
 20
3.591182428955673
 30
0.0
 10
-7.267462501869001
 20
3.591795671256
 30
0.0
  0
SPLINE
  5
11A
330
1F
100
AcDbEntity
  8
0
  6
Continuous
 62
     7
370
    25
100
AcDbSpline
210
0.0
220
0.0
230
1.0
 70
     8
 71
     3
 72
     9
 73
     5
 74
     0
 42
0.00000001
 43
0.00000001
 40
0.0
 40
0.0
 40
0.0
 40
0.0
 40
0.5773446562912586
 40
1.0
 40
1.0
 40
1.0
 40
1.0
 10
-7.267462501869
 20
3.591795671256
 30
0.0
 10
-7.278702402078873
 20
3.590873222514789
 30
0.0
 10
-7.298170669581474
 20
3.589275478894651
 30
0.0
 10
-7.312658166259198
 20
3.576472160332498
 30
0.0
 10
-7.318781384147001
 20
3.571060769324999
 30
0.0
  0
SPLINE
  5
11B
330
1F
100
AcDbEntity
  8
0
  6
Continuous
 62
     7
370
    25
100
AcDbSpline
210
0.0
220
0.0
230
1.0
 70
     8
 71
     3
 72
     9
 73
     5
 74
     0
 42
0.00000001
 43
0.00000001
 40
0.0
 40
0.0
 40
0.0
 40
0.0
 40
0.5275931961831662
 40
1.0
 40
1.0
 40
1.0
 40
1.0
 10
-7.318781384147001
 20
3.571060769324999
 30
0.0
 10
-7.324867122426729
 20
3.562147858546166
 30
0.0
 10
-7.33640202910057
 20
3.545254329889401
 30
0.0
 10
-7.337343581718933
 20
3.524876126768075
 30
0.0
 10
-7.337788377582
 20
3.515249324964
 30
0.0
  0
SPLINE
  5
11C
330
1F
100
AcDbEntity
  8
0
  6
Continuous
 62
     7
370
    25
100
AcDbSpline
210
0.0
220
0.0
230
1.0
 70
     8
 71
     3
 72
    10
 73
     6
 74
     0
 42
0.00000001
 43
0.00000001
 40
0.0
 40
0.0
 40
0.0
 40
0.0
 40
0.2873534411947977
 40
0.55563584297411
 40
1.0
 40
1.0
 40
1.0
 40
1.0
 10
-7.337788377582
 20
3.515249324964
 30
0.0
 10
-7.337197750511863
 20
3.506654470228896
 30
0.0
 10
-7.336055695039571
 20
3.490035183067678
 30
0.0
 10
-7.323225156969061
 20
3.461994086067345
 30
0.0
 10
-7.305694521409487
 20
3.449244640214384
 30
0.0
 10
-7.294763456078
 20
3.441294841413
 30
0.0
  0
SPLINE
  5
121
330
1F
100
AcDbEntity
  8
0
  6
Continuous
 62
     7
370
    25
100
AcDbSpline
210
0.0
220
0.0
230
1.0
 70
     8
 71
     3
 72
    12
 73
     8
 74
     0
 42
0.00000001
 43
0.00000001
 40
0.0
 40
0.0
 40
0.0
 40
0.0
 40
0.2157363858185497
 40
0.397382249690009
 40
0.5615408730642253
 40
0.7617567969263056
 40
1.0
 40
1.0
 40
1.0
 40
1.0
 10
-7.176747305927002
 20
3.397837942785
 30
0.0
 10
-7.166322218963695
 20
3.398299731312222
 30
0.0
 10
-7.147119410429686
 20
3.39915033684699
 30
0.0
 10
-7.121106134998484
 20
3.408299625448141
 30
0.0
 10
-7.100307449806474
 20
3.425338968841868
 30
0.0
 10
-7.086963628326701
 20
3.452298071832847
 30
0.0
 10
-7.085800278785078
 20
3.473549853954297
 30
0.0
 10
-7.085168155734001
 20
3.485097321740001
 30
0.0
  0
SPLINE
  5
122
330
1F
100
AcDbEntity
  8
0
  6
Continuous
 62
     7
370
    25
100
AcDbSpline
210
0.0
220
0.0
230
1.0
 70
     8
 71
     3
 72
     9
 73
     5
 74
     0
 42
0.00000001
 43
0.00000001
 40
0.0
 40
0.0
 40
0.0
 40
0.0
 40
0.6416492442993053
 40
0.9999999999999999
 40
0.9999999999999999
 40
0.9999999999999999
 40
0.9999999999999999
 10
-7.218562691484001
 20
3.496674308652
 30
0.0
 10
-7.219922241715557
 20
3.506185335527273
 30
0.0
 10
-7.222041078827324
 20
3.521008117537496
 30
0.0
 10
-7.230420082307029
 20
3.533241793085408
 30
0.0
 10
-7.233422704536
 20
3.537625739963
 30
0.0
  0
SPLINE
  5
123
330
1F
100
AcDbEntity
  8
0
  6
Continuous
 62
     7
370
    25
100
AcDbSpline
210
0.0
220
0.0
230
1.0
 70
     8
 71
     3
 72
    10
 73
     6
 74
     0
 42
0.00000001
 43
0.00000001
 40
0.0
 40
0.0
 40
0.0
 40
0.0
 40
0.2594260954477805
 40
0.5274086402639276
 40
1.0
 40
1.0
 40
1.0
 40
1.0
 10
-7.233422704536
 20
3.537625739963
 30
0.0
 10
-7.235599130436801
 20
3.539542769036408
 30
0.0
 10
-7.240023765603111
 20
3.543440055063889
 30
0.0
 10
-7.250432376314581
 20
3.547952606938247
 30
0.0
 10
-7.258718781302665
 20
3.548504780194049
 30
0.0
 10
-7.264006684882
 20
3.548857145175
 30
0.0
  0
SPLINE
  5
124
330
1F
100
AcDbEntity
  8
0
  6
Continuous
 62
     7
370
    25
100
AcDbSpline
210
0.0
220
0.0
230
1.0
 70
     8
 71
     3
 72
    10
 73
     6
 74
     0
 42
0.00000001
 43
0.00000001
 40
0.0
 40
0.0
 40
0.0
 40
0.0
 40
0.292625813494189
 40
0.566552131359473
 40
1.0
 40
1.0
 40
1.0
 40
1.0
 10
-7.264006684882
 20
3.548857145175
 30
0.0
 10
-7.267091357253266
 20
3.548683658063647
 30
0.0
 10
-7.273063583987532
 20
3.548347770086002
 30
0.0
 10
-7.283248450473819
 20
3.544866996228864
 30
0.0
 10
-7.288781303643551
 20
3.539734167272037
 30
0.0
 10
-7.292171593337001
 20
3.536588994867
 30
0.0
  0
SPLINE
  5
125
330
1F
100
AcDbEntity
  8
0
  6
Continuous
 62
     7
370
    25
100
AcDbSpline
210
0.0
220
0.0
230
1.0
 70
     8
 71
     3
 72
     9
 73
     5
 74
     0
 42
0.00000001
 43
0.00000001
 40
0.0
 40
0.0
 40
0.0
 40
0.0
 40
0.5299776731901216
 40
1.0
 40
1.0
 40
1.0
 40
1.0
 10
-7.292171593337001
 20
3.536588994867
 30
0.0
 10
-7.295663189199188
 20
3.531389802061037
 30
0.0
 10
-7.302251383454938
 20
3.521579591048436
 30
0.0
 10
-7.302799697164438
 20
3.509809371843682
 30
0.0
 10
-7.30305741685
 20
3.504277106026
 30
0.0
  0
SPLINE
  5
126
330
1F
100
AcDbEntity
  8
0
  6
Continuous
 62
     7
370
    25
100
AcDbSpline
210
0.0
220
0.0
230
1.0
 70
     8
 71
     3
 72
     9
 73
     5
 74
     0
 42
0.00000001
 43
0.00000001
 40
0.0
 40
0.0
 40
0.0
 40
0.0
 40
0.5633915154004202
 40
1.0
 40
1.0
 40
1.0
 40
1.0
 10
-7.30305741685
 20
3.504277106026
 30
0.0
 10
-7.302056508696823
 20
3.494398731310987
 30
0.0
 10
-7.300279932149577
 20
3.476864965812242
 30
0.0
 10
-7.288501725132171
 20
3.463952452813677
 30
0.0
 10
-7.283359260015001
 20
3.458314740081001
 30
0.0
  0
SPLINE
  5
127
330
1F
100
AcDbEntity
  8
0
  6
Continuous
 62
     7
370
    25
100
AcDbSpline
210
0.0
220
0.0
230
1.0
 70
     8
 71
     3
 72
     9
 73
     5
 74
     0
 42
0.00000001
 43
0.00000001
 40
0.0
 40
0.0
 40
0.0
 40
0.0
 40
0.5421822745248013
 40
0.9999999999999999
 40
0.9999999999999999
 40
0.9999999999999999
 40
0.9999999999999999
 10
-7.283359260015001
 20
3.458314740081001
 30
0.0
 10
-7.275349324658229
 20
3.452491711831606
 30
0.0
 10
-7.260575814469629
 20
3.441751729130218
 30
0.0
 10
-7.242424061973272
 20
3.440667897996458
 30
0.0
 10
-7.234113867932001
 20
3.440171700892001
 30
0.0
  0
SPLINE
  5
140
330
1F
100
AcDbEntity
  8
0
  6
Continuous
 62
     7
370
    25
100
AcDbSpline
210
0.0
220
0.0
230
1.0
 70
     8
 71
     3
 72
     9
 73
     5
 74
     0
 42
0.00000001
 43
0.00000001
 40
0.0
 40
0.0
 40
0.0
 40
0.0
 40
0.461298688053672
 40
1.0
 40
1.0
 40
1.0
 40
1.0
 10
-6.524807431074001
 20
2.604900734809001
 30
0.0
 10
-6.521212853513645
 20
2.605912517107497
 30
0.0
 10
-6.513420553961433
 20
2.608105851545029
 30
0.0
 10
-6.505436243320992
 20
2.609447895095612
 30
0.0
 10
-6.501135084704002
 20
2.610170855717
 30
0.0
  0
SPLINE
  5
142
330
1F
100
AcDbEntity
  8
0
  6
Continuous
 62
     7
370
    25
100
AcDbSpline
210
0.0
220
0.0
230
1.0
 70
     8
 71
     3
 72
     9
 73
     5
 74
     0
 42
0.00000001
 43
0.00000001
 40
0.0
 40
0.0
 40
0.0
 40
0.0
 40
0.6273904557005184
 40
1.0
 40
1.0
 40
1.0
 40
1.0
 10
-6.501135084704001
 20
2.611207600812
 30
0.0
 10
-6.506166470518997
 20
2.612036360767388
 30
0.0
 10
-6.514186015236772
 20
2.613357324368058
 30
0.0
 10
-6.521924134122322
 20
2.615819483865621
 30
0.0
 10
-6.524807431074001
 20
2.616736907994
 30
0.0
  0
SPLINE
  5
145
330
1F
100
AcDbEntity
  8
0
  6
Continuous
 62
     7
370
    25
100
AcDbSpline
210
0.0
220
0.0
230
1.0
 70
     8
 71
     3
 72
     9
 73
     5
 74
     0
 42
0.00000001
 43
0.00000001
 40
0.0
 40
0.0
 40
0.0
 40
0.0
 40
0.5772955839866291
 40
1.0
 40
1.0
 40
1.0
 40
1.0
 10
-6.795916273810001
 20
2.962750583952
 30
0.0
 10
-6.793822289841446
 20
2.934720502203206
 30
0.0
 10
-6.790195059655321
 20
2.886166377546257
 30
0.0
 10
-6.76093847050242
 20
2.847753307964035
 30
0.0
 10
-6.74857158107
 20
2.831515933819
 30
0.0
  0
SPLINE
  5
146
330
1F
100
AcDbEntity
  8
0
  6
Continuous
 62
     7
370
    25
100
AcDbSpline
210
0.0
220
0.0
230
1.0
 70
     8
 71
     3
 72
     9
 73
     5
 74
     0
 42
0.00000001
 43
0.00000001
 40
0.0
 40
0.0
 40
0.0
 40
0.0
 40
0.5405067675766371
 40
1.0
 40
1.0
 40
1.0
 40
1.0
 10
-6.74857158107
 20
2.831515933819
 30
0.0
 10
-6.728633811948427
 20
2.815162090223005
 30
0.0
 10
-6.691746634363279
 20
2.784905589144733
 30
0.0
 10
-6.644374312941495
 20
2.781916225572633
 30
0.0
 10
-6.622607051844001
 20
2.780542633242001
 30
0.0
  0
SPLINE
  5
147
330
1F
100
AcDbEntity
  8
0
  6
Continuous
 62
     7
370
    25
100
AcDbSpline
210
0.0
220
0.0
230
1.0
 70
     8
 71
     3
 72
    10
 73
     6
 74
     0
 42
0.00000001
 43
0.00000001
 40
0.0
 40
0.0
 40
0.0
 40
0.0
 40
0.297635307053216
 40
0.5731063448400217
 40
1.0
 40
1.0
 40
1.0
 40
1.0
 10
-6.622607051844
 20
2.780542633242
 30
0.0
 10
-6.609305793296607
 20
2.781265973526971
 30
0.0
 10
-6.583693792679675
 20
2.782658788481956
 30
0.0
 10
-6.540336163441706
 20
2.796935666595235
 30
0.0
 10
-6.516921509082149
 20
2.818443551669857
 30
0.0
 10
-6.502690202349001
 20
2.831515933819
 30
0.0
  0
SPLINE
  5
148
330
1F
100
AcDbEntity
  8
0
  6
Continuous
 62
     7
370
    25
100
AcDbSpline
210
0.0
220
0.0
230
1.0
 70
     8
 71
     3
 72
     9
 73
     5
 74
     0
 42
0.00000001
 43
0.00000001
 40
0.0
 40
0.0
 40
0.0
 40
0.0
 40
0.5410323343823858
 40
1.0
 40
1.0
 40
1.0
 40
1.0
 10
-6.502690202349001
 20
2.831515933819
 30
0.0
 10
-6.488317482245673
 20
2.85246066236814
 30
0.0
 10
-6.461752119715663
 20
2.891173188807154
 30
0.0
 10
-6.459137430263962
 20
2.937864818622684
 30
0.0
 10
-6.45793737235
 20
2.959294766963001
 30
0.0
  0
SPLINE
  5
14E
330
1F
100
AcDbEntity
  8
0
  6
Continuous
 62
     7
370
    25
100
AcDbSpline
210
0.0
220
0.0
230
1.0
 70
     8
 71
     3
 72
     9
 73
     5
 74
     0
 42
0.00000001
 43
0.00000001
 40
0.0
 40
0.0
 40
0.0
 40
0.0
 40
0.5912942276912886
 40
1.0
 40
1.0
 40
1.0
 40
1.0
 10
-6.75738391439
 20
2.963009770226
 30
0.0
 10
-6.756059441532766
 20
2.940994137553047
 30
0.0
 10
-6.753819485863986
 20
2.903761180351837
 30
0.0
 10
-6.731327276790365
 20
2.874493685411948
 30
0.0
 10
-6.722134581110001
 20
2.862531891289
 30
0.0
  0
SPLINE
  5
14F
330
1F
100
AcDbEntity
  8
0
  6
Continuous
 62
     7
370
    25
100
AcDbSpline
210
0.0
220
0.0
230
1.0
 70
     8
 71
     3
 72
    10
 73
     6
 74
     0
 42
0.00000001
 43
0.00000001
 40
0.0
 40
0.0
 40
0.0
 40
0.0
 40
0.2599504144602258
 40
0.5278705936111043
 40
1.0
 40
1.0
 40
1.0
 40
1.0
 10
-6.722134581110001
 20
2.862531891289
 30
0.0
 10
-6.715141061422238
 20
2.856329140863686
 30
0.0
 10
-6.700939609208069
 20
2.843733471201721
 30
0.0
 10
-6.667432671505305
 20
2.829273990785699
 30
0.0
 10
-6.64080453746688
 20
2.827530743295853
 30
0.0
 10
-6.623816587791001
 20
2.82641860376
 30
0.0
  0
SPLINE
  5
150
330
1F
100
AcDbEntity
  8
0
  6
Continuous
 62
     7
370
    25
100
AcDbSpline
210
0.0
220
0.0
230
1.0
 70
     8
 71
     3
 72
    10
 73
     6
 74
     0
 42
0.00000001
 43
0.00000001
 40
0.0
 40
0.0
 40
0.0
 40
0.0
 40
0.3149752196748428
 40
0.5946942361293464
 40
1.0
 40
1.0
 40
1.0
 40
1.0
 10
-6.623816587791001
 20
2.82641860376
 30
0.0
 10
-6.612795240327468
 20
2.826934886345462
 30
0.0
 10
-6.591986200753787
 20
2.827909662323409
 30
0.0
 10
-6.557540812369413
 20
2.837682743885044
 30
0.0
 10
-6.539363641111103
 20
2.853891860388036
 30
0.0
 10
-6.528608829762001
 20
2.863482240962
 30
0.0
  0
SPLINE
  5
151
330
1F
100
AcDbEntity
  8
0
  6
Continuous
 62
     7
370
    25
100
AcDbSpline
210
0.0
220
0.0
230
1.0
 70
     8
 71
     3
 72
     9
 73
     5
 74
     0
 42
0.00000001
 43
0.00000001
 40
0.0
 40
0.0
 40
0.0
 40
0.0
 40
0.5295151207866875
 40
0.9999999999999999
 40
0.9999999999999999
 40
0.9999999999999999
 40
0.9999999999999999
 10
-6.528608829762001
 20
2.863482240962
 30
0.0
 10
-6.518401699802952
 20
2.87925483493302
 30
0.0
 10
-6.499125328726174
 20
2.909041697199744
 30
0.0
 10
-6.497554407943631
 20
2.944391246858538
 30
0.0
 10
-6.496815313469
 20
2.96102267546
 30
0.0
  0
SPLINE
  5
164
330
1F
100
AcDbEntity
  8
0
  6
Continuous
 62
     7
370
    25
100
AcDbSpline
210
0.0
220
0.0
230
1.0
 70
     8
 71
     3
 72
     9
 73
     5
 74
     0
 42
0.00000001
 43
0.00000001
 40
0.0
 40
0.0
 40
0.0
 40
0.0
 40
0.5381947802746648
 40
1.0
 40
1.0
 40
1.0
 40
1.0
 10
-6.755483215046
 20
3.5786635667
 30
0.0
 10
-6.770287759378628
 20
3.560304135075913
 30
0.0
 10
-6.797795540715847
 20
3.526191147925205
 30
0.0
 10
-6.800410684699171
 20
3.482653861852877
 30
0.0
 10
-6.801618371841
 20
3.462548115892
 30
0.0
  0
SPLINE
  5
165
330
1F
100
AcDbEntity
  8
0
  6
Continuous
 62
     7
370
    25
100
AcDbSpline
210
0.0
220
0.0
230
1.0
 70
     8
 71
     3
 72
     9
 73
     5
 74
     0
 42
0.00000001
 43
0.00000001
 40
0.0
 40
0.0
 40
0.0
 40
0.0
 40
0.5826148560118184
 40
1.0
 40
1.0
 40
1.0
 40
1.0
 10
-6.633320084509
 20
3.622034069904
 30
0.0
 10
-6.659639300931953
 20
3.62022149248688
 30
0.0
 10
-6.70481359772747
 20
3.617110385040144
 30
0.0
 10
-6.740562256116791
 20
3.589985211262772
 30
0.0
 10
-6.755483215046
 20
3.5786635667
 30
0.0
  0
SPLINE
  5
166
330
1F
100
AcDbEntity
  8
0
  6
Continuous
 62
     7
370
    25
100
AcDbSpline
210
0.0
220
0.0
230
1.0
 70
     8
 71
     3
 72
     9
 73
     5
 74
     0
 42
0.00000001
 43
0.00000001
 40
0.0
 40
0.0
 40
0.0
 40
0.0
 40
0.5359161730663476
 40
1.0
 40
1.0
 40
1.0
 40
1.0
 10
-6.501999038952
 20
3.573220654944
 30
0.0
 10
-6.522989418160069
 20
3.588887772167078
 30
0.0
 10
-6.562156698908415
 20
3.618122040529302
 30
0.0
 10
-6.610762785726291
 20
3.620794038746024
 30
0.0
 10
-6.633320084509
 20
3.622034069904
 30
0.0
  0
SPLINE
  5
167
330
1F
100
AcDbEntity
  8
0
  6
Continuous
 62
     7
370
    25
100
AcDbSpline
210
0.0
220
0.0
230
1.0
 70
     8
 71
     3
 72
     9
 73
     5
 74
     0
 42
0.00000001
 43
0.00000001
 40
0.0
 40
0.0
 40
0.0
 40
0.0
 40
0.5681366570466635
 40
1.0
 40
1.0
 40
1.0
 40
1.0
 10
-6.452235274319
 20
3.449070429638
 30
0.0
 10
-6.4546599721709
 20
3.475623272730248
 30
0.0
 10
-6.458927779610937
 20
3.522359991375155
 30
0.0
 10
-6.489008345296923
 20
3.557880604301764
 30
0.0
 10
-6.501999038952
 20
3.573220654944
 30
0.0
  0
SPLINE
  5
168
330
1F
100
AcDbEntity
  8
0
  6
Continuous
 62
     7
370
    25
100
AcDbSpline
210
0.0
220
0.0
230
1.0
 70
     8
 71
     3
 72
     9
 73
     5
 74
     0
 42
0.00000001
 43
0.00000001
 40
0.0
 40
0.0
 40
0.0
 40
0.0
 40
0.5165920834974257
 40
1.0
 40
1.0
 40
1.0
 40
1.0
 10
-6.466058542273
 20
3.368981870932
 30
0.0
 10
-6.461638912833592
 20
3.382427865748229
 30
0.0
 10
-6.453083556333577
 20
3.408456129141654
 30
0.0
 10
-6.452511709571039
 20
3.435835179802312
 30
0.0
 10
-6.452235274319
 20
3.449070429638
 30
0.0
  0
SPLINE
  5
16A
330
1F
100
AcDbEntity
  8
0
  6
Continuous
 62
     7
370
    25
100
AcDbSpline
210
0.0
220
0.0
230
1.0
 70
     8
 71
     3
 72
     9
 73
     5
 74
     0
 42
0.00000001
 43
0.00000001
 40
0.0
 40
0.0
 40
0.0
 40
0.0
 40
0.5451723395580721
 40
1.0
 40
1.0
 40
1.0
 40
1.0
 10
-6.529127202310001
 20
3.540735975252999
 30
0.0
 10
-6.51708164441645
 20
3.526013014354533
 30
0.0
 10
-6.494986690179934
 20
3.499006947043044
 30
0.0
 10
-6.49268050486042
 20
3.464385324221586
 30
0.0
 10
-6.491631587987
 20
3.448638452513001
 30
0.0
  0
SPLINE
  5
16B
330
1F
100
AcDbEntity
  8
0
  6
Continuous
 62
     7
370
    25
100
AcDbSpline
210
0.0
220
0.0
230
1.0
 70
     8
 71
     3
 72
     9
 73
     5
 74
     0
 42
0.00000001
 43
0.00000001
 40
0.0
 40
0.0
 40
0.0
 40
0.0
 40
0.585906453143561
 40
0.9999999999999999
 40
0.9999999999999999
 40
0.9999999999999999
 40
0.9999999999999999
 10
-6.630728221766
 20
3.576244494807999
 30
0.0
 10
-6.608748597096055
 20
3.574812850558455
 30
0.0
 10
-6.571234716591722
 20
3.572369381568036
 30
0.0
 10
-6.541457680712217
 20
3.549999287039737
 30
0.0
 10
-6.529127202310002
 20
3.540735975252999
 30
0.0
  0
SPLINE
  5
16C
330
1F
100
AcDbEntity
  8
0
  6
Continuous
 62
     7
370
    25
100
AcDbSpline
210
0.0
220
0.0
230
1.0
 70
     8
 71
     3
 72
     9
 73
     5
 74
     0
 42
0.00000001
 43
0.00000001
 40
0.0
 40
0.0
 40
0.0
 40
0.0
 40
0.5710872711566606
 40
0.9999999999999999
 40
0.9999999999999999
 40
0.9999999999999999
 40
0.9999999999999999
 10
-6.762740430723001
 20
3.456241249888
 30
0.0
 10
-6.761040220475305
 20
3.475036737524394
 30
0.0
 10
-6.758063074365479
 20
3.507948498275646
 30
0.0
 10
-6.736425952657909
 20
3.532526733695791
 30
0.0
 10
-6.727145515741999
 20
3.54306865172
 30
0.0
  0
SPLINE
  5
16D
330
1F
100
AcDbEntity
  8
0
  6
Continuous
 62
     7
370
    25
100
AcDbSpline
210
0.0
220
0.0
230
1.0
 70
     8
 71
     3
 72
     9
 73
     5
 74
     0
 42
0.00000001
 43
0.00000001
 40
0.0
 40
0.0
 40
0.0
 40
0.0
 40
0.5958341655316431
 40
1.0
 40
1.0
 40
1.0
 40
1.0
 10
-6.801618371841
 20
3.462548115892
 30
0.0
 10
-6.800925254798464
 20
3.443206735747547
 30
0.0
 10
-6.799761983065102
 20
3.410745723500634
 30
0.0
 10
-6.787055671872978
 20
3.381002902856913
 30
0.0
 10
-6.781920215007
 20
3.368981870932
 30
0.0
  0
SPLINE
  5
16F
330
1F
100
AcDbEntity
  8
0
  6
Continuous
 62
     7
370
    25
100
AcDbSpline
210
0.0
220
0.0
230
1.0
 70
     8
 71
     3
 72
     9
 73
     5
 74
     0
 42
0.00000001
 43
0.00000001
 40
0.0
 40
0.0
 40
0.0
 40
0.0
 40
0.540105652105059
 40
1.0
 40
1.0
 40
1.0
 40
1.0
 10
-6.740104829447001
 20
3.368981870932
 30
0.0
 10
-6.747359208597302
 20
3.383904451475361
 30
0.0
 10
-6.760790616178444
 20
3.411533454218067
 30
0.0
 10
-6.762126202241483
 20
3.442157448162833
 30
0.0
 10
-6.762740430723
 20
3.456241249888
 30
0.0
  0
SPLINE
  5
170
330
1F
100
AcDbEntity
  8
0
  6
Continuous
 62
     7
370
    25
100
AcDbSpline
210
0.0
220
0.0
230
1.0
 70
     8
 71
     3
 72
     9
 73
     5
 74
     0
 42
0.00000001
 43
0.00000001
 40
0.0
 40
0.0
 40
0.0
 40
0.0
 40
0.5281993064768953
 40
1.0
 40
1.0
 40
1.0
 40
1.0
 10
-6.727145515741999
 20
3.54306865172
 30
0.0
 10
-6.711763105701535
 20
3.553708457246628
 30
0.0
 10
-6.682640746296967
 20
3.573852000405735
 30
0.0
 10
-6.647369309913347
 20
3.575477556374551
 30
0.0
 10
-6.630728221766
 20
3.576244494807999
 30
0.0
  0
SPLINE
  5
171
330
1F
100
AcDbEntity
  8
0
  6
Continuous
 62
     7
370
    25
100
AcDbSpline
210
0.0
220
0.0
230
1.0
 70
     8
 71
     3
 72
     9
 73
     5
 74
     0
 42
0.00000001
 43
0.00000001
 40
0.0
 40
0.0
 40
0.0
 40
0.0
 40
0.5648226129068342
 40
1.0
 40
1.0
 40
1.0
 40
1.0
 10
-6.491631587987
 20
3.448638452513001
 30
0.0
 10
-6.492611355741624
 20
3.432887700860221
 30
0.0
 10
-6.494346002570974
 20
3.405001509173029
 30
0.0
 10
-6.506420693896849
 20
3.379903818417196
 30
0.0
 10
-6.511675326518001
 20
3.368981870932001
 30
0.0
  0
SPLINE
  5
181
330
1F
100
AcDbEntity
  8
0
  6
Continuous
 62
     7
370
    25
100
AcDbSpline
210
0.0
220
0.0
230
1.0
 70
     8
 71
     3
 72
     9
 73
     5
 74
     0
 42
0.00000001
 43
0.00000001
 40
0.0
 40
0.0
 40
0.0
 40
0.0
 40
0.5004946360499974
 40
0.9999999999999999
 40
0.9999999999999999
 40
0.9999999999999999
 40
0.9999999999999999
 10
-1.702089155171
 20
6.661075489655
 30
0.0
 10
-1.701647528186481
 20
6.665076366949394
 30
0.0
 10
-1.700765147132399
 20
6.673070213448865
 30
0.0
 10
-1.69268065362551
 20
6.6740056789235
 30
0.0
 10
-1.688642405754
 20
6.67447294894587
 30
0.0
  0
SPLINE
  5
1A4
330
1F
100
AcDbEntity
  8
0
  6
Continuous
 62
     7
370
    25
100
AcDbSpline
210
0.0
220
0.0
230
1.0
 70
    24
 71
     3
 72
    10
 73
     6
 74
     0
 42
0.00000001
 43
0.00000001
 40
0.0
 40
0.0
 40
0.0
 40
0.0
 40
0.2801375814962656
 40
0.5616561968052648
 40
1.0
 40
1.0
 40
1.0
 40
1.0
 10
-1.688642405754
 20
6.674472948946
 30
0.0
 10
-1.683056818229384
 20
6.674472948946
 30
0.0
 10
-1.671858107120213
 20
6.674472948946
 30
0.0
 10
-1.642511775292635
 20
6.674472948946002
 30
0.0
 10
-1.617401090736273
 20
6.674472948946001
 30
0.0
 10
-1.602110512028
 20
6.674472948946001
 30
0.0
  0
SPLINE
  5
1A5
330
1F
100
AcDbEntity
  8
0
  6
Continuous
 62
     7
370
    25
100
AcDbSpline
210
0.0
220
0.0
230
1.0
 70
    24
 71
     3
 72
    12
 73
     8
 74
     0
 42
0.00000001
 43
0.00000001
 40
0.0
 40
0.0
 40
0.0
 40
0.0
 40
0.2550293714253555
 40
0.4938984101523481
 40
0.6143510232581918
 40
0.7358434025353711
 40
1.0
 40
1.0
 40
1.0
 40
1.0
 10
-1.702089155171
 20
6.824472948946
 30
0.0
 10
-1.700328288200349
 20
6.824472948945999
 30
0.0
 10
-1.696918134332841
 20
6.824472948945999
 30
0.0
 10
-1.678500329961673
 20
6.824472948946
 30
0.0
 10
-1.659389602407942
 20
6.824472948946001
 30
0.0
 10
-1.636023851123004
 20
6.824472948946
 30
0.0
 10
-1.615896839230473
 20
6.824472948945999
 30
0.0
 10
-1.602110512028
 20
6.824472948946
 30
0.0
  0
SPLINE
  5
1A7
330
1F
100
AcDbEntity
  8
0
  6
Continuous
 62
     7
370
    25
100
AcDbSpline
210
0.0
220
0.0
230
1.0
 70
     8
 71
     3
 72
     9
 73
     5
 74
     0
 42
0.00000001
 43
0.00000001
 40
0.0
 40
0.0
 40
0.0
 40
0.0
 40
0.7657636703812619
 40
1.0
 40
1.0
 40
1.0
 40
1.0
 10
-2.449148543895
 20
-5.958410568554001
 30
0.0
 10
-2.426669918917828
 20
-5.956565324218416
 30
0.0
 10
-2.397315398918229
 20
-5.954155645610045
 30
0.0
 10
-2.375907119937766
 20
-5.93542591293811
 30
0.0
 10
-2.370892523245929
 20
-5.931038729102297
 30
0.0
  0
SPLINE
  5
1A8
330
1F
100
AcDbEntity
  8
0
  6
Continuous
 62
     7
370
    25
100
AcDbSpline
210
0.0
220
0.0
230
1.0
 70
     8
 71
     3
 72
    10
 73
     6
 74
     0
 42
0.00000001
 43
0.00000001
 40
0.0
 40
0.0
 40
0.0
 40
0.0
 40
0.3584006807740925
 40
0.6786204343406158
 40
1.0
 40
1.0
 40
1.0
 40
1.0
 10
-2.320987852196396
 20
-5.735674967482409
 30
0.0
 10
-2.331539821147687
 20
-5.719304685238297
 30
0.0
 10
-2.351519642997932
 20
-5.688308069878124
 30
0.0
 10
-2.400387105269802
 20
-5.660931373491581
 30
0.0
 10
-2.434834381532714
 20
-5.657330661522447
 30
0.0
 10
-2.452089154647
 20
-5.655527051054
 30
0.0
  0
SPLINE
  5
1AE
330
1F
100
AcDbEntity
  8
0
  6
Continuous
 62
     7
370
    25
100
AcDbSpline
210
0.0
220
0.0
230
1.0
 70
     8
 71
     3
 72
    11
 73
     7
 74
     0
 42
0.00000001
 43
0.00000001
 40
0.0
 40
0.0
 40
0.0
 40
0.0
 40
0.2792794365629102
 40
0.5585375723502113
 40
0.7788697932902868
 40
1.0
 40
1.0
 40
1.0
 40
1.0
 10
-4.6540042849
 20
-5.655527051054
 30
0.0
 10
-4.675991316183196
 20
-5.652713332065868
 30
0.0
 10
-4.719963701788241
 20
-5.647086108693292
 30
0.0
 10
-4.769270827074659
 20
-5.607007828699203
 30
0.0
 10
-4.798747504269859
 20
-5.557547145815803
 30
0.0
 10
-4.802249912373526
 20
-5.522887965907597
 30
0.0
 10
-4.804004281895
 20
-5.505527051054
 30
0.0
  0
SPLINE
  5
1B0
330
1F
100
AcDbEntity
  8
0
  6
Continuous
 62
     7
370
    25
100
AcDbSpline
210
0.0
220
0.0
230
1.0
 70
     8
 71
     3
 72
     9
 73
     5
 74
     0
 42
0.00000001
 43
0.00000001
 40
0.0
 40
0.0
 40
0.0
 40
0.0
 40
0.5578147367454961
 40
0.9999999999999999
 40
0.9999999999999999
 40
0.9999999999999999
 40
0.9999999999999999
 10
-4.804004281895001
 20
-5.505527051054001
 30
0.0
 10
-4.801210522401075
 20
-5.482380508964863
 30
0.0
 10
-4.796202122102754
 20
-5.440885473849474
 30
0.0
 10
-4.768699073540016
 20
-5.409791561064455
 30
0.0
 10
-4.756537630771001
 20
-5.396042291054
 30
0.0
  0
SPLINE
  5
1CB
330
1F
100
AcDbEntity
  8
0
  6
Continuous
 62
     7
370
    25
100
AcDbSpline
210
0.0
220
0.0
230
1.0
 70
     8
 71
     3
 72
    15
 73
    11
 74
     0
 42
0.00000001
 43
0.00000001
 40
0.0
 40
0.0
 40
0.0
 40
0.0
 40
0.1228724353218473
 40
0.2499055057083557
 40
0.3709034636098641
 40
0.4999021662869997
 40
0.6209932793360893
 40
0.7499005389427412
 40
0.8730770130242127
 40
1.0
 40
1.0
 40
1.0
 40
1.0
 10
-0.7410791486449999
 20
-6.264018265354
 30
0.0
 10
-0.728152900247784
 20
-6.276401809889438
 30
0.0
 10
-0.7018627023351548
 20
-6.301588223355441
 30
0.0
 10
-0.6738672569634513
 20
-6.348337615775524
 30
0.0
 10
-0.6557707696545042
 20
-6.400353210807488
 30
0.0
 10
-0.649856491779672
 20
-6.454375925413516
 30
0.0
 10
-0.6554720433511827
 20
-6.509550553492197
 30
0.0
 10
-0.6732331075300098
 20
-6.56110260150858
 30
0.0
 10
-0.7010095974333641
 20
-6.609357085573501
 30
0.0
 10
-0.727589647603619
 20
-6.634351754946311
 30
0.0
 10
-0.7410787584850002
 20
-6.647036300854
 30
0.0
  0
SPLINE
  5
1D6
330
1F
100
AcDbEntity
  8
0
  6
Continuous
 62
     7
370
    25
100
AcDbSpline
210
0.0
220
0.0
230
1.0
 70
     8
 71
     3
 72
     9
 73
     5
 74
     0
 42
0.00000001
 43
0.00000001
 40
0.0
 40
0.0
 40
0.0
 40
0.0
 40
0.5595536239529645
 40
1.0
 40
1.0
 40
1.0
 40
1.0
 10
-0.575462999264
 20
-5.805527051054
 30
0.0
 10
-0.5108530086038056
 20
-5.808624519223973
 30
0.0
 10
-0.3953859865090193
 20
-5.814160124816323
 30
0.0
 10
-0.2853741472422968
 20
-5.849160431190819
 30
0.0
 10
-0.2369198313150001
 20
-5.864576189294
 30
0.0
  0
SPLINE
  5
1ED
330
1F
100
AcDbEntity
  8
0
  6
Continuous
 62
     7
370
    25
100
AcDbSpline
210
0.0
220
0.0
230
1.0
 70
    24
 71
     3
 72
    11
 73
     7
 74
     0
 42
0.00000001
 43
0.00000001
 40
0.0
 40
0.0
 40
0.0
 40
0.0
 40
0.2792794422890506
 40
0.5585375716896588
 40
0.7788697942225975
 40
1.0
 40
1.0
 40
1.0
 40
1.0
 10
3.447910842621
 20
6.674472948946
 30
0.0
 10
3.469897874618725
 20
6.674472948946001
 30
0.0
 10
3.513870260699194
 20
6.674472948946001
 30
0.0
 10
3.563177389070381
 20
6.674472948946002
 30
0.0
 10
3.59265406784735
 20
6.674472948946
 30
0.0
 10
3.596156476189892
 20
6.674472948946
 30
0.0
 10
3.597910845821
 20
6.674472948946
 30
0.0
  0
SPLINE
  5
1EE
330
1F
100
AcDbEntity
  8
0
  6
Continuous
 62
     7
370
    25
100
AcDbSpline
210
0.0
220
0.0
230
1.0
 70
    24
 71
     3
 72
    11
 73
     7
 74
     0
 42
0.00000001
 43
0.00000001
 40
0.0
 40
0.0
 40
0.0
 40
0.0
 40
0.2792794422890506
 40
0.5585375716896588
 40
0.7788697942225975
 40
1.0
 40
1.0
 40
1.0
 40
1.0
 10
3.447910842621
 20
6.824472948946
 30
0.0
 10
3.469897874618725
 20
6.824472948946
 30
0.0
 10
3.513870260699194
 20
6.824472948946
 30
0.0
 10
3.563177389070381
 20
6.824472948946002
 30
0.0
 10
3.59265406784735
 20
6.824472948946001
 30
0.0
 10
3.596156476189892
 20
6.824472948946
 30
0.0
 10
3.597910845821
 20
6.824472948946
 30
0.0
  0
SPLINE
  5
1F0
330
1F
100
AcDbEntity
  8
0
  6
Continuous
 62
     7
370
    25
100
AcDbSpline
210
0.0
220
0.0
230
1.0
 70
    24
 71
     3
 72
    11
 73
     7
 74
     0
 42
0.00000001
 43
0.00000001
 40
0.0
 40
0.0
 40
0.0
 40
0.0
 40
0.2792794172420581
 40
0.5585375591110564
 40
0.7788697787889199
 40
1.0
 40
1.0
 40
1.0
 40
1.0
 10
0.5979108498210002
 20
6.824472948946
 30
0.0
 10
0.6198978799194476
 20
6.824472948946001
 30
0.0
 10
0.6638702651548559
 20
6.824472948946001
 30
0.0
 10
0.7131773809232376
 20
6.824472948945999
 30
0.0
 10
0.742654062474341
 20
6.824472948946
 30
0.0
 10
0.7461564700843586
 20
6.824472948946001
 30
0.0
 10
0.7479108394210002
 20
6.824472948946001
 30
0.0
  0
SPLINE
  5
1F3
330
1F
100
AcDbEntity
  8
0
  6
Continuous
 62
     7
370
    25
100
AcDbSpline
210
0.0
220
0.0
230
1.0
 70
    24
 71
     3
 72
    11
 73
     7
 74
     0
 42
0.00000001
 43
0.00000001
 40
0.0
 40
0.0
 40
0.0
 40
0.0
 40
0.2792794391577179
 40
0.5585375761648229
 40
0.7788698109179895
 40
1.0
 40
1.0
 40
1.0
 40
1.0
 10
3.097910844221
 20
6.674472948946
 30
0.0
 10
3.100724562337125
 20
6.674472948946001
 30
0.0
 10
3.106351783951903
 20
6.674472948946001
 30
0.0
 10
3.146430069343511
 20
6.674472948945999
 30
0.0
 10
3.195890752911294
 20
6.674472948946002
 30
0.0
 10
3.230549933473666
 20
6.674472948946
 30
0.0
 10
3.247910847421
 20
6.674472948946
 30
0.0
  0
SPLINE
  5
1F4
330
1F
100
AcDbEntity
  8
0
  6
Continuous
 62
     7
370
    25
100
AcDbSpline
210
0.0
220
0.0
230
1.0
 70
    24
 71
     3
 72
    11
 73
     7
 74
     0
 42
0.00000001
 43
0.00000001
 40
0.0
 40
0.0
 40
0.0
 40
0.0
 40
0.2792794391577179
 40
0.5585375761648229
 40
0.7788698109179895
 40
1.0
 40
1.0
 40
1.0
 40
1.0
 10
3.097910844221
 20
6.824472948946
 30
0.0
 10
3.100724562337125
 20
6.824472948946001
 30
0.0
 10
3.106351783951903
 20
6.824472948946002
 30
0.0
 10
3.146430069343511
 20
6.824472948946
 30
0.0
 10
3.195890752911294
 20
6.824472948946001
 30
0.0
 10
3.230549933473666
 20
6.824472948946001
 30
0.0
 10
3.247910847421
 20
6.824472948946
 30
0.0
  0
SPLINE
  5
201
330
1F
100
AcDbEntity
  8
0
  6
Continuous
 62
     7
370
    25
100
AcDbSpline
210
0.0
220
0.0
230
1.0
 70
    24
 71
     3
 72
    11
 73
     7
 74
     0
 42
0.00000001
 43
0.00000001
 40
0.0
 40
0.0
 40
0.0
 40
0.0
 40
0.2792794376141685
 40
0.5585375767848795
 40
0.7788698110695995
 40
1.0
 40
1.0
 40
1.0
 40
1.0
 10
0.7479108394209998
 20
6.824472948946
 30
0.0
 10
0.7507245578672944
 20
6.824472948946
 30
0.0
 10
0.7563517801797348
 20
6.824472948945998
 30
0.0
 10
0.7964300638185696
 20
6.824472948946001
 30
0.0
 10
0.845890749050168
 20
6.824472948945998
 30
0.0
 10
0.8805499289786834
 20
6.824472948946
 30
0.0
 10
0.897910842621
 20
6.824472948946
 30
0.0
  0
SPLINE
  5
203
330
1F
100
AcDbEntity
  8
0
  6
Continuous
 62
     7
370
    25
100
AcDbSpline
210
0.0
220
0.0
230
1.0
 70
    24
 71
     3
 72
    11
 73
     7
 74
     0
 42
0.00000001
 43
0.00000001
 40
0.0
 40
0.0
 40
0.0
 40
0.0
 40
0.279279444888904
 40
0.5585375779491976
 40
0.7788697972453447
 40
1.0
 40
1.0
 40
1.0
 40
1.0
 10
2.947910841021001
 20
6.674472948946
 30
0.0
 10
2.969897873243059
 20
6.674472948946
 30
0.0
 10
3.013870259855629
 20
6.674472948946001
 30
0.0
 10
3.063177387841611
 20
6.674472948946
 30
0.0
 10
3.092654066405435
 20
6.674472948945998
 30
0.0
 10
3.096156474642056
 20
6.674472948946
 30
0.0
 10
3.097910844221
 20
6.674472948946
 30
0.0
  0
SPLINE
  5
204
330
1F
100
AcDbEntity
  8
0
  6
Continuous
 62
     7
370
    25
100
AcDbSpline
210
0.0
220
0.0
230
1.0
 70
    24
 71
     3
 72
    11
 73
     7
 74
     0
 42
0.00000001
 43
0.00000001
 40
0.0
 40
0.0
 40
0.0
 40
0.0
 40
0.279279444888904
 40
0.5585375779491976
 40
0.7788697972453447
 40
1.0
 40
1.0
 40
1.0
 40
1.0
 10
2.947910841021001
 20
6.824472948946
 30
0.0
 10
2.969897873243059
 20
6.824472948946
 30
0.0
 10
3.013870259855629
 20
6.824472948946
 30
0.0
 10
3.063177387841611
 20
6.824472948946001
 30
0.0
 10
3.092654066405435
 20
6.824472948945999
 30
0.0
 10
3.096156474642056
 20
6.824472948946
 30
0.0
 10
3.097910844221
 20
6.824472948946
 30
0.0
  0
LWPOLYLINE
  5
20A
330
1F
100
AcDbEntity
  8
0
  6
Continuous
 62
     7
370
    25
100
AcDbPolyline
 90
        3
 70
   128
 43
0.0
 10
3.9979108458
 20
6.8744729489
 10
3.9979108457
 20
6.8354548845
 10
3.9979108294
 20
6.8244729489
  0
SPLINE
  5
218
330
1F
100
AcDbEntity
  8
0
  6
Continuous
 62
     7
370
    25
100
AcDbSpline
210
0.0
220
0.0
230
1.0
 70
     8
 71
     3
 72
    11
 73
     7
 74
     0
 42
0.00000001
 43
0.00000001
 40
0.0
 40
0.0
 40
0.0
 40
0.0
 40
0.2792794383592827
 40
0.5585375710117022
 40
0.7788697921377458
 40
0.9999999999999999
 40
0.9999999999999999
 40
0.9999999999999999
 40
0.9999999999999999
 10
-4.452089154179
 20
7.474472948946001
 30
0.0
 10
-4.430102122192893
 20
7.471659230843215
 30
0.0
 10
-4.386129735570294
 20
7.466032009290941
 30
0.0
 10
-4.336822610341613
 20
7.425953727577282
 30
0.0
 10
-4.307345932077129
 20
7.376493044713576
 30
0.0
 10
-4.30384352379413
 20
7.341833864160475
 30
0.0
 10
-4.302089154179001
 20
7.324472948946
 30
0.0
  0
SPLINE
  5
219
330
1F
100
AcDbEntity
  8
0
  6
Continuous
 62
     7
370
    25
100
AcDbSpline
210
0.0
220
0.0
230
1.0
 70
     8
 71
     3
 72
    11
 73
     7
 74
     0
 42
0.00000001
 43
0.00000001
 40
0.0
 40
0.0
 40
0.0
 40
0.0
 40
0.279279439029032
 40
0.5585375691111688
 40
0.7788697904742953
 40
1.0
 40
1.0
 40
1.0
 40
1.0
 10
-5.902089154179
 20
7.324472948946
 30
0.0
 10
-5.899275435771297
 20
7.346459980891009
 30
0.0
 10
-5.893648213641854
 20
7.390432367176342
 30
0.0
 10
-5.853569933082054
 20
7.439739492873373
 30
0.0
 10
-5.804109250284536
 20
7.469216171455986
 30
0.0
 10
-5.769450069543481
 20
7.472718579463314
 30
0.0
 10
-5.752089154179
 20
7.474472948946001
 30
0.0
  0
SPLINE
  5
21C
330
1F
100
AcDbEntity
  8
0
  6
Continuous
 62
     7
370
    25
100
AcDbSpline
210
0.0
220
0.0
230
1.0
 70
     8
 71
     3
 72
    11
 73
     7
 74
     0
 42
0.00000001
 43
0.00000001
 40
0.0
 40
0.0
 40
0.0
 40
0.0
 40
0.2792794390286783
 40
0.5585375691112158
 40
0.7788697904728744
 40
1.0
 40
1.0
 40
1.0
 40
1.0
 10
-4.302089154179001
 20
-8.375527051054
 30
0.0
 10
-4.304902872586601
 20
-8.39751408299903
 30
0.0
 10
-4.310530094715842
 20
-8.44148646928446
 30
0.0
 10
-4.350608375275925
 20
-8.490793594981167
 30
0.0
 10
-4.400069058073266
 20
-8.520270273564137
 30
0.0
 10
-4.434728238814378
 20
-8.523772681571353
 30
0.0
 10
-4.452089154179
 20
-8.525527051053999
 30
0.0
  0
SPLINE
  5
21E
330
1F
100
AcDbEntity
  8
0
  6
Continuous
 62
     7
370
    25
100
AcDbSpline
210
0.0
220
0.0
230
1.0
 70
     8
 71
     3
 72
    11
 73
     7
 74
     0
 42
0.00000001
 43
0.00000001
 40
0.0
 40
0.0
 40
0.0
 40
0.0
 40
0.2792794383584497
 40
0.5585375710116337
 40
0.7788697921377126
 40
0.9999999999999999
 40
0.9999999999999999
 40
0.9999999999999999
 40
0.9999999999999999
 10
-5.752089154179
 20
-8.525527051053999
 30
0.0
 10
-5.774076186165022
 20
-8.522713332951186
 30
0.0
 10
-5.818048572787577
 20
-8.517086111398843
 30
0.0
 10
-5.86735569801638
 20
-8.477007829685354
 30
0.0
 10
-5.896832376280864
 20
-8.42754714682157
 30
0.0
 10
-5.900334784563868
 20
-8.392887966268475
 30
0.0
 10
-5.902089154179
 20
-8.375527051054
 30
0.0
  0
SPLINE
  5
221
330
1F
100
AcDbEntity
  8
0
  6
Continuous
 62
     7
370
    25
100
AcDbSpline
210
0.0
220
0.0
230
1.0
 70
     8
 71
     3
 72
    11
 73
     7
 74
     0
 42
0.00000001
 43
0.00000001
 40
0.0
 40
0.0
 40
0.0
 40
0.0
 40
0.2792794407374029
 40
0.5585375769293565
 40
0.7788697906821528
 40
1.0
 40
1.0
 40
1.0
 40
1.0
 10
4.897910845820999
 20
-7.475527051054
 30
0.0
 10
4.895097127474298
 20
-7.497514083187202
 30
0.0
 10
4.889469905422514
 20
-7.541486470195435
 30
0.0
 10
4.84939162325924
 20
-7.590793594521448
 30
0.0
 10
4.799930941397279
 20
-7.620270273921452
 30
0.0
 10
4.765271761202824
 20
-7.623772681671007
 30
0.0
 10
4.747910845820999
 20
-7.625527051053999
 30
0.0
  0
SPLINE
  5
222
330
1F
100
AcDbEntity
  8
0
  6
Continuous
 62
     7
370
    25
100
AcDbSpline
210
0.0
220
0.0
230
1.0
 70
     8
 71
     3
 72
    11
 73
     7
 74
     0
 42
0.00000001
 43
0.00000001
 40
0.0
 40
0.0
 40
0.0
 40
0.0
 40
0.2792794392641618
 40
0.5585375769366305
 40
0.7788697945750704
 40
1.0
 40
1.0
 40
1.0
 40
1.0
 10
4.247910845821
 20
-7.625527051053999
 30
0.0
 10
4.225923813742738
 20
-7.622713332975345
 30
0.0
 10
4.18195142661185
 20
-7.617086111429872
 30
0.0
 10
4.132644302176128
 20
-7.577007828511779
 30
0.0
 10
4.103167623530901
 20
-7.52754714617921
 30
0.0
 10
4.099665215376115
 20
-7.492887966081846
 30
0.0
 10
4.097910845821
 20
-7.475527051054
 30
0.0
  0
SPLINE
  5
226
330
1F
100
AcDbEntity
  8
0
  6
Continuous
 62
     7
370
    25
100
AcDbSpline
210
0.0
220
0.0
230
1.0
 70
     8
 71
     3
 72
    11
 73
     7
 74
     0
 42
0.00000001
 43
0.00000001
 40
0.0
 40
0.0
 40
0.0
 40
0.0
 40
0.2792794407374564
 40
0.5585375769294594
 40
0.7788697906836479
 40
1.0
 40
1.0
 40
1.0
 40
1.0
 10
3.997910845821
 20
7.324472948946
 30
0.0
 10
4.000724564167704
 20
7.346459981079199
 30
0.0
 10
4.006351786219497
 20
7.390432368087421
 30
0.0
 10
4.046430068382796
 20
7.439739492413595
 30
0.0
 10
4.095890750244909
 20
7.469216171813311
 30
0.0
 10
4.130549930439313
 20
7.47271857956297
 30
0.0
 10
4.147910845820999
 20
7.474472948946001
 30
0.0
  0
SPLINE
  5
228
330
1F
100
AcDbEntity
  8
0
  6
Continuous
 62
     7
370
    25
100
AcDbSpline
210
0.0
220
0.0
230
1.0
 70
     8
 71
     3
 72
    11
 73
     7
 74
     0
 42
0.00000001
 43
0.00000001
 40
0.0
 40
0.0
 40
0.0
 40
0.0
 40
0.2792794392647983
 40
0.5585375769363213
 40
0.7788697945739872
 40
1.0
 40
1.0
 40
1.0
 40
1.0
 10
4.647910845821
 20
7.474472948946001
 30
0.0
 10
4.669897877899368
 20
7.471659230867383
 30
0.0
 10
4.713870265030341
 20
7.466032009322002
 30
0.0
 10
4.763177389465618
 20
7.425953726403617
 30
0.0
 10
4.79265406811177
 20
7.37649304407155
 30
0.0
 10
4.796156476266104
 20
7.341833863974007
 30
0.0
 10
4.797910845821
 20
7.324472948946
 30
0.0
  0
LINE
  5
27B
330
1F
100
AcDbEntity
  8
0
  6
Continuous
 62
     7
370
    25
100
AcDbLine
 10
4.9479108458
 20
-2.5755270522
 30
0.0
 11
4.9479108458
 21
5.2308086329
 31
0.0
  0
LINE
  5
27C
330
1F
100
AcDbEntity
  8
0
  6
Continuous
 62
     7
370
    25
100
AcDbLine
 10
4.9979108396
 20
5.2244729427
 30
0.0
 11
5.1479108458
 21
5.2244729489
 31
0.0
  0
LINE
  5
27D
330
1F
100
AcDbEntity
  8
0
  6
Continuous
 62
     7
370
    25
100
AcDbLine
 10
5.1479108458
 20
5.2244729489
 30
0.0
 11
5.1479108458
 21
-2.5755270522
 31
0.0
  0
LINE
  5
27E
330
1F
100
AcDbEntity
  8
0
  6
Continuous
 62
     7
370
    25
100
AcDbLine
 10
5.1479108458
 20
-2.5755270522
 30
0.0
 11
4.8979108455
 21
-2.5755270522
 31
0.0
  0
LINE
  5
27F
330
1F
100
AcDbEntity
  8
0
  6
Continuous
 62
     7
370
    25
100
AcDbLine
 10
4.980985304
 20
5.2251880028
 30
0.0
 11
4.9979108396
 21
5.2244729427
 31
0.0
  0
LINE
  5
280
330
1F
100
AcDbEntity
  8
0
  6
Continuous
 62
     7
370
    25
100
AcDbLine
 10
4.9588884954
 20
5.2283037264
 30
0.0
 11
4.980985304
 21
5.2251880028
 31
0.0
  0
LINE
  5
281
330
1F
100
AcDbEntity
  8
0
  6
Continuous
 62
     7
370
    25
100
AcDbLine
 10
4.9479108464
 20
5.2308086329
 30
0.0
 11
4.9588884954
 21
5.2283037264
 31
0.0
  0
LINE
  5
282
330
1F
100
AcDbEntity
  8
0
  6
Continuous
 62
     7
370
    25
100
AcDbLine
 10
5.3979108458
 20
-2.9755270476
 30
0.0
 11
4.8979108455
 21
-2.9755270476
 31
0.0
  0
LINE
  5
283
330
1F
100
AcDbEntity
  8
0
  6
Continuous
 62
     7
370
    25
100
AcDbLine
 10
5.3979108458
 20
-4.5755270574
 30
0.0
 11
5.3979108458
 21
-2.9755270476
 31
0.0
  0
LINE
  5
284
330
1F
100
AcDbEntity
  8
0
  6
Continuous
 62
     7
370
    25
100
AcDbLine
 10
5.3979108458
 20
-4.7755270551
 30
0.0
 11
5.6979108458
 21
-4.7755270511
 31
0.0
  0
LINE
  5
285
330
1F
100
AcDbEntity
  8
0
  6
Continuous
 62
     7
370
    25
100
AcDbLine
 10
5.4979108389
 20
-6.7855270749
 30
0.0
 11
5.4979108389
 21
-3.8055270784
 31
0.0
  0
LINE
  5
286
330
1F
100
AcDbEntity
  8
0
  6
Continuous
 62
     7
370
    25
100
AcDbLine
 10
5.6979108458
 20
-6.3755270511
 30
0.0
 11
5.2979108517
 21
-6.3755270511
 31
0.0
  0
LINE
  5
287
330
1F
100
AcDbEntity
  8
0
  6
Continuous
 62
     7
370
    25
100
AcDbLine
 10
5.0979108458
 20
-6.9755270511
 30
0.0
 11
5.0979108471
 21
-6.5755270472
 31
0.0
  0
LINE
  5
288
330
1F
100
AcDbEntity
  8
0
  6
Continuous
 62
     7
370
    25
100
AcDbLine
 10
3.8979108449
 20
-6.9755270511
 30
0.0
 11
5.0979108458
 21
-6.9755270511
 31
0.0
  0
LINE
  5
289
330
1F
100
AcDbEntity
  8
0
  6
Continuous
 62
     7
370
    25
100
AcDbLine
 10
3.8979108449
 20
-6.7755270462
 30
0.0
 11
3.8979108449
 21
-6.9755270511
 31
0.0
  0
LINE
  5
28A
330
1F
100
AcDbEntity
  8
0
  6
Continuous
 62
     7
370
    25
100
AcDbLine
 10
3.4979108458
 20
-7.8755270511
 30
0.0
 11
3.4979108458
 21
-6.7755270462
 31
0.0
  0
LINE
  5
28B
330
1F
100
AcDbEntity
  8
0
  6
Continuous
 62
     7
370
    25
100
AcDbLine
 10
0.7479108445
 20
-7.6755270511
 30
0.0
 11
3.4979108378
 21
-7.6755270511
 31
0.0
  0
LINE
  5
28C
330
1F
100
AcDbEntity
  8
0
  6
Continuous
 62
     7
370
    25
100
AcDbLine
 10
0.7479108445
 20
-5.6755270518
 30
0.0
 11
0.7479108445
 21
-7.8755270511
 31
0.0
  0
LINE
  5
28D
330
1F
100
AcDbEntity
  8
0
  6
Continuous
 62
     7
370
    25
100
AcDbLine
 10
-5.9769303084
 20
-5.3755270482
 30
0.0
 11
0.4479108473
 21
-5.3755270482
 31
0.0
  0
LINE
  5
28E
330
1F
100
AcDbEntity
  8
0
  6
Continuous
 62
     7
370
    25
100
AcDbLine
 10
-2.5100547198
 20
-6.0105270483
 30
0.0
 11
-5.9888870816
 21
-5.8255270536
 31
0.0
  0
LINE
  5
28F
330
1F
100
AcDbEntity
  8
0
  6
Continuous
 62
     7
370
    25
100
AcDbLine
 10
-2.3520891514
 20
-5.8255270536
 30
0.0
 11
-2.3520891514
 21
-5.8607387016
 31
0.0
  0
LINE
  5
290
330
1F
100
AcDbEntity
  8
0
  6
Continuous
 62
     7
370
    25
100
AcDbLine
 10
-1.7520891569
 20
-5.6755270518
 30
0.0
 11
-2.2020891528
 21
-5.6755270518
 31
0.0
  0
LINE
  5
291
330
1F
100
AcDbEntity
  8
0
  6
Continuous
 62
     7
370
    25
100
AcDbLine
 10
-1.6020891583
 20
-7.0255270538
 30
0.0
 11
-1.6020891583
 21
-5.8255270536
 31
0.0
  0
LINE
  5
292
330
1F
100
AcDbEntity
  8
0
  6
Continuous
 62
     7
370
    25
100
AcDbLine
 10
-2.2020891529
 20
-7.1755270555
 30
0.0
 11
-1.752089157
 21
-7.1755270555
 31
0.0
  0
LINE
  5
293
330
1F
100
AcDbEntity
  8
0
  6
Continuous
 62
     7
370
    25
100
AcDbLine
 10
-2.3520891516
 20
-6.9903154056
 30
0.0
 11
-2.3520891516
 21
-7.0255270539
 31
0.0
  0
LINE
  5
294
330
1F
100
AcDbEntity
  8
0
  6
Continuous
 62
     7
370
    25
100
AcDbLine
 10
-5.9888870811
 20
-7.0255270534
 30
0.0
 11
-2.5100547198
 21
-6.8405270446
 31
0.0
  0
LINE
  5
295
330
1F
100
AcDbEntity
  8
0
  6
Continuous
 62
     7
370
    25
100
AcDbLine
 10
-6.2020891542
 20
-7.8755270511
 30
0.0
 11
-6.2020891542
 21
-7.250368206
 31
0.0
  0
LINE
  5
296
330
1F
100
AcDbEntity
  8
0
  6
Continuous
 62
     7
370
    25
100
AcDbLine
 10
-9.5020891542
 20
-7.6755270511
 30
0.0
 11
-6.2020891555
 21
-7.6755270511
 31
0.0
  0
LINE
  5
297
330
1F
100
AcDbEntity
  8
0
  6
Continuous
 62
     7
370
    25
100
AcDbLine
 10
-9.5020891542
 20
-5.9438312565
 30
0.0
 11
-9.5020891542
 21
-7.8755270511
 31
0.0
  0
LINE
  5
298
330
1F
100
AcDbEntity
  8
0
  6
Continuous
 62
     7
370
    25
100
AcDbLine
 10
-8.8020891542
 20
6.8244729489
 30
0.0
 11
-8.8020891508
 21
0.4989942051
 31
0.0
  0
LINE
  5
299
330
1F
100
AcDbEntity
  8
0
  6
Continuous
 62
     7
370
    25
100
AcDbLine
 10
-1.7020891554
 20
6.6244729489
 30
0.0
 11
-8.8020891508
 21
6.6244729489
 31
0.0
  0
LINE
  5
29A
330
1F
100
AcDbEntity
  8
0
  6
Continuous
 62
     7
370
    25
100
AcDbLine
 10
-1.7020891525
 20
6.1661291757
 30
0.0
 11
-1.7020891554
 21
6.8244729489
 31
0.0
  0
LINE
  5
29B
330
1F
100
AcDbEntity
  8
0
  6
Continuous
 62
     7
370
    25
100
AcDbLine
 10
1.9979108527
 20
5.9661291638
 30
0.0
 11
-1.5020891495
 21
5.9661291638
 31
0.0
  0
LINE
  5
29C
330
1F
100
AcDbEntity
  8
0
  6
Continuous
 62
     7
370
    25
100
AcDbLine
 10
2.1979108412
 20
5.5144729443
 30
0.0
 11
2.1979108412
 21
5.7661291664
 31
0.0
  0
LINE
  5
29D
330
1F
100
AcDbEntity
  8
0
  6
Continuous
 62
     7
370
    25
100
AcDbLine
 10
3.3979108446
 20
5.314472946
 30
0.0
 11
2.3979108437
 21
5.314472946
 31
0.0
  0
LINE
  5
29E
330
1F
100
AcDbEntity
  8
0
  6
Continuous
 62
     7
370
    25
100
AcDbLine
 10
3.5979108458
 20
6.8244729489
 30
0.0
 11
3.5979108465
 21
5.514472945
 31
0.0
  0
LINE
  5
29F
330
1F
100
AcDbEntity
  8
0
  6
Continuous
 62
     7
370
    25
100
AcDbLine
 10
4.7979108514
 20
6.6244729489
 30
0.0
 11
3.5979108478
 21
6.6244729489
 31
0.0
  0
LINE
  5
2A0
330
1F
100
AcDbEntity
  8
0
  6
Continuous
 62
     7
370
    25
100
AcDbLine
 10
4.7979108514
 20
6.424472943
 30
0.0
 11
4.7979108458
 21
7.3244729489
 31
0.0
  0
LINE
  5
2A1
330
1F
100
AcDbEntity
  8
0
  6
Continuous
 62
     7
370
    25
100
AcDbLine
 10
4.9979108389
 20
5.2244729489
 30
0.0
 11
4.9979108458
 21
6.6544729489
 31
0.0
  0
LINE
  5
2A2
330
1F
100
AcDbEntity
  8
0
  6
Continuous
 62
     7
370
    25
100
AcDbLine
 10
-7.2515565645
 20
4.862250758
 30
0.0
 11
-7.2275266103
 21
4.862250758
 31
0.0
  0
LINE
  5
2A3
330
1F
100
AcDbEntity
  8
0
  6
Continuous
 62
     7
370
    25
100
AcDbLine
 10
-7.2275266103
 20
4.862250758
 30
0.0
 11
-7.0497049581
 21
4.5258313988
 31
0.0
  0
LINE
  5
2A4
330
1F
100
AcDbEntity
  8
0
  6
Continuous
 62
     7
370
    25
100
AcDbLine
 10
-7.0497049581
 20
4.5258313988
 30
0.0
 11
-6.9223461732
 21
4.6003242202
 31
0.0
  0
LINE
  5
2A5
330
1F
100
AcDbEntity
  8
0
  6
Continuous
 62
     7
370
    25
100
AcDbLine
 10
-6.9223461732
 20
4.6003242202
 30
0.0
 11
-7.0905558528
 21
4.9223255978
 31
0.0
  0
LINE
  5
2A6
330
1F
100
AcDbEntity
  8
0
  6
Continuous
 62
     7
370
    25
100
AcDbLine
 10
-7.3332584456
 20
4.5402493346
 30
0.0
 11
-7.3332584456
 21
4.3984726596
 31
0.0
  0
LINE
  5
2A7
330
1F
100
AcDbEntity
  8
0
  6
Continuous
 62
     7
370
    25
100
AcDbLine
 10
-6.811808512
 20
4.4465325681
 30
0.0
 11
-6.811808512
 21
4.4273086231
 31
0.0
  0
LINE
  5
2A8
330
1F
100
AcDbEntity
  8
0
  6
Continuous
 62
     7
370
    25
100
AcDbLine
 10
-7.1866757614
 20
4.4128906872
 30
0.0
 11
-7.1866757614
 21
4.5210254812
 31
0.0
  0
LINE
  5
2A9
330
1F
100
AcDbEntity
  8
0
  6
Continuous
 62
     7
370
    25
100
AcDbLine
 10
-7.3320862796
 20
2.0344317455
 30
0.0
 11
-6.9941073781
 21
2.1631609283
 31
0.0
  0
LINE
  5
2AA
330
1F
100
AcDbEntity
  8
0
  6
Continuous
 62
     7
370
    25
100
AcDbLine
 10
-6.9941073781
 20
2.1631609283
 30
0.0
 11
-6.9941073781
 21
2.2098144576
 31
0.0
  0
LINE
  5
2AB
330
1F
100
AcDbEntity
  8
0
  6
Continuous
 62
     7
370
    25
100
AcDbLine
 10
-6.9941073781
 20
2.2098144576
 30
0.0
 11
-7.3320862796
 21
2.3385436404
 31
0.0
  0
LINE
  5
2AC
330
1F
100
AcDbEntity
  8
0
  6
Continuous
 62
     7
370
    25
100
AcDbLine
 10
-7.3320862796
 20
2.3385436404
 30
0.0
 11
-7.3320862796
 21
2.2903349934
 31
0.0
  0
LINE
  5
2AD
330
1F
100
AcDbEntity
  8
0
  6
Continuous
 62
     7
370
    25
100
AcDbLine
 10
-7.3320862796
 20
2.2903349934
 30
0.0
 11
-7.2396431751
 21
2.2578503138
 31
0.0
  0
LINE
  5
2AE
330
1F
100
AcDbEntity
  8
0
  6
Continuous
 62
     7
370
    25
100
AcDbLine
 10
-7.2396431751
 20
2.2578503138
 30
0.0
 11
-7.2396431751
 21
2.1171121669
 31
0.0
  0
LINE
  5
2AF
330
1F
100
AcDbEntity
  8
0
  6
Continuous
 62
     7
370
    25
100
AcDbLine
 10
-7.2396431751
 20
2.1171121669
 30
0.0
 11
-7.3320862796
 21
2.0826403924
 31
0.0
  0
LINE
  5
2B0
330
1F
100
AcDbEntity
  8
0
  6
Continuous
 62
     7
370
    25
100
AcDbLine
 10
-7.3320862796
 20
2.0826403924
 30
0.0
 11
-7.3320862796
 21
2.0344317455
 31
0.0
  0
LINE
  5
2B1
330
1F
100
AcDbEntity
  8
0
  6
Continuous
 62
     7
370
    25
100
AcDbLine
 10
-7.2014563974
 20
2.2440270458
 30
0.0
 11
-7.2014563974
 21
2.1305898532
 31
0.0
  0
LINE
  5
2B2
330
1F
100
AcDbEntity
  8
0
  6
Continuous
 62
     7
370
    25
100
AcDbLine
 10
-7.2014563974
 20
2.1305898532
 30
0.0
 11
-7.0609774368
 21
2.1816495492
 31
0.0
  0
LINE
  5
2B3
330
1F
100
AcDbEntity
  8
0
  6
Continuous
 62
     7
370
    25
100
AcDbLine
 10
-7.0373050904
 20
2.1869196701
 30
0.0
 11
-7.0373050904
 21
2.1879564152
 31
0.0
  0
LINE
  5
2B4
330
1F
100
AcDbEntity
  8
0
  6
Continuous
 62
     7
370
    25
100
AcDbLine
 10
-7.0609774368
 20
2.1934857223
 30
0.0
 11
-7.2014563974
 21
2.2440270458
 31
0.0
  0
LINE
  5
2B5
330
1F
100
AcDbEntity
  8
0
  6
Continuous
 62
     7
370
    25
100
AcDbLine
 10
-6.9941073781
 20
2.5360435813
 30
0.0
 11
-6.9941073781
 21
2.6324608753
 31
0.0
  0
LINE
  5
2B6
330
1F
100
AcDbEntity
  8
0
  6
Continuous
 62
     7
370
    25
100
AcDbLine
 10
-7.3320862796
 20
2.6324608753
 30
0.0
 11
-7.3320862796
 21
2.5394993983
 31
0.0
  0
LINE
  5
2B7
330
1F
100
AcDbEntity
  8
0
  6
Continuous
 62
     7
370
    25
100
AcDbLine
 10
-6.9941073781
 20
2.6324608753
 30
0.0
 11
-7.3320862796
 21
2.6324608753
 31
0.0
  0
LINE
  5
2B8
330
1F
100
AcDbEntity
  8
0
  6
Continuous
 62
     7
370
    25
100
AcDbLine
 10
-7.0329853192
 20
2.5377714898
 30
0.0
 11
-7.0329853192
 21
2.5888311858
 31
0.0
  0
LINE
  5
2B9
330
1F
100
AcDbEntity
  8
0
  6
Continuous
 62
     7
370
    25
100
AcDbLine
 10
-7.0329853192
 20
2.5888311858
 30
0.0
 11
-7.2935539201
 21
2.5888311858
 31
0.0
  0
LINE
  5
2BA
330
1F
100
AcDbEntity
  8
0
  6
Continuous
 62
     7
370
    25
100
AcDbLine
 10
-7.2935539201
 20
2.5888311858
 30
0.0
 11
-7.2935539201
 21
2.5397585846
 31
0.0
  0
LINE
  5
2BB
330
1F
100
AcDbEntity
  8
0
  6
Continuous
 62
     7
370
    25
100
AcDbLine
 10
-7.3320862796
 20
2.8780830677
 30
0.0
 11
-7.3320862796
 21
2.6963070941
 31
0.0
  0
LINE
  5
2BC
330
1F
100
AcDbEntity
  8
0
  6
Continuous
 62
     7
370
    25
100
AcDbLine
 10
-6.9941073781
 20
2.8780830677
 30
0.0
 11
-7.3320862796
 21
2.8780830677
 31
0.0
  0
LINE
  5
2BD
330
1F
100
AcDbEntity
  8
0
  6
Continuous
 62
     7
370
    25
100
AcDbLine
 10
-6.9941073781
 20
2.7039962869
 30
0.0
 11
-6.9941073781
 21
2.8780830677
 31
0.0
  0
LINE
  5
2BE
330
1F
100
AcDbEntity
  8
0
  6
Continuous
 62
     7
370
    25
100
AcDbLine
 10
-7.0329853192
 20
2.7039962869
 30
0.0
 11
-6.9941073781
 21
2.7039962869
 31
0.0
  0
LINE
  5
2BF
330
1F
100
AcDbEntity
  8
0
  6
Continuous
 62
     7
370
    25
100
AcDbLine
 10
-7.0329853192
 20
2.8344533783
 30
0.0
 11
-7.0329853192
 21
2.7039962869
 31
0.0
  0
LINE
  5
2C0
330
1F
100
AcDbEntity
  8
0
  6
Continuous
 62
     7
370
    25
100
AcDbLine
 10
-7.1411523909
 20
2.8344533783
 30
0.0
 11
-7.0329853192
 21
2.8344533783
 31
0.0
  0
LINE
  5
2C1
330
1F
100
AcDbEntity
  8
0
  6
Continuous
 62
     7
370
    25
100
AcDbLine
 10
-7.1411523909
 20
2.7135861791
 30
0.0
 11
-7.1411523909
 21
2.8344533783
 31
0.0
  0
LINE
  5
2C2
330
1F
100
AcDbEntity
  8
0
  6
Continuous
 62
     7
370
    25
100
AcDbLine
 10
-7.1798575412
 20
2.7135861791
 30
0.0
 11
-7.1411523909
 21
2.7135861791
 31
0.0
  0
LINE
  5
2C3
330
1F
100
AcDbEntity
  8
0
  6
Continuous
 62
     7
370
    25
100
AcDbLine
 10
-7.1798575412
 20
2.8344533783
 30
0.0
 11
-7.1798575412
 21
2.7135861791
 31
0.0
  0
LINE
  5
2C4
330
1F
100
AcDbEntity
  8
0
  6
Continuous
 62
     7
370
    25
100
AcDbLine
 10
-7.2935539201
 20
2.8344533783
 30
0.0
 11
-7.1798575412
 21
2.8344533783
 31
0.0
  0
LINE
  5
2C5
330
1F
100
AcDbEntity
  8
0
  6
Continuous
 62
     7
370
    25
100
AcDbLine
 10
-7.2935539201
 20
2.6963070941
 30
0.0
 11
-7.2935539201
 21
2.8344533783
 31
0.0
  0
LINE
  5
2C6
330
1F
100
AcDbEntity
  8
0
  6
Continuous
 62
     7
370
    25
100
AcDbLine
 10
-7.3320862796
 20
2.6963070941
 30
0.0
 11
-7.2935539201
 21
2.6963070941
 31
0.0
  0
LINE
  5
2C7
330
1F
100
AcDbEntity
  8
0
  6
Continuous
 62
     7
370
    25
100
AcDbLine
 10
-7.3685451488
 20
3.0332492505
 30
0.0
 11
-7.0906974629
 21
2.923699852
 31
0.0
  0
LINE
  5
2C8
330
1F
100
AcDbEntity
  8
0
  6
Continuous
 62
     7
370
    25
100
AcDbLine
 10
-7.4046584363
 20
3.1466864432
 30
0.0
 11
-7.4423268415
 21
3.1466864432
 31
0.0
  0
LINE
  5
2C9
330
1F
100
AcDbEntity
  8
0
  6
Continuous
 62
     7
370
    25
100
AcDbLine
 10
-7.331567907
 20
3.0607229956
 30
0.0
 11
-7.3754567828
 21
3.0792980119
 31
0.0
  0
LINE
  5
2CA
330
1F
100
AcDbEntity
  8
0
  6
Continuous
 62
     7
370
    25
100
AcDbLine
 10
-7.0906974629
 20
3.1554123811
 30
0.0
 11
-7.331567907
 21
3.0607229956
 31
0.0
  0
LINE
  5
2CB
330
1F
100
AcDbEntity
  8
0
  6
Continuous
 62
     7
370
    25
100
AcDbLine
 10
-7.0906974629
 20
3.1080676883
 30
0.0
 11
-7.0906974629
 21
3.1554123811
 31
0.0
  0
LINE
  5
2CC
330
1F
100
AcDbEntity
  8
0
  6
Continuous
 62
     7
370
    25
100
AcDbLine
 10
-7.2721278548
 20
3.0449990283
 30
0.0
 11
-7.0906974629
 21
3.1080676883
 31
0.0
  0
LINE
  5
2CD
330
1F
100
AcDbEntity
  8
0
  6
Continuous
 62
     7
370
    25
100
AcDbLine
 10
-7.2919988025
 20
3.0398153028
 30
0.0
 11
-7.2721278548
 21
3.0449990283
 31
0.0
  0
LINE
  5
2CE
330
1F
100
AcDbEntity
  8
0
  6
Continuous
 62
     7
370
    25
100
AcDbLine
 10
-7.2919988025
 20
3.0386921623
 30
0.0
 11
-7.2919988025
 21
3.0398153028
 31
0.0
  0
LINE
  5
2CF
330
1F
100
AcDbEntity
  8
0
  6
Continuous
 62
     7
370
    25
100
AcDbLine
 10
-7.0906974629
 20
2.9675887277
 30
0.0
 11
-7.2724734365
 21
3.0335084368
 31
0.0
  0
LINE
  5
2D0
330
1F
100
AcDbEntity
  8
0
  6
Continuous
 62
     7
370
    25
100
AcDbLine
 10
-7.0906974629
 20
2.923699852
 30
0.0
 11
-7.0906974629
 21
2.9675887277
 31
0.0
  0
LINE
  5
2D1
330
1F
100
AcDbEntity
  8
0
  6
Continuous
 62
     7
370
    25
100
AcDbLine
 10
-7.1370054106
 20
3.1890202013
 30
0.0
 11
-7.0958811884
 21
3.1890202013
 31
0.0
  0
LINE
  5
2D2
330
1F
100
AcDbEntity
  8
0
  6
Continuous
 62
     7
370
    25
100
AcDbLine
 10
-7.279903443
 20
3.3404713808
 30
0.0
 11
-7.3236195279
 21
3.3404713808
 31
0.0
  0
LINE
  5
2D3
330
1F
100
AcDbEntity
  8
0
  6
Continuous
 62
     7
370
    25
100
AcDbLine
 10
-7.1076309662
 20
3.5682097203
 30
0.0
 11
-7.1487551883
 21
3.5682097203
 31
0.0
  0
LINE
  5
2D4
330
1F
100
AcDbEntity
  8
0
  6
Continuous
 62
     7
370
    25
100
AcDbLine
 10
-7.1786480053
 20
3.4401717009
 30
0.0
 11
-7.1886698745
 21
3.5117071126
 31
0.0
  0
LINE
  5
2D5
330
1F
100
AcDbEntity
  8
0
  6
Continuous
 62
     7
370
    25
100
AcDbLine
 10
-7.2947634561
 20
3.4412948414
 30
0.0
 11
-7.2947634561
 21
3.4401717009
 31
0.0
  0
LINE
  5
2D6
330
1F
100
AcDbEntity
  8
0
  6
Continuous
 62
     7
370
    25
100
AcDbLine
 10
-7.2947634561
 20
3.4401717009
 30
0.0
 11
-7.3320862796
 21
3.4401717009
 31
0.0
  0
LINE
  5
2D7
330
1F
100
AcDbEntity
  8
0
  6
Continuous
 62
     7
370
    25
100
AcDbLine
 10
-7.3320862796
 20
3.4401717009
 30
0.0
 11
-7.3320862796
 21
3.3978379428
 31
0.0
  0
LINE
  5
2D8
330
1F
100
AcDbEntity
  8
0
  6
Continuous
 62
     7
370
    25
100
AcDbLine
 10
-7.3320862796
 20
3.3978379428
 30
0.0
 11
-7.1767473059
 21
3.3978379428
 31
0.0
  0
LINE
  5
2D9
330
1F
100
AcDbEntity
  8
0
  6
Continuous
 62
     7
370
    25
100
AcDbLine
 10
-7.2341138679
 20
3.4401717009
 30
0.0
 11
-7.2109598941
 21
3.4401717009
 31
0.0
  0
LINE
  5
2DA
330
1F
100
AcDbEntity
  8
0
  6
Continuous
 62
     7
370
    25
100
AcDbLine
 10
-7.2109598941
 20
3.4401717009
 30
0.0
 11
-7.2185626915
 21
3.4966743087
 31
0.0
  0
LINE
  5
2DB
330
1F
100
AcDbEntity
  8
0
  6
Continuous
 62
     7
370
    25
100
AcDbLine
 10
-7.3320862796
 20
3.814091099
 30
0.0
 11
-7.3320862796
 21
3.6323151254
 31
0.0
  0
LINE
  5
2DC
330
1F
100
AcDbEntity
  8
0
  6
Continuous
 62
     7
370
    25
100
AcDbLine
 10
-6.9941073781
 20
3.814091099
 30
0.0
 11
-7.3320862796
 21
3.814091099
 31
0.0
  0
LINE
  5
2DD
330
1F
100
AcDbEntity
  8
0
  6
Continuous
 62
     7
370
    25
100
AcDbLine
 10
-6.9941073781
 20
3.6400043182
 30
0.0
 11
-6.9941073781
 21
3.814091099
 31
0.0
  0
LINE
  5
2DE
330
1F
100
AcDbEntity
  8
0
  6
Continuous
 62
     7
370
    25
100
AcDbLine
 10
-7.0329853192
 20
3.6400043182
 30
0.0
 11
-6.9941073781
 21
3.6400043182
 31
0.0
  0
LINE
  5
2DF
330
1F
100
AcDbEntity
  8
0
  6
Continuous
 62
     7
370
    25
100
AcDbLine
 10
-7.0329853192
 20
3.7704614096
 30
0.0
 11
-7.0329853192
 21
3.6400043182
 31
0.0
  0
LINE
  5
2E0
330
1F
100
AcDbEntity
  8
0
  6
Continuous
 62
     7
370
    25
100
AcDbLine
 10
-7.1411523909
 20
3.7704614096
 30
0.0
 11
-7.0329853192
 21
3.7704614096
 31
0.0
  0
LINE
  5
2E1
330
1F
100
AcDbEntity
  8
0
  6
Continuous
 62
     7
370
    25
100
AcDbLine
 10
-7.1411523909
 20
3.6495942104
 30
0.0
 11
-7.1411523909
 21
3.7704614096
 31
0.0
  0
LINE
  5
2E2
330
1F
100
AcDbEntity
  8
0
  6
Continuous
 62
     7
370
    25
100
AcDbLine
 10
-7.1798575412
 20
3.6495942104
 30
0.0
 11
-7.1411523909
 21
3.6495942104
 31
0.0
  0
LINE
  5
2E3
330
1F
100
AcDbEntity
  8
0
  6
Continuous
 62
     7
370
    25
100
AcDbLine
 10
-7.1798575412
 20
3.7704614096
 30
0.0
 11
-7.1798575412
 21
3.6495942104
 31
0.0
  0
LINE
  5
2E4
330
1F
100
AcDbEntity
  8
0
  6
Continuous
 62
     7
370
    25
100
AcDbLine
 10
-7.2935539201
 20
3.7704614096
 30
0.0
 11
-7.1798575412
 21
3.7704614096
 31
0.0
  0
LINE
  5
2E5
330
1F
100
AcDbEntity
  8
0
  6
Continuous
 62
     7
370
    25
100
AcDbLine
 10
-7.2935539201
 20
3.6323151254
 30
0.0
 11
-7.2935539201
 21
3.7704614096
 31
0.0
  0
LINE
  5
2E6
330
1F
100
AcDbEntity
  8
0
  6
Continuous
 62
     7
370
    25
100
AcDbLine
 10
-7.3320862796
 20
3.6323151254
 30
0.0
 11
-7.2935539201
 21
3.6323151254
 31
0.0
  0
LINE
  5
2E7
330
1F
100
AcDbEntity
  8
0
  6
Continuous
 62
     7
370
    25
100
AcDbLine
 10
-6.7959162738
 20
2.4576829311
 30
0.0
 11
-6.4579373723
 21
2.5864121139
 31
0.0
  0
LINE
  5
2E8
330
1F
100
AcDbEntity
  8
0
  6
Continuous
 62
     7
370
    25
100
AcDbLine
 10
-6.4579373723
 20
2.5864121139
 30
0.0
 11
-6.4579373723
 21
2.6330656433
 31
0.0
  0
LINE
  5
2E9
330
1F
100
AcDbEntity
  8
0
  6
Continuous
 62
     7
370
    25
100
AcDbLine
 10
-6.4579373723
 20
2.6330656433
 30
0.0
 11
-6.7959162738
 21
2.7617948261
 31
0.0
  0
LINE
  5
2EA
330
1F
100
AcDbEntity
  8
0
  6
Continuous
 62
     7
370
    25
100
AcDbLine
 10
-6.7959162738
 20
2.7617948261
 30
0.0
 11
-6.7959162738
 21
2.7135861791
 31
0.0
  0
LINE
  5
2EB
330
1F
100
AcDbEntity
  8
0
  6
Continuous
 62
     7
370
    25
100
AcDbLine
 10
-6.7959162738
 20
2.7135861791
 30
0.0
 11
-6.7034731694
 21
2.6811014994
 31
0.0
  0
LINE
  5
2EC
330
1F
100
AcDbEntity
  8
0
  6
Continuous
 62
     7
370
    25
100
AcDbLine
 10
-6.7034731694
 20
2.6811014994
 30
0.0
 11
-6.7034731694
 21
2.5403633526
 31
0.0
  0
LINE
  5
2ED
330
1F
100
AcDbEntity
  8
0
  6
Continuous
 62
     7
370
    25
100
AcDbLine
 10
-6.7034731694
 20
2.5403633526
 30
0.0
 11
-6.7959162738
 21
2.5058915781
 31
0.0
  0
LINE
  5
2EE
330
1F
100
AcDbEntity
  8
0
  6
Continuous
 62
     7
370
    25
100
AcDbLine
 10
-6.7959162738
 20
2.5058915781
 30
0.0
 11
-6.7959162738
 21
2.4576829311
 31
0.0
  0
LINE
  5
2EF
330
1F
100
AcDbEntity
  8
0
  6
Continuous
 62
     7
370
    25
100
AcDbLine
 10
-6.6652863917
 20
2.6672782314
 30
0.0
 11
-6.6652863917
 21
2.5538410388
 31
0.0
  0
LINE
  5
2F0
330
1F
100
AcDbEntity
  8
0
  6
Continuous
 62
     7
370
    25
100
AcDbLine
 10
-6.6652863917
 20
2.5538410388
 30
0.0
 11
-6.5248074311
 21
2.6049007348
 31
0.0
  0
LINE
  5
2F1
330
1F
100
AcDbEntity
  8
0
  6
Continuous
 62
     7
370
    25
100
AcDbLine
 10
-6.5011350847
 20
2.6101708557
 30
0.0
 11
-6.5011350847
 21
2.6112076008
 31
0.0
  0
LINE
  5
2F2
330
1F
100
AcDbEntity
  8
0
  6
Continuous
 62
     7
370
    25
100
AcDbLine
 10
-6.5248074311
 20
2.616736908
 30
0.0
 11
-6.6652863917
 21
2.6672782314
 31
0.0
  0
LINE
  5
2F3
330
1F
100
AcDbEntity
  8
0
  6
Continuous
 62
     7
370
    25
100
AcDbLine
 10
-6.7959162738
 20
3.0557120609
 30
0.0
 11
-6.7959162738
 21
2.962750584
 31
0.0
  0
LINE
  5
2F4
330
1F
100
AcDbEntity
  8
0
  6
Continuous
 62
     7
370
    25
100
AcDbLine
 10
-6.4579373723
 20
2.959294767
 30
0.0
 11
-6.4579373723
 21
3.0557120609
 31
0.0
  0
LINE
  5
2F5
330
1F
100
AcDbEntity
  8
0
  6
Continuous
 62
     7
370
    25
100
AcDbLine
 10
-6.4579373723
 20
3.0557120609
 30
0.0
 11
-6.7959162738
 21
3.0557120609
 31
0.0
  0
LINE
  5
2F6
330
1F
100
AcDbEntity
  8
0
  6
Continuous
 62
     7
370
    25
100
AcDbLine
 10
-6.4968153135
 20
2.9610226755
 30
0.0
 11
-6.4968153135
 21
3.0120823715
 31
0.0
  0
LINE
  5
2F7
330
1F
100
AcDbEntity
  8
0
  6
Continuous
 62
     7
370
    25
100
AcDbLine
 10
-6.4968153135
 20
3.0120823715
 30
0.0
 11
-6.7573839144
 21
3.0120823715
 31
0.0
  0
LINE
  5
2F8
330
1F
100
AcDbEntity
  8
0
  6
Continuous
 62
     7
370
    25
100
AcDbLine
 10
-6.7573839144
 20
3.0120823715
 30
0.0
 11
-6.7573839144
 21
2.9630097702
 31
0.0
  0
LINE
  5
2F9
330
1F
100
AcDbEntity
  8
0
  6
Continuous
 62
     7
370
    25
100
AcDbLine
 10
-6.7959162738
 20
3.3013342534
 30
0.0
 11
-6.7959162738
 21
3.1195582798
 31
0.0
  0
LINE
  5
2FA
330
1F
100
AcDbEntity
  8
0
  6
Continuous
 62
     7
370
    25
100
AcDbLine
 10
-6.4579373723
 20
3.3013342534
 30
0.0
 11
-6.7959162738
 21
3.3013342534
 31
0.0
  0
LINE
  5
2FB
330
1F
100
AcDbEntity
  8
0
  6
Continuous
 62
     7
370
    25
100
AcDbLine
 10
-6.4579373723
 20
3.1272474726
 30
0.0
 11
-6.4579373723
 21
3.3013342534
 31
0.0
  0
LINE
  5
2FC
330
1F
100
AcDbEntity
  8
0
  6
Continuous
 62
     7
370
    25
100
AcDbLine
 10
-6.4968153135
 20
3.2577045639
 30
0.0
 11
-6.4968153135
 21
3.1272474726
 31
0.0
  0
LINE
  5
2FD
330
1F
100
AcDbEntity
  8
0
  6
Continuous
 62
     7
370
    25
100
AcDbLine
 10
-6.6436875355
 20
3.1368373647
 30
0.0
 11
-6.6049823852
 21
3.1368373647
 31
0.0
  0
LINE
  5
2FE
330
1F
100
AcDbEntity
  8
0
  6
Continuous
 62
     7
370
    25
100
AcDbLine
 10
-6.7573839144
 20
3.2577045639
 30
0.0
 11
-6.6436875355
 21
3.2577045639
 31
0.0
  0
LINE
  5
2FF
330
1F
100
AcDbEntity
  8
0
  6
Continuous
 62
     7
370
    25
100
AcDbLine
 10
-6.7573839144
 20
3.1195582798
 30
0.0
 11
-6.7573839144
 21
3.2577045639
 31
0.0
  0
LINE
  5
300
330
1F
100
AcDbEntity
  8
0
  6
Continuous
 62
     7
370
    25
100
AcDbLine
 10
-6.7959162738
 20
3.1195582798
 30
0.0
 11
-6.7573839144
 21
3.1195582798
 31
0.0
  0
LINE
  5
301
330
1F
100
AcDbEntity
  8
0
  6
Continuous
 62
     7
370
    25
100
AcDbLine
 10
-6.6049823852
 20
3.1368373647
 30
0.0
 11
-6.6049823852
 21
3.2577045639
 31
0.0
  0
LINE
  5
302
330
1F
100
AcDbEntity
  8
0
  6
Continuous
 62
     7
370
    25
100
AcDbLine
 10
-6.6049823852
 20
3.2577045639
 30
0.0
 11
-6.4968153135
 21
3.2577045639
 31
0.0
  0
LINE
  5
303
330
1F
100
AcDbEntity
  8
0
  6
Continuous
 62
     7
370
    25
100
AcDbLine
 10
-6.6436875355
 20
3.2577045639
 30
0.0
 11
-6.6436875355
 21
3.1368373647
 31
0.0
  0
LINE
  5
304
330
1F
100
AcDbEntity
  8
0
  6
Continuous
 62
     7
370
    25
100
AcDbLine
 10
-6.4968153135
 20
3.1272474726
 30
0.0
 11
-6.4579373723
 21
3.1272474726
 31
0.0
  0
LINE
  5
305
330
1F
100
AcDbEntity
  8
0
  6
Continuous
 62
     7
370
    25
100
AcDbLine
 10
-6.7959162738
 20
3.814091099
 30
0.0
 11
-6.7959162738
 21
3.6358573379
 31
0.0
  0
LINE
  5
306
330
1F
100
AcDbEntity
  8
0
  6
Continuous
 62
     7
370
    25
100
AcDbLine
 10
-6.4579373723
 20
3.814091099
 30
0.0
 11
-6.7959162738
 21
3.814091099
 31
0.0
  0
LINE
  5
307
330
1F
100
AcDbEntity
  8
0
  6
Continuous
 62
     7
370
    25
100
AcDbLine
 10
-6.4579373723
 20
3.7704614096
 30
0.0
 11
-6.4579373723
 21
3.814091099
 31
0.0
  0
LINE
  5
308
330
1F
100
AcDbEntity
  8
0
  6
Continuous
 62
     7
370
    25
100
AcDbLine
 10
-6.7573839144
 20
3.7704614096
 30
0.0
 11
-6.4579373723
 21
3.7704614096
 31
0.0
  0
LINE
  5
309
330
1F
100
AcDbEntity
  8
0
  6
Continuous
 62
     7
370
    25
100
AcDbLine
 10
-6.7573839144
 20
3.6358573379
 30
0.0
 11
-6.7573839144
 21
3.7704614096
 31
0.0
  0
LINE
  5
30A
330
1F
100
AcDbEntity
  8
0
  6
Continuous
 62
     7
370
    25
100
AcDbLine
 10
-6.7959162738
 20
3.6358573379
 30
0.0
 11
-6.7573839144
 21
3.6358573379
 31
0.0
  0
LINE
  5
30B
330
1F
100
AcDbEntity
  8
0
  6
Continuous
 62
     7
370
    25
100
AcDbLine
 10
-6.5116753265
 20
3.3689818709
 30
0.0
 11
-6.4660585423
 21
3.3689818709
 31
0.0
  0
LINE
  5
30C
330
1F
100
AcDbEntity
  8
0
  6
Continuous
 62
     7
370
    25
100
AcDbLine
 10
-6.781920215
 20
3.3689818709
 30
0.0
 11
-6.7401048294
 21
3.3689818709
 31
0.0
  0
LINE
  5
30D
330
1F
100
AcDbEntity
  8
0
  6
Continuous
 62
     7
370
    25
100
AcDbLine
 10
-8.8020891542
 20
6.8244729489
 30
0.0
 11
-1.7020891552
 21
6.8244729489
 31
0.0
  0
LINE
  5
30E
330
1F
100
AcDbEntity
  8
0
  6
Continuous
 62
     7
370
    25
100
AcDbLine
 10
5.6979108458
 20
-4.7755270511
 30
0.0
 11
5.6979108458
 21
-6.3755270511
 31
0.0
  0
LINE
  5
30F
330
1F
100
AcDbEntity
  8
0
  6
Continuous
 62
     7
370
    25
100
AcDbLine
 10
3.5979108458
 20
6.8244729489
 30
0.0
 11
4.7979108514
 21
6.8244729489
 31
0.0
  0
LINE
  5
310
330
1F
100
AcDbEntity
  8
0
  6
Continuous
 62
     7
370
    25
100
AcDbLine
 10
3.4979108458
 20
-7.8755270511
 30
0.0
 11
-9.5020891542
 21
-7.8755270511
 31
0.0
  0
LINE
  5
311
330
1F
100
AcDbEntity
  8
0
  6
Continuous
 62
     7
370
    25
100
AcDbLine
 10
4.8479108389
 20
-2.9691913578
 30
0.0
 11
4.8479108389
 21
-2.5818311562
 31
0.0
  0
LINE
  5
312
330
1F
100
AcDbEntity
  8
0
  6
Continuous
 62
     7
370
    25
100
AcDbLine
 10
5.3479108389
 20
-4.7621477204
 30
0.0
 11
5.3479108389
 21
-4.5889230881
 31
0.0
  0
LINE
  5
313
330
1F
100
AcDbEntity
  8
0
  6
Continuous
 62
     7
370
    25
100
AcDbLine
 10
3.8479108389
 20
-7.705527069
 30
0.0
 11
3.4979108376
 21
-7.705527069
 31
0.0
  0
LINE
  5
314
330
1F
100
AcDbEntity
  8
0
  6
Continuous
 62
     7
370
    25
100
AcDbLine
 10
0.7479108445
 20
-7.705527069
 30
0.0
 11
-6.2020891556
 21
-7.705527069
 31
0.0
  0
LINE
  5
315
330
1F
100
AcDbEntity
  8
0
  6
Continuous
 62
     7
370
    25
100
AcDbLine
 10
-6.2020891553
 20
-7.555527069
 30
0.0
 11
0.7479108445
 21
-7.555527069
 31
0.0
  0
LINE
  5
316
330
1F
100
AcDbEntity
  8
0
  6
Continuous
 62
     7
370
    25
100
AcDbLine
 10
3.4979108382
 20
-7.555527069
 30
0.0
 11
3.6979108389
 21
-7.555527069
 31
0.0
  0
LINE
  5
317
330
1F
100
AcDbEntity
  8
0
  6
Continuous
 62
     7
370
    25
100
AcDbLine
 10
3.8479108389
 20
-7.705527069
 30
0.0
 11
3.6979108389
 21
-7.555527069
 31
0.0
  0
LINE
  5
318
330
1F
100
AcDbEntity
  8
0
  6
Continuous
 62
     7
370
    25
100
AcDbLine
 10
5.0979108492
 20
-6.6355270749
 30
0.0
 11
5.3479108389
 21
-6.6355270749
 31
0.0
  0
LINE
  5
319
330
1F
100
AcDbEntity
  8
0
  6
Continuous
 62
     7
370
    25
100
AcDbLine
 10
5.3479108389
 20
-6.6355270749
 30
0.0
 11
5.3479108389
 21
-6.3755270511
 31
0.0
  0
LINE
  5
31A
330
1F
100
AcDbEntity
  8
0
  6
Continuous
 62
     7
370
    25
100
AcDbLine
 10
5.4979108389
 20
-6.7855270749
 30
0.0
 11
5.0979108464
 21
-6.7855270749
 31
0.0
  0
LINE
  5
31B
330
1F
100
AcDbEntity
  8
0
  6
Continuous
 62
     7
370
    25
100
AcDbLine
 10
3.8979108449
 20
-6.7855270749
 30
0.0
 11
3.8479108389
 21
-6.7855270749
 31
0.0
  0
LINE
  5
31C
330
1F
100
AcDbEntity
  8
0
  6
Continuous
 62
     7
370
    25
100
AcDbLine
 10
3.8479108389
 20
-6.7855270749
 30
0.0
 11
3.6979108389
 21
-6.6355270749
 31
0.0
  0
LINE
  5
31D
330
1F
100
AcDbEntity
  8
0
  6
Continuous
 62
     7
370
    25
100
AcDbLine
 10
3.6979108389
 20
-6.6355270749
 30
0.0
 11
3.8407296276
 21
-6.6355270749
 31
0.0
  0
LINE
  5
31E
330
1F
100
AcDbEntity
  8
0
  6
Continuous
 62
     7
370
    25
100
AcDbLine
 10
5.4979108389
 20
-6.7855270749
 30
0.0
 11
5.3479108389
 21
-6.6355270749
 31
0.0
  0
LINE
  5
31F
330
1F
100
AcDbEntity
  8
0
  6
Continuous
 62
     7
370
    25
100
AcDbLine
 10
4.8479108389
 20
5.2921862279
 30
0.0
 11
4.8479108389
 21
5.5568013083
 31
0.0
  0
LINE
  5
320
330
1F
100
AcDbEntity
  8
0
  6
Continuous
 62
     7
370
    25
100
AcDbLine
 10
-1.5020891542
 20
6.5044729489
 30
0.0
 11
-1.7020891554
 21
6.5044729489
 31
0.0
  0
LINE
  5
321
330
1F
100
AcDbEntity
  8
0
  6
Continuous
 62
     7
370
    25
100
AcDbLine
 10
-1.5020891542
 20
5.974472949
 30
0.0
 11
-1.5020891542
 21
6.6544729489
 31
0.0
  0
LINE
  5
322
330
1F
100
AcDbEntity
  8
0
  6
Continuous
 62
     7
370
    25
100
AcDbLine
 10
3.8479108389
 20
-6.7855270749
 30
0.0
 11
3.8479108389
 21
-7.705527069
 31
0.0
  0
LINE
  5
323
330
1F
100
AcDbEntity
  8
0
  6
Continuous
 62
     7
370
    25
100
AcDbLine
 10
3.6979108389
 20
-7.555527069
 30
0.0
 11
3.6979108389
 21
-6.6355270749
 31
0.0
  0
LINE
  5
324
330
1F
100
AcDbEntity
  8
0
  6
Continuous
 62
     7
370
    25
100
AcDbLine
 10
4.8479108389
 20
6.2921862355
 30
0.0
 11
4.8479108389
 21
6.5044729489
 31
0.0
  0
LINE
  5
325
330
1F
100
AcDbEntity
  8
0
  6
Continuous
 62
     7
370
    25
100
AcDbLine
 10
4.8479108389
 20
6.5044729489
 30
0.0
 11
4.7979108514
 21
6.5044729489
 31
0.0
  0
LINE
  5
326
330
1F
100
AcDbEntity
  8
0
  6
Continuous
 62
     7
370
    25
100
AcDbLine
 10
0.7479108445
 20
-7.3055270423
 30
0.0
 11
-6.2020891561
 21
-7.3055270423
 31
0.0
  0
LINE
  5
327
330
1F
100
AcDbEntity
  8
0
  6
Continuous
 62
     7
370
    25
100
AcDbLine
 10
4.7979108514
 20
6.6544729489
 30
0.0
 11
4.9979108458
 21
6.6544729489
 31
0.0
  0
LINE
  5
328
330
1F
100
AcDbEntity
  8
0
  6
Continuous
 62
     7
370
    25
100
AcDbLine
 10
4.9979108458
 20
6.6544729489
 30
0.0
 11
4.8479108389
 21
6.5044729489
 31
0.0
  0
LINE
  5
329
330
1F
100
AcDbEntity
  8
0
  6
Continuous
 62
     7
370
    25
100
AcDbLine
 10
5.3979108458
 20
-3.8055270784
 30
0.0
 11
5.4979108389
 21
-3.8055270784
 31
0.0
  0
LINE
  5
32A
330
1F
100
AcDbEntity
  8
0
  6
Continuous
 62
     7
370
    25
100
AcDbLine
 10
5.4979108389
 20
-3.8055270784
 30
0.0
 11
5.3979108458
 21
-3.9055270715
 31
0.0
  0
LINE
  5
32B
330
1F
100
AcDbEntity
  8
0
  6
Continuous
 62
     7
370
    25
100
AcDbLine
 10
-0.3665385436
 20
6.6544729489
 30
0.0
 11
-1.7020891554
 21
6.6544729193
 31
0.0
  0
LINE
  5
32C
330
1F
100
AcDbEntity
  8
0
  6
Continuous
 62
     7
370
    25
100
AcDbLine
 10
4.9979108458
 20
-2.5755270511
 30
0.0
 11
4.9979108452
 21
-2.9755270476
 31
0.0
  0
LINE
  5
32D
330
1F
100
AcDbEntity
  8
0
  6
Continuous
 62
     7
370
    25
100
AcDbLine
 10
-1.602110512
 20
6.6744729489
 30
0.0
 11
-1.602110512
 21
6.8244729489
 31
0.0
  0
LINE
  5
32E
330
1F
100
AcDbEntity
  8
0
  6
Continuous
 62
     7
370
    25
100
AcDbLine
 10
0.3979108458
 20
-5.8055270511
 30
0.0
 11
-1.6065789135
 21
-5.8055270511
 31
0.0
  0
LINE
  5
32F
330
1F
100
AcDbEntity
  8
0
  6
Continuous
 62
     7
370
    25
100
AcDbLine
 10
0.3979108458
 20
-5.3755270482
 30
0.0
 11
0.3979108458
 21
-5.8055270511
 31
0.0
  0
LINE
  5
330
330
1F
100
AcDbEntity
  8
0
  6
Continuous
 62
     7
370
    25
100
AcDbLine
 10
-2.4520891546
 20
-5.6555270511
 30
0.0
 11
-4.6540042849
 21
-5.6555270511
 31
0.0
  0
LINE
  5
331
330
1F
100
AcDbEntity
  8
0
  6
Continuous
 62
     7
370
    25
100
AcDbLine
 10
-3.2096647888
 20
-5.9733226516
 30
0.0
 11
-2.4491485439
 21
-5.9584105686
 31
0.0
  0
LINE
  5
332
330
1F
100
AcDbEntity
  8
0
  6
Continuous
 62
     7
370
    25
100
AcDbLine
 10
-4.7565376308
 20
-5.3960422911
 30
0.0
 11
-4.7346315238
 21
-5.3755270482
 31
0.0
  0
LINE
  5
333
330
1F
100
AcDbEntity
  8
0
  6
Continuous
 62
     7
370
    25
100
AcDbLine
 10
-2.0517741012
 20
-7.1755270555
 30
0.0
 11
-2.0517741012
 21
-7.3055270423
 31
0.0
  0
LINE
  5
334
330
1F
100
AcDbEntity
  8
0
  6
Continuous
 62
     7
370
    25
100
AcDbLine
 10
-2.9120891656
 20
-7.3055270423
 30
0.0
 11
-3.4428704024
 21
-6.8901330306
 31
0.0
  0
LINE
  5
335
330
1F
100
AcDbEntity
  8
0
  6
Continuous
 62
     7
370
    25
100
AcDbLine
 10
1.9376052883
 20
6.3870703035
 30
0.0
 11
2.1181373411
 21
6.1865691467
 31
0.0
  0
LINE
  5
336
330
1F
100
AcDbEntity
  8
0
  6
Continuous
 62
     7
370
    25
100
AcDbLine
 10
-0.7442387614
 20
6.6742673785
 30
0.0
 11
1.5922008537
 21
6.5518197675
 31
0.0
  0
LINE
  5
337
330
1F
100
AcDbEntity
  8
0
  6
Continuous
 62
     7
370
    25
100
AcDbLine
 10
-0.7520891518
 20
6.6744729489
 30
0.0
 11
-0.7442387614
 21
6.6742673785
 31
0.0
  0
LINE
  5
338
330
1F
100
AcDbEntity
  8
0
  6
Continuous
 62
     7
370
    25
100
AcDbLine
 10
-0.7363883674
 20
6.8240618086
 30
0.0
 11
-0.7520891518
 21
6.8244729489
 31
0.0
  0
LINE
  5
339
330
1F
100
AcDbEntity
  8
0
  6
Continuous
 62
     7
370
    25
100
AcDbLine
 10
1.600051247
 20
6.7016141976
 30
0.0
 11
-0.7363883674
 21
6.8240618086
 31
0.0
  0
LINE
  5
33A
330
1F
100
AcDbEntity
  8
0
  6
Continuous
 62
     7
370
    25
100
AcDbLine
 10
2.2296090651
 20
6.2869387376
 30
0.0
 11
2.0490770117
 21
6.4874398948
 31
0.0
  0
LINE
  5
33B
330
1F
100
AcDbEntity
  8
0
  6
Continuous
 62
     7
370
    25
100
AcDbLine
 10
3.1440335251
 20
6.0923681985
 30
0.0
 11
2.5750134994
 21
6.1221892741
 31
0.0
  0
LINE
  5
33C
330
1F
100
AcDbEntity
  8
0
  6
Continuous
 62
     7
370
    25
100
AcDbLine
 10
2.9863887019
 20
5.9504241619
 30
0.0
 11
2.9942390949
 21
6.100218592
 31
0.0
  0
LINE
  5
33D
330
1F
100
AcDbEntity
  8
0
  6
Continuous
 62
     7
370
    25
100
AcDbLine
 10
2.5671631064
 20
5.9723948438
 30
0.0
 11
3.1361831321
 21
5.9425737684
 31
0.0
  0
LINE
  5
33E
330
1F
100
AcDbEntity
  8
0
  6
Continuous
 62
     7
370
    25
100
AcDbLine
 10
-1.602110512
 20
6.6744729489
 30
0.0
 11
-0.7520891518
 21
6.6744729489
 31
0.0
  0
LINE
  5
33F
330
1F
100
AcDbEntity
  8
0
  6
Continuous
 62
     7
370
    25
100
AcDbLine
 10
-1.602110512
 20
6.8244729489
 30
0.0
 11
0.5979108498
 21
6.8244729489
 31
0.0
  0
LINE
  5
340
330
1F
100
AcDbEntity
  8
0
  6
Continuous
 62
     7
370
    25
100
AcDbLine
 10
0.7479108458
 20
-7.7255270511
 30
0.0
 11
-6.2020891542
 21
-7.7255270511
 31
0.0
  0
LINE
  5
341
330
1F
100
AcDbEntity
  8
0
  6
Continuous
 62
     7
370
    25
100
AcDbLine
 10
3.1440335251
 20
6.0923681985
 30
0.0
 11
3.1361831321
 21
5.9425737684
 31
0.0
  0
LINE
  5
342
330
1F
100
AcDbEntity
  8
0
  6
Continuous
 62
     7
370
    25
100
AcDbLine
 10
-0.4620891535
 20
-6.1555270511
 30
0.0
 11
-0.8703692212
 21
-6.1555270511
 31
0.0
  0
LINE
  5
343
330
1F
100
AcDbEntity
  8
0
  6
Continuous
 62
     7
370
    25
100
AcDbLine
 10
0.7479108445
 20
-6.5908709662
 30
0.0
 11
-0.4620891535
 21
-6.1555270511
 31
0.0
  0
LINE
  5
344
330
1F
100
AcDbEntity
  8
0
  6
Continuous
 62
     7
370
    25
100
AcDbLine
 10
0.249710894
 20
-6.7340536037
 30
0.0
 11
0.7479108445
 21
-6.6289645513
 31
0.0
  0
LINE
  5
345
330
1F
100
AcDbEntity
  8
0
  6
Continuous
 62
     7
370
    25
100
AcDbLine
 10
-0.8703692212
 20
-6.7555270511
 30
0.0
 11
0.0438706702
 21
-6.7555270511
 31
0.0
  0
LINE
  5
346
330
1F
100
AcDbEntity
  8
0
  6
Continuous
 62
     7
370
    25
100
AcDbLine
 10
-0.7410787585
 20
-6.6470363009
 30
0.0
 11
-0.8703692212
 21
-6.7555270511
 31
0.0
  0
LINE
  5
347
330
1F
100
AcDbEntity
  8
0
  6
Continuous
 62
     7
370
    25
100
AcDbLine
 10
-0.8703692212
 20
-6.1555270511
 30
0.0
 11
-0.7410791486
 21
-6.2640182654
 31
0.0
  0
LINE
  5
348
330
1F
100
AcDbEntity
  8
0
  6
Continuous
 62
     7
370
    25
100
AcDbLine
 10
-1.0259416039
 20
-6.1555270508
 30
0.0
 11
-1.4348832722
 21
-5.8055270511
 31
0.0
  0
LINE
  5
349
330
1F
100
AcDbEntity
  8
0
  6
Continuous
 62
     7
370
    25
100
AcDbLine
 10
-0.9405472942
 20
-6.2271813848
 30
0.0
 11
-1.0259416039
 21
-6.1555270508
 31
0.0
  0
LINE
  5
34A
330
1F
100
AcDbEntity
  8
0
  6
Continuous
 62
     7
370
    25
100
AcDbLine
 10
-1.5707599972
 20
-6.7555270511
 30
0.0
 11
-0.9405472942
 21
-6.2271813848
 31
0.0
  0
LINE
  5
34B
330
1F
100
AcDbEntity
  8
0
  6
Continuous
 62
     7
370
    25
100
AcDbLine
 10
-1.6020891583
 20
-6.7555270511
 30
0.0
 11
-1.5707599972
 21
-6.7555270511
 31
0.0
  0
LINE
  5
34C
330
1F
100
AcDbEntity
  8
0
  6
Continuous
 62
     7
370
    25
100
AcDbLine
 10
0.7479108445
 20
-5.7855270511
 30
0.0
 11
0.3979108458
 21
-5.7855270511
 31
0.0
  0
LINE
  5
34D
330
1F
100
AcDbEntity
  8
0
  6
Continuous
 62
     7
370
    25
100
AcDbLine
 10
0.0923212883
 20
-7.1055270516
 30
0.0
 11
-1.6275973399
 21
-7.1055270516
 31
0.0
  0
LINE
  5
34E
330
1F
100
AcDbEntity
  8
0
  6
Continuous
 62
     7
370
    25
100
AcDbLine
 10
0.7479108445
 20
-6.9891846036
 30
0.0
 11
0.2981615026
 21
-7.0840536053
 31
0.0
  0
LINE
  5
34F
330
1F
100
AcDbEntity
  8
0
  6
Continuous
 62
     7
370
    25
100
AcDbLine
 10
-0.2369198313
 20
-5.8645761893
 30
0.0
 11
0.7479108445
 21
-6.2189068021
 31
0.0
  0
LINE
  5
350
330
1F
100
AcDbEntity
  8
0
  6
Continuous
 62
     7
370
    25
100
AcDbLine
 10
5.7479108389
 20
-5.2455270511
 30
0.0
 11
5.7479108389
 21
-5.9055270511
 31
0.0
  0
LINE
  5
351
330
1F
100
AcDbEntity
  8
0
  6
Continuous
 62
     7
370
    25
100
AcDbLine
 10
5.7479108389
 20
-5.9055270511
 30
0.0
 11
5.6979108458
 21
-5.9055270511
 31
0.0
  0
LINE
  5
352
330
1F
100
AcDbEntity
  8
0
  6
Continuous
 62
     7
370
    25
100
AcDbLine
 10
5.6979108458
 20
-5.2455270511
 30
0.0
 11
5.7479108389
 21
-5.2455270511
 31
0.0
  0
LINE
  5
353
330
1F
100
AcDbEntity
  8
0
  6
Continuous
 62
     7
370
    25
100
AcDbLine
 10
2.8979108458
 20
-7.905527069
 30
0.0
 11
2.0979108458
 21
-7.905527069
 31
0.0
  0
LINE
  5
354
330
1F
100
AcDbEntity
  8
0
  6
Continuous
 62
     7
370
    25
100
AcDbLine
 10
2.0979108458
 20
-7.905527069
 30
0.0
 11
2.0979108458
 21
-7.8755270511
 31
0.0
  0
LINE
  5
355
330
1F
100
AcDbEntity
  8
0
  6
Continuous
 62
     7
370
    25
100
AcDbLine
 10
2.8979108458
 20
-7.8755270511
 30
0.0
 11
2.8979108458
 21
-7.905527069
 31
0.0
  0
LINE
  5
356
330
1F
100
AcDbEntity
  8
0
  6
Continuous
 62
     7
370
    25
100
AcDbLine
 10
2.0979108458
 20
6.8544729193
 30
0.0
 11
2.8979108458
 21
6.8544729193
 31
0.0
  0
LINE
  5
357
330
1F
100
AcDbEntity
  8
0
  6
Continuous
 62
     7
370
    25
100
AcDbLine
 10
2.8979108458
 20
6.8544729193
 30
0.0
 11
2.8979108458
 21
6.6544729193
 31
0.0
  0
LINE
  5
358
330
1F
100
AcDbEntity
  8
0
  6
Continuous
 62
     7
370
    25
100
AcDbLine
 10
3.5979108479
 20
6.6544729489
 30
0.0
 11
2.0979108458
 21
6.6544729489
 31
0.0
  0
LINE
  5
359
330
1F
100
AcDbEntity
  8
0
  6
Continuous
 62
     7
370
    25
100
AcDbLine
 10
2.0979108458
 20
6.8544729193
 30
0.0
 11
2.0979108458
 21
6.4332044277
 31
0.0
  0
LINE
  5
35A
330
1F
100
AcDbEntity
  8
0
  6
Continuous
 62
     7
370
    25
100
AcDbLine
 10
-7.1020891542
 20
-7.905527069
 30
0.0
 11
-7.9020891542
 21
-7.905527069
 31
0.0
  0
LINE
  5
35B
330
1F
100
AcDbEntity
  8
0
  6
Continuous
 62
     7
370
    25
100
AcDbLine
 10
-7.1020891542
 20
-7.8755270511
 30
0.0
 11
-7.1020891542
 21
-7.905527069
 31
0.0
  0
LINE
  5
35C
330
1F
100
AcDbEntity
  8
0
  6
Continuous
 62
     7
370
    25
100
AcDbLine
 10
-7.9020891542
 20
-7.905527069
 30
0.0
 11
-7.9020891542
 21
-7.8755270511
 31
0.0
  0
LINE
  5
35D
330
1F
100
AcDbEntity
  8
0
  6
Continuous
 62
     7
370
    25
100
AcDbLine
 10
0.9979108458
 20
6.4809613569
 30
0.0
 11
1.5979108458
 21
6.4809613569
 31
0.0
  0
LINE
  5
35E
330
1F
100
AcDbEntity
  8
0
  6
Continuous
 62
     7
370
    25
100
AcDbLine
 10
0.9979108458
 20
6.5829651869
 30
0.0
 11
0.9979108458
 21
6.4809613569
 31
0.0
  0
LINE
  5
35F
330
1F
100
AcDbEntity
  8
0
  6
Continuous
 62
     7
370
    25
100
AcDbLine
 10
2.0979108458
 20
6.7109613569
 30
0.0
 11
1.4216968214
 21
6.7109613569
 31
0.0
  0
LINE
  5
360
330
1F
100
AcDbEntity
  8
0
  6
Continuous
 62
     7
370
    25
100
AcDbLine
 10
1.5979108458
 20
6.4809613569
 30
0.0
 11
1.5979108458
 21
6.5514877603
 31
0.0
  0
LINE
  5
361
330
1F
100
AcDbEntity
  8
0
  6
Continuous
 62
     7
370
    25
100
AcDbLine
 10
1.5979108458
 20
6.7017263713
 30
0.0
 11
1.5979108458
 21
6.7109613569
 31
0.0
  0
LINE
  5
362
330
1F
100
AcDbEntity
  8
0
  6
Continuous
 62
     7
370
    25
100
AcDbLine
 10
-7.9020891542
 20
6.8544729193
 30
0.0
 11
-7.1020891542
 21
6.8544729193
 31
0.0
  0
LINE
  5
363
330
1F
100
AcDbEntity
  8
0
  6
Continuous
 62
     7
370
    25
100
AcDbLine
 10
-7.1020891542
 20
6.8544729193
 30
0.0
 11
-7.1020891542
 21
6.8244729489
 31
0.0
  0
LINE
  5
364
330
1F
100
AcDbEntity
  8
0
  6
Continuous
 62
     7
370
    25
100
AcDbLine
 10
-7.9020891542
 20
6.8244729489
 30
0.0
 11
-7.9020891542
 21
6.8544729193
 31
0.0
  0
LINE
  5
365
330
1F
100
AcDbEntity
  8
0
  6
Continuous
 62
     7
370
    25
100
AcDbLine
 10
3.4479108426
 20
6.6744729489
 30
0.0
 11
3.4479108426
 21
6.8244729489
 31
0.0
  0
LINE
  5
366
330
1F
100
AcDbEntity
  8
0
  6
Continuous
 62
     7
370
    25
100
AcDbLine
 10
0.7479108394
 20
6.7462729838
 30
0.0
 11
0.7479108394
 21
6.8244729489
 31
0.0
  0
LINE
  5
367
330
1F
100
AcDbEntity
  8
0
  6
Continuous
 62
     7
370
    25
100
AcDbLine
 10
3.2479108474
 20
6.6744729489
 30
0.0
 11
3.2479108474
 21
6.8244729489
 31
0.0
  0
LINE
  5
368
330
1F
100
AcDbEntity
  8
0
  6
Continuous
 62
     7
370
    25
100
AcDbLine
 10
3.0979108442
 20
6.6744729489
 30
0.0
 11
3.0979108442
 21
6.8244729489
 31
0.0
  0
LINE
  5
369
330
1F
100
AcDbEntity
  8
0
  6
Continuous
 62
     7
370
    25
100
AcDbLine
 10
3.2479108474
 20
6.6744729489
 30
0.0
 11
3.4479108426
 21
6.6744729489
 31
0.0
  0
LINE
  5
36A
330
1F
100
AcDbEntity
  8
0
  6
Continuous
 62
     7
370
    25
100
AcDbLine
 10
3.2479108474
 20
6.8244729489
 30
0.0
 11
3.4479108426
 21
6.8244729489
 31
0.0
  0
LINE
  5
36B
330
1F
100
AcDbEntity
  8
0
  6
Continuous
 62
     7
370
    25
100
AcDbLine
 10
3.5779108458
 20
5.42793167
 30
0.0
 11
3.5779108458
 21
5.7944729537
 31
0.0
  0
LINE
  5
36C
330
1F
100
AcDbEntity
  8
0
  6
Continuous
 62
     7
370
    25
100
AcDbLine
 10
3.5779108458
 20
5.7944729537
 30
0.0
 11
3.4279108458
 21
5.7944729537
 31
0.0
  0
LINE
  5
36D
330
1F
100
AcDbEntity
  8
0
  6
Continuous
 62
     7
370
    25
100
AcDbLine
 10
3.4279108458
 20
5.7944729537
 30
0.0
 11
3.4279108458
 21
6.2244729489
 31
0.0
  0
LINE
  5
36E
330
1F
100
AcDbEntity
  8
0
  6
Continuous
 62
     7
370
    25
100
AcDbLine
 10
1.9939681996
 20
6.3244729489
 30
0.0
 11
-1.5020891542
 21
6.3244729489
 31
0.0
  0
LINE
  5
36F
330
1F
100
AcDbEntity
  8
0
  6
Continuous
 62
     7
370
    25
100
AcDbLine
 10
-2.4320891592
 20
-7.7255270511
 30
0.0
 11
-2.4320891592
 21
-7.705527069
 31
0.0
  0
LINE
  5
370
330
1F
100
AcDbEntity
  8
0
  6
Continuous
 62
     7
370
    25
100
AcDbLine
 10
-2.9720891592
 20
-7.7055270452
 30
0.0
 11
-2.9720891592
 21
-7.7255270511
 31
0.0
  0
LINE
  5
371
330
1F
100
AcDbEntity
  8
0
  6
Continuous
 62
     7
370
    25
100
AcDbLine
 10
2.947910841
 20
6.6744729489
 30
0.0
 11
2.947910841
 21
6.8244729489
 31
0.0
  0
LINE
  5
372
330
1F
100
AcDbEntity
  8
0
  6
Continuous
 62
     7
370
    25
100
AcDbLine
 10
2.8979108458
 20
6.6744729489
 30
0.0
 11
2.947910841
 21
6.6744729489
 31
0.0
  0
LINE
  5
373
330
1F
100
AcDbEntity
  8
0
  6
Continuous
 62
     7
370
    25
100
AcDbLine
 10
0.8979108426
 20
6.8244729489
 30
0.0
 11
2.0979108458
 21
6.8244729489
 31
0.0
  0
LINE
  5
374
330
1F
100
AcDbEntity
  8
0
  6
Continuous
 62
     7
370
    25
100
AcDbLine
 10
2.8979108458
 20
6.8244729489
 30
0.0
 11
2.947910841
 21
6.8244729489
 31
0.0
  0
LINE
  5
375
330
1F
100
AcDbEntity
  8
0
  6
Continuous
 62
     7
370
    25
100
AcDbLine
 10
3.997910843
 20
6.8244729489
 30
0.0
 11
3.9979108458
 21
7.3244729489
 31
0.0
  0
LINE
  5
376
330
1F
100
AcDbEntity
  8
0
  6
Continuous
 62
     7
370
    25
100
AcDbLine
 10
4.8979108458
 20
-7.0755270511
 30
0.0
 11
4.0979108458
 21
-7.0755270511
 31
0.0
  0
LINE
  5
377
330
1F
100
AcDbEntity
  8
0
  6
Continuous
 62
     7
370
    25
100
AcDbLine
 10
4.8979108458
 20
-6.9755270511
 30
0.0
 11
4.8979108458
 21
-7.4755270511
 31
0.0
  0
LINE
  5
378
330
1F
100
AcDbEntity
  8
0
  6
Continuous
 62
     7
370
    25
100
AcDbLine
 10
4.0979108458
 20
-7.4755270511
 30
0.0
 11
4.0979108458
 21
-6.9755270511
 31
0.0
  0
LINE
  5
379
330
1F
100
AcDbEntity
  8
0
  6
Continuous
 62
     7
370
    25
100
AcDbLine
 10
-5.9020891542
 20
6.9244729489
 30
0.0
 11
-4.3020891542
 21
6.9244729489
 31
0.0
  0
LINE
  5
37A
330
1F
100
AcDbEntity
  8
0
  6
Continuous
 62
     7
370
    25
100
AcDbLine
 10
-4.3020891542
 20
7.3244729489
 30
0.0
 11
-4.3020891534
 21
6.8244729489
 31
0.0
  0
LINE
  5
37B
330
1F
100
AcDbEntity
  8
0
  6
Continuous
 62
     7
370
    25
100
AcDbLine
 10
-5.9020891526
 20
6.8244729489
 30
0.0
 11
-5.9020891542
 21
7.3244729489
 31
0.0
  0
LINE
  5
37C
330
1F
100
AcDbEntity
  8
0
  6
Continuous
 62
     7
370
    25
100
AcDbLine
 10
3.9979108458
 20
6.9244729489
 30
0.0
 11
4.7979108458
 21
6.9244729489
 31
0.0
  0
LINE
  5
37D
330
1F
100
AcDbEntity
  8
0
  6
Continuous
 62
     7
370
    25
100
AcDbLine
 10
-4.3020891542
 20
-7.9755270511
 30
0.0
 11
-5.9020891542
 21
-7.9755270511
 31
0.0
  0
LINE
  5
37E
330
1F
100
AcDbEntity
  8
0
  6
Continuous
 62
     7
370
    25
100
AcDbLine
 10
-4.3020891532
 20
-7.8755270511
 30
0.0
 11
-4.3020891542
 21
-8.3755270511
 31
0.0
  0
LINE
  5
37F
330
1F
100
AcDbEntity
  8
0
  6
Continuous
 62
     7
370
    25
100
AcDbLine
 10
-5.9020891542
 20
-8.3755270511
 30
0.0
 11
-5.9020891532
 21
-7.8755270511
 31
0.0
  0
LINE
  5
380
330
1F
100
AcDbEntity
  8
0
  6
Continuous
 62
     7
370
    25
100
AcDbLine
 10
-5.7520891542
 20
7.4744729489
 30
0.0
 11
-4.4520891542
 21
7.4744729489
 31
0.0
  0
LINE
  5
381
330
1F
100
AcDbEntity
  8
0
  6
Continuous
 62
     7
370
    25
100
AcDbLine
 10
-4.4520891542
 20
-8.5255270511
 30
0.0
 11
-5.7520891542
 21
-8.5255270511
 31
0.0
  0
LINE
  5
382
330
1F
100
AcDbEntity
  8
0
  6
Continuous
 62
     7
370
    25
100
AcDbLine
 10
4.7479108458
 20
-7.6255270511
 30
0.0
 11
4.2479108458
 21
-7.6255270511
 31
0.0
  0
LINE
  5
383
330
1F
100
AcDbEntity
  8
0
  6
Continuous
 62
     7
370
    25
100
AcDbLine
 10
4.1479108458
 20
7.4744729489
 30
0.0
 11
4.6479108458
 21
7.4744729489
 31
0.0
  0
LINE
  5
384
330
1F
100
AcDbEntity
  8
0
  6
Continuous
 62
     7
370
    25
100
AcDbLine
 10
5.4479108457
 20
-2.6255270511
 30
0.0
 11
5.4479108457
 21
-2.9255270511
 31
0.0
  0
LINE
  5
385
330
1F
100
AcDbEntity
  8
0
  6
Continuous
 62
     7
370
    25
100
AcDbLine
 10
4.9979108462
 20
-2.6255270511
 30
0.0
 11
5.4979108457
 21
-2.6255270511
 31
0.0
  0
LINE
  5
386
330
1F
100
AcDbEntity
  8
0
  6
Continuous
 62
     7
370
    25
100
AcDbLine
 10
5.4979108457
 20
-2.9255270511
 30
0.0
 11
4.9979108462
 21
-2.9255270511
 31
0.0
  0
LINE
  5
387
330
1F
100
AcDbEntity
  8
0
  6
Continuous
 62
     7
370
    25
100
AcDbLine
 10
5.4979108457
 20
-2.6255270511
 30
0.0
 11
5.4979108457
 21
-2.9255270511
 31
0.0
  0
LINE
  5
388
330
1F
100
AcDbEntity
  8
0
  6
Continuous
 62
     7
370
    25
100
AcDbLine
 10
5.4979108457
 20
-1.5255270511
 30
0.0
 11
5.4979108457
 21
-1.8255270511
 31
0.0
  0
LINE
  5
389
330
1F
100
AcDbEntity
  8
0
  6
Continuous
 62
     7
370
    25
100
AcDbLine
 10
5.4479108457
 20
-1.5255270511
 30
0.0
 11
5.4479108457
 21
-1.8255270511
 31
0.0
  0
LINE
  5
38A
330
1F
100
AcDbEntity
  8
0
  6
Continuous
 62
     7
370
    25
100
AcDbLine
 10
5.1479108458
 20
-1.5255270511
 30
0.0
 11
5.4979108457
 21
-1.5255270511
 31
0.0
  0
LINE
  5
38B
330
1F
100
AcDbEntity
  8
0
  6
Continuous
 62
     7
370
    25
100
AcDbLine
 10
5.4979108457
 20
-1.8255270511
 30
0.0
 11
5.1479108458
 21
-1.8255270511
 31
0.0
  0
LINE
  5
38C
330
1F
100
AcDbEntity
  8
0
  6
Continuous
 62
     7
370
    25
100
AcDbLine
 10
5.4479108457
 20
-0.4255270511
 30
0.0
 11
5.4479108457
 21
-0.7255270511
 31
0.0
  0
LINE
  5
38D
330
1F
100
AcDbEntity
  8
0
  6
Continuous
 62
     7
370
    25
100
AcDbLine
 10
5.1479108458
 20
-0.4255270511
 30
0.0
 11
5.4979108457
 21
-0.4255270511
 31
0.0
  0
LINE
  5
38E
330
1F
100
AcDbEntity
  8
0
  6
Continuous
 62
     7
370
    25
100
AcDbLine
 10
5.4979108457
 20
-0.7255270511
 30
0.0
 11
5.1479108458
 21
-0.7255270511
 31
0.0
  0
LINE
  5
38F
330
1F
100
AcDbEntity
  8
0
  6
Continuous
 62
     7
370
    25
100
AcDbLine
 10
5.4979108457
 20
-0.4255270511
 30
0.0
 11
5.4979108457
 21
-0.7255270511
 31
0.0
  0
LINE
  5
390
330
1F
100
AcDbEntity
  8
0
  6
Continuous
 62
     7
370
    25
100
AcDbLine
 10
5.4979108457
 20
0.6744729489
 30
0.0
 11
5.4979108457
 21
0.3744729489
 31
0.0
  0
LINE
  5
391
330
1F
100
AcDbEntity
  8
0
  6
Continuous
 62
     7
370
    25
100
AcDbLine
 10
5.4479108457
 20
0.6744729489
 30
0.0
 11
5.4479108457
 21
0.3744729489
 31
0.0
  0
LINE
  5
392
330
1F
100
AcDbEntity
  8
0
  6
Continuous
 62
     7
370
    25
100
AcDbLine
 10
5.4979108457
 20
0.3744729489
 30
0.0
 11
5.1479108458
 21
0.3744729489
 31
0.0
  0
LINE
  5
393
330
1F
100
AcDbEntity
  8
0
  6
Continuous
 62
     7
370
    25
100
AcDbLine
 10
5.1479108458
 20
0.6744729489
 30
0.0
 11
5.4979108457
 21
0.6744729489
 31
0.0
  0
LINE
  5
394
330
1F
100
AcDbEntity
  8
0
  6
Continuous
 62
     7
370
    25
100
AcDbLine
 10
5.4479108457
 20
1.7744729489
 30
0.0
 11
5.4479108457
 21
1.4744729489
 31
0.0
  0
LINE
  5
395
330
1F
100
AcDbEntity
  8
0
  6
Continuous
 62
     7
370
    25
100
AcDbLine
 10
5.1479108458
 20
1.7744729489
 30
0.0
 11
5.4979108457
 21
1.7744729489
 31
0.0
  0
LINE
  5
396
330
1F
100
AcDbEntity
  8
0
  6
Continuous
 62
     7
370
    25
100
AcDbLine
 10
5.4979108457
 20
1.4744729489
 30
0.0
 11
5.1479108458
 21
1.4744729489
 31
0.0
  0
LINE
  5
397
330
1F
100
AcDbEntity
  8
0
  6
Continuous
 62
     7
370
    25
100
AcDbLine
 10
5.4979108457
 20
1.7744729489
 30
0.0
 11
5.4979108457
 21
1.4744729489
 31
0.0
  0
LINE
  5
398
330
1F
100
AcDbEntity
  8
0
  6
Continuous
 62
     7
370
    25
100
AcDbLine
 10
5.4979108457
 20
2.8744729489
 30
0.0
 11
5.4979108457
 21
2.5744729489
 31
0.0
  0
LINE
  5
399
330
1F
100
AcDbEntity
  8
0
  6
Continuous
 62
     7
370
    25
100
AcDbLine
 10
5.4479108457
 20
2.8744729489
 30
0.0
 11
5.4479108457
 21
2.5744729489
 31
0.0
  0
LINE
  5
39A
330
1F
100
AcDbEntity
  8
0
  6
Continuous
 62
     7
370
    25
100
AcDbLine
 10
5.4979108457
 20
2.5744729489
 30
0.0
 11
5.1479108458
 21
2.5744729489
 31
0.0
  0
LINE
  5
39B
330
1F
100
AcDbEntity
  8
0
  6
Continuous
 62
     7
370
    25
100
AcDbLine
 10
5.1479108458
 20
2.8744729489
 30
0.0
 11
5.4979108457
 21
2.8744729489
 31
0.0
  0
LINE
  5
39C
330
1F
100
AcDbEntity
  8
0
  6
Continuous
 62
     7
370
    25
100
AcDbLine
 10
5.4479108457
 20
3.9744729489
 30
0.0
 11
5.4479108457
 21
3.6744729489
 31
0.0
  0
LINE
  5
39D
330
1F
100
AcDbEntity
  8
0
  6
Continuous
 62
     7
370
    25
100
AcDbLine
 10
5.4979108457
 20
3.6744729489
 30
0.0
 11
5.1479108458
 21
3.6744729489
 31
0.0
  0
LINE
  5
39E
330
1F
100
AcDbEntity
  8
0
  6
Continuous
 62
     7
370
    25
100
AcDbLine
 10
5.1479108458
 20
3.9744729489
 30
0.0
 11
5.4979108457
 21
3.9744729489
 31
0.0
  0
LINE
  5
39F
330
1F
100
AcDbEntity
  8
0
  6
Continuous
 62
     7
370
    25
100
AcDbLine
 10
5.4979108457
 20
3.9744729489
 30
0.0
 11
5.4979108457
 21
3.6744729489
 31
0.0
  0
LINE
  5
3A0
330
1F
100
AcDbEntity
  8
0
  6
Continuous
 62
     7
370
    25
100
AcDbLine
 10
5.4479108457
 20
5.0744729489
 30
0.0
 11
5.4479108457
 21
4.7744729489
 31
0.0
  0
LINE
  5
3A1
330
1F
100
AcDbEntity
  8
0
  6
Continuous
 62
     7
370
    25
100
AcDbLine
 10
5.1479108458
 20
5.0744729489
 30
0.0
 11
5.4979108457
 21
5.0744729489
 31
0.0
  0
LINE
  5
3A2
330
1F
100
AcDbEntity
  8
0
  6
Continuous
 62
     7
370
    25
100
AcDbLine
 10
5.4979108457
 20
4.7744729489
 30
0.0
 11
5.1479108458
 21
4.7744729489
 31
0.0
  0
LINE
  5
3A3
330
1F
100
AcDbEntity
  8
0
  6
Continuous
 62
     7
370
    25
100
AcDbLine
 10
5.4979108457
 20
5.0744729489
 30
0.0
 11
5.4979108457
 21
4.7744729489
 31
0.0
  0
LINE
  5
3A4
330
1F
100
AcDbEntity
  8
0
  6
Continuous
 62
     7
370
    25
100
AcDbLine
 10
2.2972632126
 20
6.2244729489
 30
0.0
 11
3.5979108473
 21
6.2244729489
 31
0.0
  0
LINE
  5
3A5
330
1F
100
AcDbEntity
  8
0
  6
Continuous
 62
     7
370
    25
100
AcDbLine
 10
2.6258728727
 20
5.446440011
 30
0.0
 11
2.5877078981
 21
5.5915035646
 31
0.0
  0
LINE
  5
3A6
330
1F
100
AcDbEntity
  8
0
  6
Continuous
 62
     7
370
    25
100
AcDbLine
 10
2.7037587414
 20
5.6220355441
 30
0.0
 11
2.220213561
 21
5.4948189628
 31
0.0
  0
LINE
  5
3A7
330
1F
100
AcDbEntity
  8
0
  6
Continuous
 62
     7
370
    25
100
AcDbLine
 10
2.7037587414
 20
5.6220355441
 30
0.0
 11
2.7419237159
 21
5.4769719908
 31
0.0
  0
LINE
  5
3A8
330
1F
100
AcDbEntity
  8
0
  6
Continuous
 62
     7
370
    25
100
AcDbLine
 10
2.2833276785
 20
5.3563193134
 30
0.0
 11
2.7419237159
 21
5.4769719908
 31
0.0
  0
LINE
  5
3A9
330
1F
100
AcDbEntity
  8
0
  6
Continuous
 62
     7
370
    25
100
AcDbLine
 10
-0.1020891559
 20
6.2244729489
 30
0.0
 11
-0.1020891559
 21
6.0744729489
 31
0.0
  0
LINE
  5
3AA
330
1F
100
AcDbEntity
  8
0
  6
Continuous
 62
     7
370
    25
100
AcDbLine
 10
1.8264120882
 20
5.9661291638
 30
0.0
 11
1.8101111869
 21
5.9951058849
 31
0.0
  0
LINE
  5
3AB
330
1F
100
AcDbEntity
  8
0
  6
Continuous
 62
     7
370
    25
100
AcDbLine
 10
2.0840086043
 20
6.2244729489
 30
0.0
 11
-1.5020891542
 21
6.2244729489
 31
0.0
  0
LINE
  5
3AC
330
1F
100
AcDbEntity
  8
0
  6
Continuous
 62
     7
370
    25
100
AcDbLine
 10
1.417910846
 20
6.0744729489
 30
0.0
 11
-1.5020891542
 21
6.0744729489
 31
0.0
  0
LINE
  5
3AD
330
1F
100
AcDbEntity
  8
0
  6
Continuous
 62
     7
370
    25
100
AcDbLine
 10
2.220213561
 20
5.4948189628
 30
0.0
 11
2.2015542979
 21
5.4934895327
 31
0.0
  0
LINE
  5
3AE
330
1F
100
AcDbEntity
  8
0
  6
Continuous
 62
     7
370
    25
100
AcDbLine
 10
-0.2020891543
 20
6.2244729489
 30
0.0
 11
-0.2020891543
 21
6.0744729489
 31
0.0
  0
LINE
  5
3AF
330
1F
100
AcDbEntity
  8
0
  6
Continuous
 62
     7
370
    25
100
AcDbLine
 10
-1.352089154
 20
6.2744729489
 30
0.0
 11
-1.3020891511
 21
6.2244729489
 31
0.0
  0
LINE
  5
3B0
330
1F
100
AcDbEntity
  8
0
  6
Continuous
 62
     7
370
    25
100
AcDbLine
 10
-1.5020891542
 20
6.2744729489
 30
0.0
 11
-1.352089154
 21
6.2744729489
 31
0.0
  0
LINE
  5
3B1
330
1F
100
AcDbEntity
  8
0
  6
Continuous
 62
     7
370
    25
100
AcDbLine
 10
3.5479108422
 20
6.2244729489
 30
0.0
 11
3.5979108473
 21
6.213248558
 31
0.0
  0
LINE
  5
3B2
330
1F
100
AcDbEntity
  8
0
  6
Continuous
 62
     7
370
    25
100
AcDbLine
 10
5.4479108465
 20
5.8744729489
 30
0.0
 11
5.4479108465
 21
6.1744729489
 31
0.0
  0
LINE
  5
3B3
330
1F
100
AcDbEntity
  8
0
  6
Continuous
 62
     7
370
    25
100
AcDbLine
 10
5.4979108456
 20
6.1744729489
 30
0.0
 11
4.9979108464
 21
6.1744729489
 31
0.0
  0
LINE
  5
3B4
330
1F
100
AcDbEntity
  8
0
  6
Continuous
 62
     7
370
    25
100
AcDbLine
 10
5.4979108456
 20
5.8744729489
 30
0.0
 11
4.9979108464
 21
5.8744729489
 31
0.0
  0
LINE
  5
3B5
330
1F
100
AcDbEntity
  8
0
  6
Continuous
 62
     7
370
    25
100
AcDbLine
 10
5.4979108456
 20
5.8744729489
 30
0.0
 11
5.4979108456
 21
6.1744729489
 31
0.0
  0
LINE
  5
3B6
330
1F
100
AcDbEntity
  8
0
  6
Continuous
 62
     7
370
    25
100
AcDbLine
 10
0.5979108498
 20
6.7541341501
 30
0.0
 11
0.5979108498
 21
6.8244729489
 31
0.0
  0
LINE
  5
3B7
330
1F
100
AcDbEntity
  8
0
  6
Continuous
 62
     7
370
    25
100
AcDbLine
 10
0.8979108426
 20
6.7384118168
 30
0.0
 11
0.8979108426
 21
6.8244729489
 31
0.0
  0
ARC
  5
3B8
330
1F
100
AcDbEntity
  8
0
  6
Continuous
 62
     7
370
    25
100
AcDbCircle
 10
2.6011814771
 20
6.6215040412
 30
0.0
 40
0.649999999747282
100
AcDbArc
 50
222.0000000554
 51
267.0000000775
  0
ARC
  5
3B9
330
1F
100
AcDbEntity
  8
0
  6
Continuous
 62
     7
370
    25
100
AcDbCircle
 10
1.5660328757
 20
6.0525049998
 30
0.0
 40
0.5000000003041088
100
AcDbArc
 50
42.0000000551
 51
87.000000016
  0
ARC
  5
3BA
330
1F
100
AcDbEntity
  8
0
  6
Continuous
 62
     7
370
    25
100
AcDbCircle
 10
1.5660328757
 20
6.0525049998
 30
0.0
 40
0.6500000002182028
100
AcDbArc
 50
42.0000000899
 51
87.0000000163
  0
ARC
  5
3BB
330
1F
100
AcDbEntity
  8
0
  6
Continuous
 62
     7
370
    25
100
AcDbCircle
 10
2.6011814771
 20
6.6215040412
 30
0.0
 40
0.4999999996652137
100
AcDbArc
 50
222.0000000901
 51
267.0000000452
  0
ARC
  5
3BC
330
1F
100
AcDbEntity
  8
0
  6
Continuous
 62
     7
370
    25
100
AcDbCircle
 10
0.0438706702
 20
-5.7582184708
 30
0.0
 40
0.9973085802116153
100
AcDbArc
 50
270.0000000004
 51
281.9112154591
  0
ARC
  5
3BD
330
1F
100
AcDbEntity
  8
0
  6
Continuous
 62
     7
370
    25
100
AcDbCircle
 10
0.0923212884
 20
-6.1082185141
 30
0.0
 40
0.9973085374690519
100
AcDbArc
 50
269.9999999997
 51
281.9112154155
  0
ARC
  5
3BE
330
1F
100
AcDbEntity
  8
0
  6
Continuous
 62
     7
370
    25
100
AcDbCircle
 10
1.4179108458
 20
5.7744729489
 30
0.0
 40
0.2999999999999965
100
AcDbArc
 50
39.7064218449
 51
89.999999967
  0
ARC
  5
3BF
330
1F
100
AcDbEntity
  8
0
  6
Continuous
 62
     7
370
    25
100
AcDbCircle
 10
1.4179108458
 20
5.7744729489
 30
0.0
 40
0.449999999998261
100
AcDbArc
 50
29.360000081
 51
90.0000000002
  0
ENDSEC
  0
SECTION
  2
OBJECTS
  0
DICTIONARY
  5
C
330
0
100
AcDbDictionary
281
     1
  3
ACAD_GROUP
350
D
  3
ACAD_LAYOUT
350
1A
  3
ACAD_MLINESTYLE
350
17
  3
ACAD_PLOTSETTINGS
350
19
  3
ACAD_PLOTSTYLENAME
350
E
  3
ACAD_SCALELIST
350
47
  3
DWGPROPS
350
3C0
  0
DICTIONARY
  5
D
102
{ACAD_REACTORS
330
C
102
}
330
C
100
AcDbDictionary
281
     1
  0
DICTIONARY
  5
1A
102
{ACAD_REACTORS
330
C
102
}
330
C
100
AcDbDictionary
281
     1
  3
Layout1
350
1E
  3
Layout2
350
26
  3
Model
350
22
  0
DICTIONARY
  5
17
102
{ACAD_REACTORS
330
C
102
}
330
C
100
AcDbDictionary
281
     1
  3
Standard
350
18
  0
DICTIONARY
  5
19
102
{ACAD_REACTORS
330
C
102
}
330
C
100
AcDbDictionary
281
     1
  0
ACDBDICTIONARYWDFLT
  5
E
102
{ACAD_REACTORS
330
C
102
}
330
C
100
AcDbDictionary
281
     1
  3
Normal
350
F
100
AcDbDictionaryWithDefault
340
F
  0
DICTIONARY
  5
47
102
{ACAD_REACTORS
330
C
102
}
330
C
100
AcDbDictionary
281
     1
  3
A0
350
48
  3
A1
350
49
  3
A2
350
4A
  3
A3
350
4B
  3
A4
350
4C
  3
A5
350
4D
  3
A6
350
4E
  3
A7
350
4F
  3
A8
350
50
  3
A9
350
51
  3
B0
350
52
  3
B1
350
53
  3
B2
350
54
  3
B3
350
55
  3
B4
350
56
  3
B5
350
57
  3
B6
350
58
  0
XRECORD
  5
3C0
102
{ACAD_REACTORS
330
C
102
}
330
C
100
AcDbXrecord
280
     1
  1
DWGPROPS COOKIE
  2

  3

  4

  6

  7

  8
www14
  9

300
=
301
=
302
=
303
=
304
=
305
=
306
=
307
=
308
=
309
=
 40
0.0
 41
2460052.5428625
 42
2460052.542892836
  1

 90
        0
  0
LAYOUT
  5
1E
102
{ACAD_REACTORS
330
1A
102
}
330
1A
100
AcDbPlotSettings
  1

  2
none_device
  4

  6

 40
0.0
 41
0.0
 42
0.0
 43
0.0
 44
0.0
 45
0.0
 46
0.0
 47
0.0
 48
0.0
 49
0.0
140
0.0
141
0.0
142
1.0
143
1.0
 70
   688
 72
     1
 73
     0
 74
     5
  7

 75
    16
147
1.0
148
0.0
149
0.0
100
AcDbLayout
  1
Layout1
 70
     1
 71
     1
 10
0.0
 20
0.0
 11
420.0
 21
297.0
 12
0.0
 22
0.0
 32
0.0
 14
1.0000000000E+20
 24
1.0000000000E+20
 34
1.0000000000E+20
 15
-1.0000000000E+20
 25
-1.0000000000E+20
 35
-1.0000000000E+20
146
0.0
 13
0.0
 23
0.0
 33
0.0
 16
1.0
 26
0.0
 36
0.0
 17
0.0
 27
1.0
 37
0.0
 76
     0
330
1B
  0
LAYOUT
  5
26
102
{ACAD_REACTORS
330
1A
102
}
330
1A
100
AcDbPlotSettings
  1

  2
none_device
  4

  6

 40
0.0
 41
0.0
 42
0.0
 43
0.0
 44
0.0
 45
0.0
 46
0.0
 47
0.0
 48
0.0
 49
0.0
140
0.0
141
0.0
142
1.0
143
1.0
 70
   688
 72
     1
 73
     0
 74
     5
  7

 75
    16
147
1.0
148
0.0
149
0.0
100
AcDbLayout
  1
Layout2
 70
     1
 71
     2
 10
0.0
 20
0.0
 11
0.0
 21
0.0
 12
0.0
 22
0.0
 32
0.0
 14
0.0
 24
0.0
 34
0.0
 15
0.0
 25
0.0
 35
0.0
146
0.0
 13
0.0
 23
0.0
 33
0.0
 16
1.0
 26
0.0
 36
0.0
 17
0.0
 27
1.0
 37
0.0
 76
     0
330
23
  0
LAYOUT
  5
22
102
{ACAD_REACTORS
330
1A
102
}
330
1A
100
AcDbPlotSettings
  1

  2
none_device
  4
ANSI_A_(11.00_x_8.50_Inches)
  6

 40
6.35
 41
19.05
 42
6.35000508
 43
19.05000254
 44
279.4
 45
215.9
 46
158.4256795629
 47
95.9204160687
 48
0.0
 49
0.0
140
0.0
141
0.0
142
0.5259375
143
1.0
 70
  1696
 72
     0
 73
     0
 74
     0
  7

 75
     0
147
0.0179189148
148
-1300.4909072572
149
0.0
100
AcDbLayout
  1
Model
 70
     1
 71
     0
 10
0.0
 20
0.0
 11
420.0
 21
297.0
 12
0.0
 22
0.0
 32
0.0
 14
-9.5020891542
 24
-8.5255270511
 34
0.0
 15
5.7479108389
 25
7.4744729489
 35
0.0
146
0.0
 13
0.0
 23
0.0
 33
0.0
 16
1.0
 26
0.0
 36
0.0
 17
0.0
 27
1.0
 37
0.0
 76
     0
330
1F
331
29
  0
MLINESTYLE
  5
18
102
{ACAD_REACTORS
330
17
102
}
330
17
100
AcDbMlineStyle
  2
Standard
 70
     0
  3

 62
   256
 51
90.0
 52
90.0
 71
     2
 49
0.5
 62
   256
  6
BYLAYER
 49
-0.5
 62
   256
  6
BYLAYER
  0
ACDBPLACEHOLDER
  5
F
102
{ACAD_REACTORS
330
E
102
}
330
E
  0
SCALE
  5
48
102
{ACAD_REACTORS
330
47
102
}
330
47
100
AcDbScale
 70
     0
300
1:1
140
1.0
141
1.0
290
     1
  0
SCALE
  5
49
102
{ACAD_REACTORS
330
47
102
}
330
47
100
AcDbScale
 70
     0
300
1:2
140
1.0
141
2.0
290
     0
  0
SCALE
  5
4A
102
{ACAD_REACTORS
330
47
102
}
330
47
100
AcDbScale
 70
     0
300
1:4
140
1.0
141
4.0
290
     0
  0
SCALE
  5
4B
102
{ACAD_REACTORS
330
47
102
}
330
47
100
AcDbScale
 70
     0
300
1:5
140
1.0
141
5.0
290
     0
  0
SCALE
  5
4C
102
{ACAD_REACTORS
330
47
102
}
330
47
100
AcDbScale
 70
     0
300
1:8
140
1.0
141
8.0
290
     0
  0
SCALE
  5
4D
102
{ACAD_REACTORS
330
47
102
}
330
47
100
AcDbScale
 70
     0
300
1:10
140
1.0
141
10.0
290
     0
  0
SCALE
  5
4E
102
{ACAD_REACTORS
330
47
102
}
330
47
100
AcDbScale
 70
     0
300
1:16
140
1.0
141
16.0
290
     0
  0
SCALE
  5
4F
102
{ACAD_REACTORS
330
47
102
}
330
47
100
AcDbScale
 70
     0
300
1:20
140
1.0
141
20.0
290
     0
  0
SCALE
  5
50
102
{ACAD_REACTORS
330
47
102
}
330
47
100
AcDbScale
 70
     0
300
1:30
140
1.0
141
30.0
290
     0
  0
SCALE
  5
51
102
{ACAD_REACTORS
330
47
102
}
330
47
100
AcDbScale
 70
     0
300
1:40
140
1.0
141
40.0
290
     0
  0
SCALE
  5
52
102
{ACAD_REACTORS
330
47
102
}
330
47
100
AcDbScale
 70
     0
300
1:50
140
1.0
141
50.0
290
     0
  0
SCALE
  5
53
102
{ACAD_REACTORS
330
47
102
}
330
47
100
AcDbScale
 70
     0
300
1:100
140
1.0
141
100.0
290
     0
  0
SCALE
  5
54
102
{ACAD_REACTORS
330
47
102
}
330
47
100
AcDbScale
 70
     0
300
2:1
140
2.0
141
1.0
290
     0
  0
SCALE
  5
55
102
{ACAD_REACTORS
330
47
102
}
330
47
100
AcDbScale
 70
     0
300
4:1
140
4.0
141
1.0
290
     0
  0
SCALE
  5
56
102
{ACAD_REACTORS
330
47
102
}
330
47
100
AcDbScale
 70
     0
300
8:1
140
8.0
141
1.0
290
     0
  0
SCALE
  5
57
102
{ACAD_REACTORS
330
47
102
}
330
47
100
AcDbScale
 70
     0
300
10:1
140
10.0
141
1.0
290
     0
  0
SCALE
  5
58
102
{ACAD_REACTORS
330
47
102
}
330
47
100
AcDbScale
 70
     0
300
100:1
140
100.0
141
1.0
290
     0
  0
ENDSEC
  0
EOF
